<?xml version="1.0" encoding="UTF-8"?>
<svg viewBox="-50 -50 600 700" xmlns="http://www.w3.org/2000/svg">
<style>
circle, path, polygon, rect {
  fill: lightyellow;
}
circle, path, polygon, polyline, rect {
  stroke: black;
  stroke-width: 1.3;
}
polyline {
  fill: none;
}
text {
  dominant-baseline: middle;
  font-family: Arial, sans-serif;
  font-size: 10px;
  text-anchor: middle;
}
</style>
<polyline points="250,7 250,140"/>
<polyline points="236,140 236,190 50,190 50,240"/>
<polyline points="250,140 250,190 250,190 250,240"/>
<polyline points="264,140 264,190 450,190 450,240"/>
<rect x="205" y="7" width="90" height="66"/>
<text x="250" y="40" style="font-size: 10px">
<tspan x="250" dy="-1.5em">Ethylene release</tspan>
<tspan x="250" dy="1em">due to</tspan>
<tspan x="250" dy="1em">components</tspan>
<tspan x="250" dy="1em">rupture</tspan>
</text>
<rect x="205" y="76" width="90" height="20"/>
<text x="250" y="86">G1</text>
<path d="M250,104 C245,106 218,120 218,150 L218,176 Q250,150 282,176 L282,150 C282,120 255,106 250,104"/>
<rect x="205" y="127" width="90" height="26"/>
<text x="250" y="140">Q ≤ 0.1062</text>
<polyline points="50,207 50,340"/>

<rect x="5" y="207" width="90" height="66"/>
<text x="50" y="240" style="font-size: 10px">
<tspan x="50" dy="-1em">Spontaneous</tspan>
<tspan x="50" dy="1em">rupture of</tspan>
<tspan x="50" dy="1em">deposit</tspan>
</text>
<rect x="5" y="276" width="90" height="20"/>
<text x="50" y="286">X31</text>
<circle cx="50" cy="340" r="35"/>
<rect x="5" y="327" width="90" height="26"/>
<text x="50" y="340">Q = 0.00079</text>
<polyline points="250,207 250,340"/>
<polyline points="236,340 236,390 150,390 150,440"/>
<polyline points="250,340 250,390 250,390 250,440"/>
<polyline points="264,340 264,390 350,390 350,440"/>
<rect x="205" y="207" width="90" height="66"/>
<text x="250" y="240" style="font-size: 10px">

</text>
<rect x="205" y="276" width="90" height="20"/>
<text x="250" y="286">G2</text>
<path d="M220,372 L280,372 L280,334 C280,294 220,294 220,334 L220,372 "/>
<rect x="205" y="327" width="90" height="26"/>
<text x="250" y="340">Q ≤ 0.05579</text>
<polyline points="150,407 150,540"/>

<rect x="105" y="407" width="90" height="66"/>
<text x="150" y="440" style="font-size: 10px">

</text>
<rect x="105" y="476" width="90" height="20"/>
<text x="150" y="486">G3</text>
<polygon points="150,506 115,574 185,574"/>
<rect x="105" y="527" width="90" height="26"/>
<text x="150" y="540">Q ≤ 0.1192</text>
<polyline points="250,407 250,540"/>

<rect x="205" y="407" width="90" height="66"/>
<text x="250" y="440" style="font-size: 10px">

</text>
<rect x="205" y="476" width="90" height="20"/>
<text x="250" y="486">G4</text>
<polygon points="250,506 215,574 285,574"/>
<rect x="205" y="527" width="90" height="26"/>
<text x="250" y="540">Q ≤ 0.624</text>
<polyline points="350,407 350,540"/>

<rect x="305" y="407" width="90" height="66"/>
<text x="350" y="440" style="font-size: 10px">

</text>
<rect x="305" y="476" width="90" height="20"/>
<text x="350" y="486">G5</text>
<polygon points="350,506 315,574 385,574"/>
<rect x="305" y="527" width="90" height="26"/>
<text x="350" y="540">Q = 0.75</text>
<polyline points="450,207 450,340"/>

<rect x="405" y="207" width="90" height="66"/>
<text x="450" y="240" style="font-size: 10px">
<tspan x="450" dy="-1em">External &amp;</tspan>
<tspan x="450" dy="1em">secondary</tspan>
<tspan x="450" dy="1em">effects</tspan>
</text>
<rect x="405" y="276" width="90" height="20"/>
<text x="450" y="286">X33</text>
<circle cx="450" cy="340" r="35"/>
<rect x="405" y="327" width="90" height="26"/>
<text x="450" y="340">Q = 0.04959</text>
</svg>
