<?xml version="1.0" encoding="UTF-8"?>
<svg viewBox="-10 -10 620 650" xmlns="http://www.w3.org/2000/svg">
<style>
circle, path, polygon, rect {
  fill: lightyellow;
}
circle, path, polygon, polyline, rect {
  stroke: black;
  stroke-width: 1.3;
}
polyline {
  fill: none;
}
text {
  dominant-baseline: middle;
  font-family: Consolas, Cousine, "Courier New", monospace;
  font-size: 10px;
  text-anchor: middle;
}
</style>
<polyline points="300,5 300,150"/>
<polyline points="285,150 285,200 60,200 60,250"/>
<polyline points="300,150 300,200 300,200 300,250"/>
<polyline points="315,150 315,200 540,200 540,250"/>
<rect x="246" y="5" width="108" height="70"/>
<text x="300" y="20.5" style="font-size: 10px">Ethylene release</text>
<text x="300" y="33.5" style="font-size: 10px">due to</text>
<text x="300" y="46.5" style="font-size: 10px">components</text>
<text x="300" y="59.5" style="font-size: 10px">rupture</text>
<rect x="246" y="80" width="108" height="24"/>
<text x="300" y="92">G1</text>
<path d="M300,112 C294,114 267,125 267,160 L267,186 Q300,156 333,186 L333,160 C333,125 306,114 300,112"/>
<rect x="246" y="138" width="108" height="24"/>
<text x="300" y="150">Q ≤ 0.1062</text>
<polyline points="60,215 60,360"/>

<rect x="6" y="215" width="108" height="70"/>
<text x="60" y="237" style="font-size: 10px">Spontaneous</text>
<text x="60" y="250" style="font-size: 10px">rupture of</text>
<text x="60" y="263" style="font-size: 10px">deposit</text>
<rect x="6" y="290" width="108" height="24"/>
<text x="60" y="302">X31</text>
<circle cx="60" cy="360" r="38"/>
<rect x="6" y="348" width="108" height="24"/>
<text x="60" y="360">Q = 7.9E-4</text>
<polyline points="300,215 300,360"/>
<polyline points="285,360 285,410 180,410 180,460"/>
<polyline points="300,360 300,410 300,410 300,460"/>
<polyline points="315,360 315,410 420,410 420,460"/>
<rect x="246" y="215" width="108" height="70"/>

<rect x="246" y="290" width="108" height="24"/>
<text x="300" y="302">G2</text>
<path d="M268,394 L332,394 L332,354 C332,312 268,312 268,354 L268,394 "/>
<rect x="246" y="348" width="108" height="24"/>
<text x="300" y="360">Q ≤ 0.05579</text>
<polyline points="180,425 180,570"/>

<rect x="126" y="425" width="108" height="70"/>

<rect x="126" y="500" width="108" height="24"/>
<text x="180" y="512">G3</text>
<polygon points="180,534 140,602 220,602"/>
<rect x="126" y="558" width="108" height="24"/>
<text x="180" y="570">Q ≤ 0.1192</text>
<polyline points="300,425 300,570"/>

<rect x="246" y="425" width="108" height="70"/>

<rect x="246" y="500" width="108" height="24"/>
<text x="300" y="512">G4</text>
<polygon points="300,534 260,602 340,602"/>
<rect x="246" y="558" width="108" height="24"/>
<text x="300" y="570">Q ≤ 0.624</text>
<polyline points="420,425 420,570"/>

<rect x="366" y="425" width="108" height="70"/>

<rect x="366" y="500" width="108" height="24"/>
<text x="420" y="512">G5</text>
<polygon points="420,534 380,602 460,602"/>
<rect x="366" y="558" width="108" height="24"/>
<text x="420" y="570">Q = 0.75</text>
<polyline points="540,215 540,360"/>

<rect x="486" y="215" width="108" height="70"/>
<text x="540" y="237" style="font-size: 10px">External &amp;</text>
<text x="540" y="250" style="font-size: 10px">secondary</text>
<text x="540" y="263" style="font-size: 10px">effects</text>
<rect x="486" y="290" width="108" height="24"/>
<text x="540" y="302">X33</text>
<circle cx="540" cy="360" r="38"/>
<rect x="486" y="348" width="108" height="24"/>
<text x="540" y="360">Q = 0.04959</text>
</svg>
