<?xml version="1.0" encoding="UTF-8"?>
<svg viewBox="-100 -200 600 1200" xmlns="http://www.w3.org/2000/svg">
<style>
path, rect {
  fill: lightyellow;
  stroke: black;
}
text {
  dominant-baseline: middle;
  font-family: Arial, sans-serif;
  font-size: 12px;
  text-anchor: middle;
}
</style>
<rect x="-45" y="-93" width="90" height="66"/>
<text x="0" y="-60">Ethylene release due to components rupture</text>
<rect x="-45" y="-24" width="90" height="20"/>
<text x="0" y="-14">G1</text>
<path d="M0,4 C-5,6 -32,20 -32,50 L-32,76 Q0,50 32,76 L32,50 C32,20 5,6 0,4"/>
<rect x="-245" y="107" width="90" height="66"/>
<text x="-200" y="140">Spontaneous rupture of deposit</text>
<rect x="-245" y="176" width="90" height="20"/>
<text x="-200" y="186">X31</text>

<rect x="-45" y="107" width="90" height="66"/>
<text x="0" y="140"></text>
<rect x="-45" y="176" width="90" height="20"/>
<text x="0" y="186">G2</text>

<rect x="-145" y="307" width="90" height="66"/>
<text x="-100" y="340"></text>
<rect x="-145" y="376" width="90" height="20"/>
<text x="-100" y="386">G3</text>

<rect x="-45" y="307" width="90" height="66"/>
<text x="0" y="340"></text>
<rect x="-45" y="376" width="90" height="20"/>
<text x="0" y="386">G4</text>

<rect x="55" y="307" width="90" height="66"/>
<text x="100" y="340"></text>
<rect x="55" y="376" width="90" height="20"/>
<text x="100" y="386">G5</text>

<rect x="155" y="107" width="90" height="66"/>
<text x="200" y="140">External &amp; secondary effects</text>
<rect x="155" y="176" width="90" height="20"/>
<text x="200" y="186">X33</text>

</svg>
