<?xml version="1.0" encoding="UTF-8"?>
<svg viewBox="-50 -50 400 500" xmlns="http://www.w3.org/2000/svg">
<style>
circle, path, polygon, rect {
  fill: lightyellow;
}
circle, path, polygon, polyline, rect {
  stroke: black;
  stroke-width: 1.3;
}
polyline {
  fill: none;
}
text {
  dominant-baseline: middle;
  font-family: Arial, sans-serif;
  font-size: 10px;
  text-anchor: middle;
}
</style>
<polyline points="150,7 150,140"/>
<polyline points="136,140 136,190 50,190 50,240"/>
<polyline points="150,140 150,190 150,190 150,240"/>
<polyline points="164,140 164,190 250,190 250,240"/>
<rect x="105" y="7" width="90" height="66"/>
<text x="150" y="40" style="font-size: 10px">

</text>
<rect x="105" y="76" width="90" height="20"/>
<text x="150" y="86">G3</text>
<path d="M150,104 C145,106 118,120 118,150 L118,176 Q150,150 182,176 L182,150 C182,120 155,106 150,104"/>
<rect x="105" y="127" width="90" height="26"/>
<text x="150" y="140">Q ≤ 0.1192</text>
<polyline points="50,207 50,340"/>

<rect x="5" y="207" width="90" height="66"/>
<text x="50" y="240" style="font-size: 10px">
<tspan x="50" dy="0em">Pipe work fire</tspan>
</text>
<rect x="5" y="276" width="90" height="20"/>
<text x="50" y="286">X32</text>
<circle cx="50" cy="340" r="35"/>
<rect x="5" y="327" width="90" height="26"/>
<text x="50" y="340">Q = 0.01809</text>
<polyline points="150,207 150,340"/>

<rect x="105" y="207" width="90" height="66"/>
<text x="150" y="240" style="font-size: 10px">

</text>
<rect x="105" y="276" width="90" height="20"/>
<text x="150" y="286">G6</text>
<polygon points="150,306 115,374 185,374"/>
<rect x="105" y="327" width="90" height="26"/>
<text x="150" y="340">Q ≤ 0.06632</text>
<polyline points="250,207 250,340"/>

<rect x="205" y="207" width="90" height="66"/>
<text x="250" y="240" style="font-size: 10px">

</text>
<rect x="205" y="276" width="90" height="20"/>
<text x="250" y="286">G7</text>
<polygon points="250,306 215,374 285,374"/>
<rect x="205" y="327" width="90" height="26"/>
<text x="250" y="340">Q ≤ 0.03481</text>
</svg>
