<?xml version="1.0" encoding="UTF-8"?>
<svg viewBox="-50 -50 460 520" xmlns="http://www.w3.org/2000/svg">
<style>
circle, path, polygon, rect {
  fill: lightyellow;
}
circle, path, polygon, polyline, rect {
  stroke: black;
  stroke-width: 1.3;
}
polyline {
  fill: none;
}
text {
  dominant-baseline: middle;
  font-family: Cousine, "Courier New", monospace;
  font-size: 10px;
  text-anchor: middle;
}
</style>
<polyline points="180,8 180,147"/>
<polyline points="162,147 162,199 60,199 60,252"/>
<polyline points="180,147 180,199 180,199 180,252"/>
<polyline points="198,147 198,199 300,199 300,252"/>
<rect x="126" y="8" width="108" height="69"/>
<text x="180" y="42" style="font-size: 10px">

</text>
<rect x="126" y="80" width="108" height="21"/>
<text x="180" y="90">G3</text>
<path d="M180,109 C174,111 142,125 142,157 L142,185 Q180,158 218,185 L218,157 C218,125 186,111 180,109"/>
<rect x="126" y="134" width="108" height="27"/>
<text x="180" y="147">Q ≤ 0.1192</text>
<polyline points="60,218 60,357"/>

<rect x="6" y="218" width="108" height="69"/>
<text x="60" y="252" style="font-size: 10px">
<tspan x="60" dy="0em">Pipe work fire</tspan>
</text>
<rect x="6" y="290" width="108" height="21"/>
<text x="60" y="300">X32</text>
<circle cx="60" cy="357" r="42"/>
<rect x="6" y="344" width="108" height="27"/>
<text x="60" y="357">Q = 0.01809</text>
<polyline points="180,218 180,357"/>

<rect x="126" y="218" width="108" height="69"/>
<text x="180" y="252" style="font-size: 10px">

</text>
<rect x="126" y="290" width="108" height="21"/>
<text x="180" y="300">G6</text>
<polygon points="180,321 138,393 222,393"/>
<rect x="126" y="344" width="108" height="27"/>
<text x="180" y="357">Q ≤ 0.06632</text>
<polyline points="300,218 300,357"/>

<rect x="246" y="218" width="108" height="69"/>
<text x="300" y="252" style="font-size: 10px">

</text>
<rect x="246" y="290" width="108" height="21"/>
<text x="300" y="300">G7</text>
<polygon points="300,321 258,393 342,393"/>
<rect x="246" y="344" width="108" height="27"/>
<text x="300" y="357">Q ≤ 0.03481</text>
</svg>
