<?xml version="1.0" encoding="UTF-8"?>
<svg viewBox="-10 -10 380 440" xmlns="http://www.w3.org/2000/svg">
<style>
circle, path, polygon, rect {
  fill: lightyellow;
}
circle, path, polygon, polyline, rect {
  stroke: black;
  stroke-width: 1.3;
}
polyline {
  fill: none;
}
text {
  dominant-baseline: middle;
  font-family: Cousine, "Courier New", monospace;
  font-size: 10px;
  text-anchor: middle;
}
</style>
<polyline points="180,5 180,150"/>
<polyline points="165,150 165,200 60,200 60,250"/>
<polyline points="180,150 180,200 180,200 180,250"/>
<polyline points="195,150 195,200 300,200 300,250"/>
<rect x="126" y="5" width="108" height="70"/>

<rect x="126" y="80" width="108" height="24"/>
<text x="180" y="92">G3</text>
<path d="M180,112 C174,114 147,125 147,160 L147,186 Q180,156 213,186 L213,160 C213,125 186,114 180,112"/>
<rect x="126" y="138" width="108" height="24"/>
<text x="180" y="150">Q ≤ 0.1192</text>
<polyline points="60,215 60,360"/>

<rect x="6" y="215" width="108" height="70"/>
<text x="60" y="250" style="font-size: 10px">Pipe work fire</text>
<rect x="6" y="290" width="108" height="24"/>
<text x="60" y="302">X32</text>
<circle cx="60" cy="360" r="38"/>
<rect x="6" y="348" width="108" height="24"/>
<text x="60" y="360">Q = 0.01809</text>
<polyline points="180,215 180,360"/>

<rect x="126" y="215" width="108" height="70"/>

<rect x="126" y="290" width="108" height="24"/>
<text x="180" y="302">G6</text>
<polygon points="180,324 140,392 220,392"/>
<rect x="126" y="348" width="108" height="24"/>
<text x="180" y="360">Q ≤ 0.06632</text>
<polyline points="300,215 300,360"/>

<rect x="246" y="215" width="108" height="70"/>

<rect x="246" y="290" width="108" height="24"/>
<text x="300" y="302">G7</text>
<polygon points="300,324 260,392 340,392"/>
<rect x="246" y="348" width="108" height="24"/>
<text x="300" y="360">Q ≤ 0.03481</text>
</svg>
