<?xml version="1.0" encoding="UTF-8"?>
<svg viewBox="-100 -200 300 600" xmlns="http://www.w3.org/2000/svg">
<style>
circle, path, polygon, rect {
  fill: lightyellow;
}
circle, path, polygon, polyline, rect {
  stroke: black;
  stroke-width: 1.3;
}
polyline {
  fill: none;
}
text {
  dominant-baseline: middle;
  font-family: Arial, sans-serif;
  font-size: 12px;
  text-anchor: middle;
}
</style>
<polyline points="0,-93 0,40"/>
<polyline points="-10,40 -10,90 -50,90 -50,140"/>
<polyline points="10,40 10,90 50,90 50,140"/>
<rect x="-45" y="-93" width="90" height="66"/>
<text x="0" y="-60"></text>
<rect x="-45" y="-24" width="90" height="20"/>
<text x="0" y="-14">G4</text>
<path d="M0,4 C-5,6 -32,20 -32,50 L-32,76 Q0,50 32,76 L32,50 C32,20 5,6 0,4"/>
<rect x="-45" y="27" width="90" height="26"/>
<text x="0" y="40">Q = 0.6241</text>
<polyline points="-50,107 -50,240"/>

<rect x="-95" y="107" width="90" height="66"/>
<text x="-50" y="140">S1 fails closed</text>
<rect x="-95" y="176" width="90" height="20"/>
<text x="-50" y="186">X24</text>
<circle cx="-50" cy="240" r="35"/>
<rect x="-95" y="227" width="90" height="26"/>
<text x="-50" y="240">Q = 0.40521</text>
<polyline points="50,107 50,240"/>

<rect x="5" y="107" width="90" height="66"/>
<text x="50" y="140">S1 set point too high</text>
<rect x="5" y="176" width="90" height="20"/>
<text x="50" y="186">X26</text>
<circle cx="50" cy="240" r="35"/>
<rect x="5" y="227" width="90" height="26"/>
<text x="50" y="240">Q = 0.21881</text>
</svg>
