<?xml version="1.0" encoding="UTF-8"?>
<svg viewBox="-10 -10 260 440" xmlns="http://www.w3.org/2000/svg">
<style>
circle, path, polygon, rect {
  fill: lightyellow;
}
circle, path, polygon, polyline, rect {
  stroke: black;
  stroke-width: 1.3;
}
polyline {
  fill: none;
}
text {
  dominant-baseline: middle;
  font-family: Cousine, "Courier New", monospace;
  font-size: 10px;
  text-anchor: middle;
}
</style>
<polyline points="120,5 120,150"/>
<polyline points="110,150 110,200 60,200 60,250"/>
<polyline points="130,150 130,200 180,200 180,250"/>
<rect x="66" y="5" width="108" height="70"/>

<rect x="66" y="80" width="108" height="24"/>
<text x="120" y="92">G4</text>
<path d="M120,112 C114,114 87,125 87,160 L87,186 Q120,156 153,186 L153,160 C153,125 126,114 120,112"/>
<rect x="66" y="138" width="108" height="24"/>
<text x="120" y="150">Q ≤ 0.624</text>
<polyline points="60,215 60,360"/>

<rect x="6" y="215" width="108" height="70"/>
<text x="60" y="250" style="font-size: 10px">S1 fails closed</text>
<rect x="6" y="290" width="108" height="24"/>
<text x="60" y="302">X24</text>
<circle cx="60" cy="360" r="38"/>
<rect x="6" y="348" width="108" height="24"/>
<text x="60" y="360">Q = 0.4052</text>
<polyline points="180,215 180,360"/>

<rect x="126" y="215" width="108" height="70"/>
<text x="180" y="245" style="font-size: 10px">S1 set point too</text>
<text x="180" y="255" style="font-size: 10px">high</text>
<rect x="126" y="290" width="108" height="24"/>
<text x="180" y="302">X26</text>
<circle cx="180" cy="360" r="38"/>
<rect x="126" y="348" width="108" height="24"/>
<text x="180" y="360">Q = 0.2188</text>
</svg>
