<?xml version="1.0" encoding="UTF-8"?>
<svg viewBox="-100 -200 300 600" xmlns="http://www.w3.org/2000/svg">
<style>
circle, path, polygon, rect {
  fill: lightyellow;
}
circle, path, polygon, polyline, rect {
  stroke: black;
  stroke-width: 1.3;
}
polyline {
  fill: none;
}
text {
  dominant-baseline: middle;
  font-family: Arial, sans-serif;
  font-size: 12px;
  text-anchor: middle;
}
</style>
<polyline points="100,-93 100,40"/>
<polyline points="90,40 90,90 50,90 50,140"/>
<polyline points="110,40 110,90 150,90 150,140"/>
<rect x="55" y="-93" width="90" height="66"/>
<text x="100" y="-60"></text>
<rect x="55" y="-24" width="90" height="20"/>
<text x="100" y="-14">G4</text>
<path d="M100,4 C95,6 68,20 68,50 L68,76 Q100,50 132,76 L132,50 C132,20 105,6 100,4"/>
<rect x="55" y="27" width="90" height="26"/>
<text x="100" y="40">Q ≤ 0.6241</text>
<polyline points="50,107 50,240"/>

<rect x="5" y="107" width="90" height="66"/>
<text x="50" y="140">S1 fails closed</text>
<rect x="5" y="176" width="90" height="20"/>
<text x="50" y="186">X24</text>
<circle cx="50" cy="240" r="35"/>
<rect x="5" y="227" width="90" height="26"/>
<text x="50" y="240">Q = 0.40521</text>
<polyline points="150,107 150,240"/>

<rect x="105" y="107" width="90" height="66"/>
<text x="150" y="140">S1 set point too high</text>
<rect x="105" y="176" width="90" height="20"/>
<text x="150" y="186">X26</text>
<circle cx="150" cy="240" r="35"/>
<rect x="105" y="227" width="90" height="26"/>
<text x="150" y="240">Q = 0.21881</text>
</svg>
