<?xml version="1.0" encoding="UTF-8"?>
<svg viewBox="-50 -50 300 500" xmlns="http://www.w3.org/2000/svg">
<style>
circle, path, polygon, rect {
  fill: lightyellow;
}
circle, path, polygon, polyline, rect {
  stroke: black;
  stroke-width: 1.3;
}
polyline {
  fill: none;
}
text {
  dominant-baseline: middle;
  font-family: Arial, sans-serif;
  font-size: 12px;
  text-anchor: middle;
}
</style>
<polyline points="100,7 100,140"/>
<polyline points="90,140 90,190 50,190 50,240"/>
<polyline points="110,140 110,190 150,190 150,240"/>
<rect x="55" y="7" width="90" height="66"/>
<text x="100" y="40"></text>
<rect x="55" y="76" width="90" height="20"/>
<text x="100" y="86">G4</text>
<path d="M100,104 C95,106 68,120 68,150 L68,176 Q100,150 132,176 L132,150 C132,120 105,106 100,104"/>
<rect x="55" y="127" width="90" height="26"/>
<text x="100" y="140">Q ≤ 0.6241</text>
<polyline points="50,207 50,340"/>

<rect x="5" y="207" width="90" height="66"/>
<text x="50" y="240">S1 fails closed</text>
<rect x="5" y="276" width="90" height="20"/>
<text x="50" y="286">X24</text>
<circle cx="50" cy="340" r="35"/>
<rect x="5" y="327" width="90" height="26"/>
<text x="50" y="340">Q = 0.40521</text>
<polyline points="150,207 150,340"/>

<rect x="105" y="207" width="90" height="66"/>
<text x="150" y="240">S1 set point too high</text>
<rect x="105" y="276" width="90" height="20"/>
<text x="150" y="286">X26</text>
<circle cx="150" cy="340" r="35"/>
<rect x="105" y="327" width="90" height="26"/>
<text x="150" y="340">Q = 0.21881</text>
</svg>
