<?xml version="1.0" encoding="UTF-8"?>
<svg viewBox="-10 -10 1100 1070" xmlns="http://www.w3.org/2000/svg">
<style>
circle, path, polygon, rect {
  fill: lightyellow;
}
circle, path, polygon, polyline, rect {
  stroke: black;
  stroke-width: 1.3;
}
polyline {
  fill: none;
}
text {
  dominant-baseline: middle;
  font-family: Consolas, Cousine, "Courier New", monospace;
  font-size: 10px;
  text-anchor: middle;
}
</style>
<polyline points="540,5 540,150"/>
<polyline points="525,150 525,197 60,197 60,250"/>
<polyline points="540,150 540,203 480,203 480,250"/>
<polyline points="555,150 555,200 960,200 960,250"/>
<rect x="486" y="5" width="108" height="70"/>

<rect x="486" y="80" width="108" height="24"/>
<text x="540" y="92">G5</text>
<path d="M540,112 C534,114 507,125 507,160 L507,186 Q540,156 573,186 L573,160 C573,125 546,114 540,112"/>
<rect x="486" y="138" width="108" height="24"/>
<text x="540" y="150">Q = 0.75</text>
<polyline points="60,215 60,360"/>

<rect x="6" y="215" width="108" height="70"/>
<text x="60" y="243.5" style="font-size: 10px">No discharge via</text>
<text x="60" y="256.5" style="font-size: 10px">V2</text>
<rect x="6" y="290" width="108" height="24"/>
<text x="60" y="302">X40</text>
<circle cx="60" cy="360" r="38"/>
<rect x="6" y="348" width="108" height="24"/>
<text x="60" y="360">Q = 0.75</text>
<polyline points="480,215 480,360"/>
<polyline points="465,360 465,410 180,410 180,460"/>
<polyline points="480,360 480,410 480,410 480,460"/>
<polyline points="495,360 495,410 780,410 780,460"/>
<rect x="426" y="215" width="108" height="70"/>

<rect x="426" y="290" width="108" height="24"/>
<text x="480" y="302">G8</text>
<path d="M448,394 L512,394 L512,354 C512,312 448,312 448,354 L448,394 "/>
<rect x="426" y="348" width="108" height="24"/>
<text x="480" y="360">Q ≤ 0.8921</text>
<polyline points="180,425 180,570"/>

<rect x="126" y="425" width="108" height="70"/>
<text x="180" y="453.5" style="font-size: 10px">No discharge via</text>
<text x="180" y="466.5" style="font-size: 10px">V2</text>
<rect x="126" y="500" width="108" height="24"/>
<text x="180" y="512">X40</text>
<circle cx="180" cy="570" r="38"/>
<rect x="126" y="558" width="108" height="24"/>
<text x="180" y="570">Q = 0.75</text>
<polyline points="480,425 480,570"/>
<polyline points="470,570 470,620 300,620 300,670"/>
<polyline points="490,570 490,620 540,620 540,670"/>
<rect x="426" y="425" width="108" height="70"/>

<rect x="426" y="500" width="108" height="24"/>
<text x="480" y="512">G13</text>
<path d="M480,532 C474,534 447,545 447,580 L447,606 Q480,576 513,606 L513,580 C513,545 486,534 480,532"/>
<rect x="426" y="558" width="108" height="24"/>
<text x="480" y="570">Q ≤ 1.615</text>
<polyline points="300,635 300,780"/>

<rect x="246" y="635" width="108" height="70"/>
<text x="300" y="670" style="font-size: 10px">V2 fails closed</text>
<rect x="246" y="710" width="108" height="24"/>
<text x="300" y="722">X8</text>
<circle cx="300" cy="780" r="38"/>
<rect x="246" y="768" width="108" height="24"/>
<text x="300" y="780">Q = 0.1515</text>
<polyline points="540,635 540,780"/>
<polyline points="525,780 525,830 420,830 420,880"/>
<polyline points="540,780 540,830 540,830 540,880"/>
<polyline points="555,780 555,830 660,830 660,880"/>
<rect x="486" y="635" width="108" height="70"/>

<rect x="486" y="710" width="108" height="24"/>
<text x="540" y="722">G16</text>
<path d="M540,742 C534,744 507,755 507,790 L507,816 Q540,786 573,816 L573,790 C573,755 546,744 540,742"/>
<rect x="486" y="768" width="108" height="24"/>
<text x="540" y="780">Q ≤ 1.464</text>
<polyline points="420,845 420,990"/>

<rect x="366" y="845" width="108" height="70"/>
<text x="420" y="867" style="font-size: 10px">Pressure</text>
<text x="420" y="880" style="font-size: 10px">measurement P1</text>
<text x="420" y="893" style="font-size: 10px">fails</text>
<rect x="366" y="920" width="108" height="24"/>
<text x="420" y="932">X1</text>
<circle cx="420" cy="990" r="38"/>
<rect x="366" y="978" width="108" height="24"/>
<text x="420" y="990">Q = 0.5876</text>
<polyline points="540,845 540,990"/>

<rect x="486" y="845" width="108" height="70"/>
<text x="540" y="873.5" style="font-size: 10px">Valve positioner</text>
<text x="540" y="886.5" style="font-size: 10px">V2 fails</text>
<rect x="486" y="920" width="108" height="24"/>
<text x="540" y="932">X6</text>
<circle cx="540" cy="990" r="38"/>
<rect x="486" y="978" width="108" height="24"/>
<text x="540" y="990">Q = 0.3119</text>
<polyline points="660,845 660,990"/>

<rect x="606" y="845" width="108" height="70"/>
<text x="660" y="867" style="font-size: 10px">Signal</text>
<text x="660" y="880" style="font-size: 10px">transmission</text>
<text x="660" y="893" style="font-size: 10px">P1-V2 fails</text>
<rect x="606" y="920" width="108" height="24"/>
<text x="660" y="932">X7</text>
<circle cx="660" cy="990" r="38"/>
<rect x="606" y="978" width="108" height="24"/>
<text x="660" y="990">Q = 0.5643</text>
<polyline points="780,425 780,570"/>

<rect x="726" y="425" width="108" height="70"/>
<text x="780" y="453.5" style="font-size: 10px">Instrument air</text>
<text x="780" y="466.5" style="font-size: 10px">supply fails</text>
<rect x="726" y="500" width="108" height="24"/>
<text x="780" y="512">X9</text>
<circle cx="780" cy="570" r="38"/>
<rect x="726" y="558" width="108" height="24"/>
<text x="780" y="570">Q = 0.7364</text>
<polyline points="960,215 960,360"/>
<polyline points="950,360 950,410 900,410 900,460"/>
<polyline points="970,360 970,410 1020,410 1020,460"/>
<rect x="906" y="215" width="108" height="70"/>

<rect x="906" y="290" width="108" height="24"/>
<text x="960" y="302">G9</text>
<path d="M928,394 L992,394 L992,354 C992,312 928,312 928,354 L928,394 "/>
<rect x="906" y="348" width="108" height="24"/>
<text x="960" y="360">Q = 0.5523</text>
<polyline points="900,425 900,570"/>

<rect x="846" y="425" width="108" height="70"/>
<text x="900" y="453.5" style="font-size: 10px">No discharge via</text>
<text x="900" y="466.5" style="font-size: 10px">V2</text>
<rect x="846" y="500" width="108" height="24"/>
<text x="900" y="512">X40</text>
<circle cx="900" cy="570" r="38"/>
<rect x="846" y="558" width="108" height="24"/>
<text x="900" y="570">Q = 0.75</text>
<polyline points="1020,425 1020,570"/>

<rect x="966" y="425" width="108" height="70"/>
<text x="1020" y="453.5" style="font-size: 10px">Instrument air</text>
<text x="1020" y="466.5" style="font-size: 10px">supply fails</text>
<rect x="966" y="500" width="108" height="24"/>
<text x="1020" y="512">X9</text>
<circle cx="1020" cy="570" r="38"/>
<rect x="966" y="558" width="108" height="24"/>
<text x="1020" y="570">Q = 0.7364</text>
</svg>
