<?xml version="1.0" encoding="UTF-8"?>
<svg viewBox="-50 -50 1180 1150" xmlns="http://www.w3.org/2000/svg">
<style>
circle, path, polygon, rect {
  fill: lightyellow;
}
circle, path, polygon, polyline, rect {
  stroke: black;
  stroke-width: 1.3;
}
polyline {
  fill: none;
}
text {
  dominant-baseline: middle;
  font-family: Cousine, "Courier New", monospace;
  font-size: 10px;
  text-anchor: middle;
}
</style>
<polyline points="540,8 540,147"/>
<polyline points="525,147 525,195 60,195 60,252"/>
<polyline points="540,147 540,203 480,203 480,252"/>
<polyline points="555,147 555,199 960,199 960,252"/>
<rect x="486" y="8" width="108" height="69"/>
<text x="540" y="42" style="font-size: 10px">

</text>
<rect x="486" y="80" width="108" height="21"/>
<text x="540" y="90">G5</text>
<path d="M540,109 C534,111 508,125 508,157 L508,185 Q540,158 572,185 L572,157 C572,125 546,111 540,109"/>
<rect x="486" y="134" width="108" height="27"/>
<text x="540" y="147">Q = 0.75</text>
<polyline points="60,218 60,357"/>

<rect x="6" y="218" width="108" height="69"/>
<text x="60" y="252" style="font-size: 10px">
<tspan x="60" dy="-0.5em">No discharge via</tspan>
<tspan x="60" dy="1em">V2</tspan>
</text>
<rect x="6" y="290" width="108" height="21"/>
<text x="60" y="300">X40</text>
<circle cx="60" cy="357" r="38"/>
<rect x="6" y="344" width="108" height="27"/>
<text x="60" y="357">Q = 0.75</text>
<polyline points="480,218 480,357"/>
<polyline points="465,357 465,409 180,409 180,462"/>
<polyline points="480,357 480,409 480,409 480,462"/>
<polyline points="495,357 495,409 780,409 780,462"/>
<rect x="426" y="218" width="108" height="69"/>
<text x="480" y="252" style="font-size: 10px">

</text>
<rect x="426" y="290" width="108" height="21"/>
<text x="480" y="300">G8</text>
<path d="M448,391 L512,391 L512,351 C512,309 448,309 448,351 L448,391 "/>
<rect x="426" y="344" width="108" height="27"/>
<text x="480" y="357">Q ≤ 0.8921</text>
<polyline points="180,428 180,567"/>

<rect x="126" y="428" width="108" height="69"/>
<text x="180" y="462" style="font-size: 10px">
<tspan x="180" dy="-0.5em">No discharge via</tspan>
<tspan x="180" dy="1em">V2</tspan>
</text>
<rect x="126" y="500" width="108" height="21"/>
<text x="180" y="510">X40</text>
<circle cx="180" cy="567" r="38"/>
<rect x="126" y="554" width="108" height="27"/>
<text x="180" y="567">Q = 0.75</text>
<polyline points="480,428 480,567"/>
<polyline points="470,567 470,619 300,619 300,672"/>
<polyline points="490,567 490,619 540,619 540,672"/>
<rect x="426" y="428" width="108" height="69"/>
<text x="480" y="462" style="font-size: 10px">

</text>
<rect x="426" y="500" width="108" height="21"/>
<text x="480" y="510">G13</text>
<path d="M480,529 C474,531 448,545 448,577 L448,605 Q480,578 512,605 L512,577 C512,545 486,531 480,529"/>
<rect x="426" y="554" width="108" height="27"/>
<text x="480" y="567">Q ≤ 1.615</text>
<polyline points="300,638 300,777"/>

<rect x="246" y="638" width="108" height="69"/>
<text x="300" y="672" style="font-size: 10px">
<tspan x="300" dy="0em">V2 fails closed</tspan>
</text>
<rect x="246" y="710" width="108" height="21"/>
<text x="300" y="720">X8</text>
<circle cx="300" cy="777" r="38"/>
<rect x="246" y="764" width="108" height="27"/>
<text x="300" y="777">Q = 0.1515</text>
<polyline points="540,638 540,777"/>
<polyline points="525,777 525,829 420,829 420,882"/>
<polyline points="540,777 540,829 540,829 540,882"/>
<polyline points="555,777 555,829 660,829 660,882"/>
<rect x="486" y="638" width="108" height="69"/>
<text x="540" y="672" style="font-size: 10px">

</text>
<rect x="486" y="710" width="108" height="21"/>
<text x="540" y="720">G16</text>
<path d="M540,739 C534,741 508,755 508,787 L508,815 Q540,788 572,815 L572,787 C572,755 546,741 540,739"/>
<rect x="486" y="764" width="108" height="27"/>
<text x="540" y="777">Q ≤ 1.464</text>
<polyline points="420,848 420,987"/>

<rect x="366" y="848" width="108" height="69"/>
<text x="420" y="882" style="font-size: 10px">
<tspan x="420" dy="-1em">Pressure</tspan>
<tspan x="420" dy="1em">measurement P1</tspan>
<tspan x="420" dy="1em">fails</tspan>
</text>
<rect x="366" y="920" width="108" height="21"/>
<text x="420" y="930">X1</text>
<circle cx="420" cy="987" r="38"/>
<rect x="366" y="974" width="108" height="27"/>
<text x="420" y="987">Q = 0.5876</text>
<polyline points="540,848 540,987"/>

<rect x="486" y="848" width="108" height="69"/>
<text x="540" y="882" style="font-size: 10px">
<tspan x="540" dy="-0.5em">Valve positioner</tspan>
<tspan x="540" dy="1em">V2 fails</tspan>
</text>
<rect x="486" y="920" width="108" height="21"/>
<text x="540" y="930">X6</text>
<circle cx="540" cy="987" r="38"/>
<rect x="486" y="974" width="108" height="27"/>
<text x="540" y="987">Q = 0.3119</text>
<polyline points="660,848 660,987"/>

<rect x="606" y="848" width="108" height="69"/>
<text x="660" y="882" style="font-size: 10px">
<tspan x="660" dy="-1em">Signal</tspan>
<tspan x="660" dy="1em">transmission</tspan>
<tspan x="660" dy="1em">P1-V2 fails</tspan>
</text>
<rect x="606" y="920" width="108" height="21"/>
<text x="660" y="930">X7</text>
<circle cx="660" cy="987" r="38"/>
<rect x="606" y="974" width="108" height="27"/>
<text x="660" y="987">Q = 0.5643</text>
<polyline points="780,428 780,567"/>

<rect x="726" y="428" width="108" height="69"/>
<text x="780" y="462" style="font-size: 10px">
<tspan x="780" dy="-0.5em">Instrument air</tspan>
<tspan x="780" dy="1em">supply fails</tspan>
</text>
<rect x="726" y="500" width="108" height="21"/>
<text x="780" y="510">X9</text>
<circle cx="780" cy="567" r="38"/>
<rect x="726" y="554" width="108" height="27"/>
<text x="780" y="567">Q = 0.7364</text>
<polyline points="960,218 960,357"/>
<polyline points="950,357 950,409 900,409 900,462"/>
<polyline points="970,357 970,409 1020,409 1020,462"/>
<rect x="906" y="218" width="108" height="69"/>
<text x="960" y="252" style="font-size: 10px">

</text>
<rect x="906" y="290" width="108" height="21"/>
<text x="960" y="300">G9</text>
<path d="M928,391 L992,391 L992,351 C992,309 928,309 928,351 L928,391 "/>
<rect x="906" y="344" width="108" height="27"/>
<text x="960" y="357">Q = 0.5523</text>
<polyline points="900,428 900,567"/>

<rect x="846" y="428" width="108" height="69"/>
<text x="900" y="462" style="font-size: 10px">
<tspan x="900" dy="-0.5em">No discharge via</tspan>
<tspan x="900" dy="1em">V2</tspan>
</text>
<rect x="846" y="500" width="108" height="21"/>
<text x="900" y="510">X40</text>
<circle cx="900" cy="567" r="38"/>
<rect x="846" y="554" width="108" height="27"/>
<text x="900" y="567">Q = 0.75</text>
<polyline points="1020,428 1020,567"/>

<rect x="966" y="428" width="108" height="69"/>
<text x="1020" y="462" style="font-size: 10px">
<tspan x="1020" dy="-0.5em">Instrument air</tspan>
<tspan x="1020" dy="1em">supply fails</tspan>
</text>
<rect x="966" y="500" width="108" height="21"/>
<text x="1020" y="510">X9</text>
<circle cx="1020" cy="567" r="38"/>
<rect x="966" y="554" width="108" height="27"/>
<text x="1020" y="567">Q = 0.7364</text>
</svg>
