<?xml version="1.0" encoding="UTF-8"?>
<svg viewBox="-100 -200 1000 2000" xmlns="http://www.w3.org/2000/svg">
<style>
rect {
  fill: lightyellow;
  stroke: black;
}
text {
  dominant-baseline: middle;
  font-family: Arial, sans-serif;
  font-size: 12px;
  text-anchor: middle;
}
</style>
<rect x="-45" y="-24" width="90" height="20"/>
<text x="0" y="-14">G5</text>
<rect x="-445" y="176" width="90" height="20"/>
<text x="-400" y="186">X40</text>
<rect x="-95" y="176" width="90" height="20"/>
<text x="-50" y="186">G8</text>
<rect x="-345" y="376" width="90" height="20"/>
<text x="-300" y="386">X40</text>
<rect x="-95" y="376" width="90" height="20"/>
<text x="-50" y="386">G13</text>
<rect x="-245" y="576" width="90" height="20"/>
<text x="-200" y="586">X8</text>
<rect x="-45" y="576" width="90" height="20"/>
<text x="0" y="586">G16</text>
<rect x="-145" y="776" width="90" height="20"/>
<text x="-100" y="786">X1</text>
<rect x="-45" y="776" width="90" height="20"/>
<text x="0" y="786">X6</text>
<rect x="55" y="776" width="90" height="20"/>
<text x="100" y="786">X7</text>
<rect x="155" y="376" width="90" height="20"/>
<text x="200" y="386">X9</text>
<rect x="305" y="176" width="90" height="20"/>
<text x="350" y="186">G9</text>
<rect x="255" y="376" width="90" height="20"/>
<text x="300" y="386">X40</text>
<rect x="355" y="376" width="90" height="20"/>
<text x="400" y="386">X9</text>
</svg>
