<?xml version="1.0" encoding="UTF-8"?>
<svg viewBox="-100 -200 900 1800" xmlns="http://www.w3.org/2000/svg">
<style>
rect {
  fill: lightyellow;
  stroke: black;
}
text {
  dominant-baseline: middle;
  font-family: Arial, sans-serif;
  font-size: 12px;
  text-anchor: middle;
}
</style>
<rect x="-45" y="-93" width="90" height="66"/>
<rect x="-45" y="-24" width="90" height="20"/>
<text x="0" y="-14">G6</text>
<rect x="-395" y="107" width="90" height="66"/>
<rect x="-395" y="176" width="90" height="20"/>
<text x="-350" y="186">X35</text>
<rect x="5" y="107" width="90" height="66"/>
<rect x="5" y="176" width="90" height="20"/>
<text x="50" y="186">G10</text>
<rect x="-45" y="307" width="90" height="66"/>
<rect x="-45" y="376" width="90" height="20"/>
<text x="0" y="386">G14</text>
<rect x="-295" y="507" width="90" height="66"/>
<rect x="-295" y="576" width="90" height="20"/>
<text x="-250" y="586">X9</text>
<rect x="-45" y="507" width="90" height="66"/>
<rect x="-45" y="576" width="90" height="20"/>
<text x="0" y="586">G17</text>
<rect x="-195" y="707" width="90" height="66"/>
<rect x="-195" y="776" width="90" height="20"/>
<text x="-150" y="786">X46</text>
<rect x="5" y="707" width="90" height="66"/>
<rect x="5" y="776" width="90" height="20"/>
<text x="50" y="786">G19</text>
<rect x="-95" y="907" width="90" height="66"/>
<rect x="-95" y="976" width="90" height="20"/>
<text x="-50" y="986">X1</text>
<rect x="5" y="907" width="90" height="66"/>
<rect x="5" y="976" width="90" height="20"/>
<text x="50" y="986">X2</text>
<rect x="105" y="907" width="90" height="66"/>
<rect x="105" y="976" width="90" height="20"/>
<text x="150" y="986">X3</text>
<rect x="205" y="507" width="90" height="66"/>
<rect x="205" y="576" width="90" height="20"/>
<text x="250" y="586">X4</text>
<rect x="305" y="307" width="90" height="66"/>
<rect x="305" y="376" width="90" height="20"/>
<text x="350" y="386">X5</text>
</svg>
