<?xml version="1.0" encoding="UTF-8"?>
<svg viewBox="-100 -200 900 1800" xmlns="http://www.w3.org/2000/svg">
<style>
circle, path, polygon, rect {
  fill: lightyellow;
}
circle, path, polygon, polyline, rect {
  stroke: black;
  stroke-width: 1.3;
}
polyline {
  fill: none;
}
text {
  dominant-baseline: middle;
  font-family: Arial, sans-serif;
  font-size: 12px;
  text-anchor: middle;
}
</style>
<polyline points="0,-93 0,40"/>
<polyline points="-10,40 -10,90 -350,90 -350,140"/>
<polyline points="10,40 10,90 50,90 50,140"/>
<rect x="-45" y="-93" width="90" height="66"/>
<text x="0" y="-60"></text>
<rect x="-45" y="-24" width="90" height="20"/>
<text x="0" y="-14">G6</text>
<path d="M-30,72 L30,72 L30,34 C30,-6 -30,-6 -30,34 L-30,72 "/>
<rect x="-45" y="27" width="90" height="26"/>
<text x="0" y="40">Q = 0.066321</text>
<polyline points="-350,107 -350,240"/>

<rect x="-395" y="107" width="90" height="66"/>
<text x="-350" y="140">Pressure vaporizer not functioning</text>
<rect x="-395" y="176" width="90" height="20"/>
<text x="-350" y="186">X35</text>
<circle cx="-350" cy="240" r="35"/>
<rect x="-395" y="227" width="90" height="26"/>
<text x="-350" y="240">Q = 0.751</text>
<polyline points="50,107 50,240"/>
<polyline points="40,240 40,290 0,290 0,340"/>
<polyline points="60,240 60,290 350,290 350,340"/>
<rect x="5" y="107" width="90" height="66"/>
<text x="50" y="140"></text>
<rect x="5" y="176" width="90" height="20"/>
<text x="50" y="186">G10</text>
<path d="M50,204 C45,206 18,220 18,250 L18,276 Q50,250 82,276 L82,250 C82,220 55,206 50,204"/>
<rect x="5" y="227" width="90" height="26"/>
<text x="50" y="240">Q = 0.088421</text>
<polyline points="0,307 0,440"/>
<polyline points="-14,440 -14,490 -250,490 -250,540"/>
<polyline points="0,440 0,490 0,490 0,540"/>
<polyline points="14,440 14,490 250,490 250,540"/>
<rect x="-45" y="307" width="90" height="66"/>
<text x="0" y="340"></text>
<rect x="-45" y="376" width="90" height="20"/>
<text x="0" y="386">G14</text>
<path d="M-30,472 L30,472 L30,434 C30,394 -30,394 -30,434 L-30,472 "/>
<rect x="-45" y="427" width="90" height="26"/>
<text x="0" y="440">Q = 0.0011541</text>
<polyline points="-250,507 -250,640"/>

<rect x="-295" y="507" width="90" height="66"/>
<text x="-250" y="540">Instrument air supply fails</text>
<rect x="-295" y="576" width="90" height="20"/>
<text x="-250" y="586">X9</text>
<circle cx="-250" cy="640" r="35"/>
<rect x="-295" y="627" width="90" height="26"/>
<text x="-250" y="640">Q = 0.73641</text>
<polyline points="0,507 0,640"/>
<polyline points="-10,640 -10,690 -150,690 -150,740"/>
<polyline points="10,640 10,690 50,690 50,740"/>
<rect x="-45" y="507" width="90" height="66"/>
<text x="0" y="540"></text>
<rect x="-45" y="576" width="90" height="20"/>
<text x="0" y="586">G17</text>
<path d="M-30,672 L30,672 L30,634 C30,594 -30,594 -30,634 L-30,672 "/>
<rect x="-45" y="627" width="90" height="26"/>
<text x="0" y="640">Q = 0.010341</text>
<polyline points="-150,707 -150,840"/>

<rect x="-195" y="707" width="90" height="66"/>
<text x="-150" y="740">Deposit manometric pressure &lt; 1.96 bar</text>
<rect x="-195" y="776" width="90" height="20"/>
<text x="-150" y="786">X46</text>
<circle cx="-150" cy="840" r="35"/>
<rect x="-195" y="827" width="90" height="26"/>
<text x="-150" y="840">Q = 0.11</text>
<polyline points="50,707 50,840"/>
<polyline points="36,840 36,890 -50,890 -50,940"/>
<polyline points="50,840 50,890 50,890 50,940"/>
<polyline points="64,840 64,890 150,890 150,940"/>
<rect x="5" y="707" width="90" height="66"/>
<text x="50" y="740"></text>
<rect x="5" y="776" width="90" height="20"/>
<text x="50" y="786">G19</text>
<path d="M20,872 L80,872 L80,834 C80,794 20,794 20,834 L20,872 "/>
<rect x="5" y="827" width="90" height="26"/>
<text x="50" y="840">Q = 0.10341</text>
<polyline points="-50,907 -50,1040"/>

<rect x="-95" y="907" width="90" height="66"/>
<text x="-50" y="940">Pressure measurement P1 fails</text>
<rect x="-95" y="976" width="90" height="20"/>
<text x="-50" y="986">X1</text>
<circle cx="-50" cy="1040" r="35"/>
<rect x="-95" y="1027" width="90" height="26"/>
<text x="-50" y="1040">Q = 0.58761</text>
<polyline points="50,907 50,1040"/>

<rect x="5" y="907" width="90" height="66"/>
<text x="50" y="940">Valve positioner V1 fails</text>
<rect x="5" y="976" width="90" height="20"/>
<text x="50" y="986">X2</text>
<circle cx="50" cy="1040" r="35"/>
<rect x="5" y="1027" width="90" height="26"/>
<text x="50" y="1040">Q = 0.31191</text>
<polyline points="150,907 150,1040"/>

<rect x="105" y="907" width="90" height="66"/>
<text x="150" y="940">Signal transmission P1-V1 fails</text>
<rect x="105" y="976" width="90" height="20"/>
<text x="150" y="986">X3</text>
<circle cx="150" cy="1040" r="35"/>
<rect x="105" y="1027" width="90" height="26"/>
<text x="150" y="1040">Q = 0.56431</text>
<polyline points="250,507 250,640"/>

<rect x="205" y="507" width="90" height="66"/>
<text x="250" y="540">V1 fails closed</text>
<rect x="205" y="576" width="90" height="20"/>
<text x="250" y="586">X4</text>
<circle cx="250" cy="640" r="35"/>
<rect x="205" y="627" width="90" height="26"/>
<text x="250" y="640">Q = 0.15151</text>
<polyline points="350,307 350,440"/>

<rect x="305" y="307" width="90" height="66"/>
<text x="350" y="340">V1 fails open</text>
<rect x="305" y="376" width="90" height="20"/>
<text x="350" y="386">X5</text>
<circle cx="350" cy="440" r="35"/>
<rect x="305" y="427" width="90" height="26"/>
<text x="350" y="440">Q = 0.087271</text>
</svg>
