<?xml version="1.0" encoding="UTF-8"?>
<svg viewBox="-50 -50 1060 1360" xmlns="http://www.w3.org/2000/svg">
<style>
circle, path, polygon, rect {
  fill: lightyellow;
}
circle, path, polygon, polyline, rect {
  stroke: black;
  stroke-width: 1.3;
}
polyline {
  fill: none;
}
text {
  dominant-baseline: middle;
  font-family: Cousine, "Courier New", monospace;
  font-size: 10px;
  text-anchor: middle;
}
</style>
<polyline points="480,8 480,147"/>
<polyline points="468,147 468,199 60,199 60,252"/>
<polyline points="492,147 492,199 540,199 540,252"/>
<rect x="426" y="8" width="108" height="69"/>
<text x="480" y="42" style="font-size: 10px">

</text>
<rect x="426" y="80" width="108" height="21"/>
<text x="480" y="90">G6</text>
<path d="M444,181 L516,181 L516,141 C516,99 444,99 444,141 L444,181 "/>
<rect x="426" y="134" width="108" height="27"/>
<text x="480" y="147">Q ≤ 0.06632</text>
<polyline points="60,218 60,357"/>

<rect x="6" y="218" width="108" height="69"/>
<text x="60" y="252" style="font-size: 10px">
<tspan x="60" dy="-1em">Pressure</tspan>
<tspan x="60" dy="1em">vaporizer not</tspan>
<tspan x="60" dy="1em">functioning</tspan>
</text>
<rect x="6" y="290" width="108" height="21"/>
<text x="60" y="300">X35</text>
<circle cx="60" cy="357" r="42"/>
<rect x="6" y="344" width="108" height="27"/>
<text x="60" y="357">Q = 0.75</text>
<polyline points="540,218 540,357"/>
<polyline points="528,357 528,409 480,409 480,462"/>
<polyline points="552,357 552,409 900,409 900,462"/>
<rect x="486" y="218" width="108" height="69"/>
<text x="540" y="252" style="font-size: 10px">

</text>
<rect x="486" y="290" width="108" height="21"/>
<text x="540" y="300">G10</text>
<path d="M540,319 C534,321 502,335 502,367 L502,395 Q540,368 578,395 L578,367 C578,335 546,321 540,319"/>
<rect x="486" y="344" width="108" height="27"/>
<text x="540" y="357">Q ≤ 0.08842</text>
<polyline points="480,428 480,567"/>
<polyline points="462,567 462,619 180,619 180,672"/>
<polyline points="480,567 480,619 480,619 480,672"/>
<polyline points="498,567 498,619 780,619 780,672"/>
<rect x="426" y="428" width="108" height="69"/>
<text x="480" y="462" style="font-size: 10px">

</text>
<rect x="426" y="500" width="108" height="21"/>
<text x="480" y="510">G14</text>
<path d="M444,601 L516,601 L516,561 C516,519 444,519 444,561 L444,601 "/>
<rect x="426" y="554" width="108" height="27"/>
<text x="480" y="567">Q = 0.001154</text>
<polyline points="180,638 180,777"/>

<rect x="126" y="638" width="108" height="69"/>
<text x="180" y="672" style="font-size: 10px">
<tspan x="180" dy="-0.5em">Instrument air</tspan>
<tspan x="180" dy="1em">supply fails</tspan>
</text>
<rect x="126" y="710" width="108" height="21"/>
<text x="180" y="720">X9</text>
<circle cx="180" cy="777" r="42"/>
<rect x="126" y="764" width="108" height="27"/>
<text x="180" y="777">Q = 0.7364</text>
<polyline points="480,638 480,777"/>
<polyline points="468,777 468,829 300,829 300,882"/>
<polyline points="492,777 492,829 540,829 540,882"/>
<rect x="426" y="638" width="108" height="69"/>
<text x="480" y="672" style="font-size: 10px">

</text>
<rect x="426" y="710" width="108" height="21"/>
<text x="480" y="720">G17</text>
<path d="M444,811 L516,811 L516,771 C516,729 444,729 444,771 L444,811 "/>
<rect x="426" y="764" width="108" height="27"/>
<text x="480" y="777">Q = 0.01034</text>
<polyline points="300,848 300,987"/>

<rect x="246" y="848" width="108" height="69"/>
<text x="300" y="882" style="font-size: 10px">
<tspan x="300" dy="-1.5em">Deposit</tspan>
<tspan x="300" dy="1em">manometric</tspan>
<tspan x="300" dy="1em">pressure &lt; 1.96</tspan>
<tspan x="300" dy="1em">bar</tspan>
</text>
<rect x="246" y="920" width="108" height="21"/>
<text x="300" y="930">X46</text>
<circle cx="300" cy="987" r="42"/>
<rect x="246" y="974" width="108" height="27"/>
<text x="300" y="987">Q = 0.1</text>
<polyline points="540,848 540,987"/>
<polyline points="522,987 522,1039 420,1039 420,1092"/>
<polyline points="540,987 540,1039 540,1039 540,1092"/>
<polyline points="558,987 558,1039 660,1039 660,1092"/>
<rect x="486" y="848" width="108" height="69"/>
<text x="540" y="882" style="font-size: 10px">

</text>
<rect x="486" y="920" width="108" height="21"/>
<text x="540" y="930">G19</text>
<path d="M504,1021 L576,1021 L576,981 C576,939 504,939 504,981 L504,1021 "/>
<rect x="486" y="974" width="108" height="27"/>
<text x="540" y="987">Q = 0.1034</text>
<polyline points="420,1058 420,1197"/>

<rect x="366" y="1058" width="108" height="69"/>
<text x="420" y="1092" style="font-size: 10px">
<tspan x="420" dy="-1em">Pressure</tspan>
<tspan x="420" dy="1em">measurement P1</tspan>
<tspan x="420" dy="1em">fails</tspan>
</text>
<rect x="366" y="1130" width="108" height="21"/>
<text x="420" y="1140">X1</text>
<circle cx="420" cy="1197" r="42"/>
<rect x="366" y="1184" width="108" height="27"/>
<text x="420" y="1197">Q = 0.5876</text>
<polyline points="540,1058 540,1197"/>

<rect x="486" y="1058" width="108" height="69"/>
<text x="540" y="1092" style="font-size: 10px">
<tspan x="540" dy="-0.5em">Valve positioner</tspan>
<tspan x="540" dy="1em">V1 fails</tspan>
</text>
<rect x="486" y="1130" width="108" height="21"/>
<text x="540" y="1140">X2</text>
<circle cx="540" cy="1197" r="42"/>
<rect x="486" y="1184" width="108" height="27"/>
<text x="540" y="1197">Q = 0.3119</text>
<polyline points="660,1058 660,1197"/>

<rect x="606" y="1058" width="108" height="69"/>
<text x="660" y="1092" style="font-size: 10px">
<tspan x="660" dy="-1em">Signal</tspan>
<tspan x="660" dy="1em">transmission</tspan>
<tspan x="660" dy="1em">P1-V1 fails</tspan>
</text>
<rect x="606" y="1130" width="108" height="21"/>
<text x="660" y="1140">X3</text>
<circle cx="660" cy="1197" r="42"/>
<rect x="606" y="1184" width="108" height="27"/>
<text x="660" y="1197">Q = 0.5643</text>
<polyline points="780,638 780,777"/>

<rect x="726" y="638" width="108" height="69"/>
<text x="780" y="672" style="font-size: 10px">
<tspan x="780" dy="0em">V1 fails closed</tspan>
</text>
<rect x="726" y="710" width="108" height="21"/>
<text x="780" y="720">X4</text>
<circle cx="780" cy="777" r="42"/>
<rect x="726" y="764" width="108" height="27"/>
<text x="780" y="777">Q = 0.1515</text>
<polyline points="900,428 900,567"/>

<rect x="846" y="428" width="108" height="69"/>
<text x="900" y="462" style="font-size: 10px">
<tspan x="900" dy="0em">V1 fails open</tspan>
</text>
<rect x="846" y="500" width="108" height="21"/>
<text x="900" y="510">X5</text>
<circle cx="900" cy="567" r="42"/>
<rect x="846" y="554" width="108" height="27"/>
<text x="900" y="567">Q = 0.08727</text>
</svg>
