<?xml version="1.0" encoding="UTF-8"?>
<svg viewBox="-100 -200 900 1400" xmlns="http://www.w3.org/2000/svg">
<style>
circle, path, polygon, rect {
  fill: lightyellow;
}
circle, path, polygon, polyline, rect {
  stroke: black;
  stroke-width: 1.3;
}
polyline {
  fill: none;
}
text {
  dominant-baseline: middle;
  font-family: Arial, sans-serif;
  font-size: 12px;
  text-anchor: middle;
}
</style>
<polyline points="400,-93 400,40"/>
<polyline points="390,40 390,90 50,90 50,140"/>
<polyline points="410,40 410,90 450,90 450,140"/>
<rect x="355" y="-93" width="90" height="66"/>
<text x="400" y="-60"></text>
<rect x="355" y="-24" width="90" height="20"/>
<text x="400" y="-14">G6</text>
<path d="M370,72 L430,72 L430,34 C430,-6 370,-6 370,34 L370,72 "/>
<rect x="355" y="27" width="90" height="26"/>
<text x="400" y="40">Q ≤ 0.066321</text>
<polyline points="50,107 50,240"/>

<rect x="5" y="107" width="90" height="66"/>
<text x="50" y="140">Pressure vaporizer not functioning</text>
<rect x="5" y="176" width="90" height="20"/>
<text x="50" y="186">X35</text>
<circle cx="50" cy="240" r="35"/>
<rect x="5" y="227" width="90" height="26"/>
<text x="50" y="240">Q = 0.751</text>
<polyline points="450,107 450,240"/>
<polyline points="440,240 440,290 400,290 400,340"/>
<polyline points="460,240 460,290 750,290 750,340"/>
<rect x="405" y="107" width="90" height="66"/>
<text x="450" y="140"></text>
<rect x="405" y="176" width="90" height="20"/>
<text x="450" y="186">G10</text>
<path d="M450,204 C445,206 418,220 418,250 L418,276 Q450,250 482,276 L482,250 C482,220 455,206 450,204"/>
<rect x="405" y="227" width="90" height="26"/>
<text x="450" y="240">Q ≤ 0.088421</text>
<polyline points="400,307 400,440"/>
<polyline points="386,440 386,490 150,490 150,540"/>
<polyline points="400,440 400,490 400,490 400,540"/>
<polyline points="414,440 414,490 650,490 650,540"/>
<rect x="355" y="307" width="90" height="66"/>
<text x="400" y="340"></text>
<rect x="355" y="376" width="90" height="20"/>
<text x="400" y="386">G14</text>
<path d="M370,472 L430,472 L430,434 C430,394 370,394 370,434 L370,472 "/>
<rect x="355" y="427" width="90" height="26"/>
<text x="400" y="440">Q = 0.0011541</text>
<polyline points="150,507 150,640"/>

<rect x="105" y="507" width="90" height="66"/>
<text x="150" y="540">Instrument air supply fails</text>
<rect x="105" y="576" width="90" height="20"/>
<text x="150" y="586">X9</text>
<circle cx="150" cy="640" r="35"/>
<rect x="105" y="627" width="90" height="26"/>
<text x="150" y="640">Q = 0.73641</text>
<polyline points="400,507 400,640"/>
<polyline points="390,640 390,690 250,690 250,740"/>
<polyline points="410,640 410,690 450,690 450,740"/>
<rect x="355" y="507" width="90" height="66"/>
<text x="400" y="540"></text>
<rect x="355" y="576" width="90" height="20"/>
<text x="400" y="586">G17</text>
<path d="M370,672 L430,672 L430,634 C430,594 370,594 370,634 L370,672 "/>
<rect x="355" y="627" width="90" height="26"/>
<text x="400" y="640">Q = 0.010341</text>
<polyline points="250,707 250,840"/>

<rect x="205" y="707" width="90" height="66"/>
<text x="250" y="740">Deposit manometric pressure &lt; 1.96 bar</text>
<rect x="205" y="776" width="90" height="20"/>
<text x="250" y="786">X46</text>
<circle cx="250" cy="840" r="35"/>
<rect x="205" y="827" width="90" height="26"/>
<text x="250" y="840">Q = 0.11</text>
<polyline points="450,707 450,840"/>
<polyline points="436,840 436,890 350,890 350,940"/>
<polyline points="450,840 450,890 450,890 450,940"/>
<polyline points="464,840 464,890 550,890 550,940"/>
<rect x="405" y="707" width="90" height="66"/>
<text x="450" y="740"></text>
<rect x="405" y="776" width="90" height="20"/>
<text x="450" y="786">G19</text>
<path d="M420,872 L480,872 L480,834 C480,794 420,794 420,834 L420,872 "/>
<rect x="405" y="827" width="90" height="26"/>
<text x="450" y="840">Q = 0.10341</text>
<polyline points="350,907 350,1040"/>

<rect x="305" y="907" width="90" height="66"/>
<text x="350" y="940">Pressure measurement P1 fails</text>
<rect x="305" y="976" width="90" height="20"/>
<text x="350" y="986">X1</text>
<circle cx="350" cy="1040" r="35"/>
<rect x="305" y="1027" width="90" height="26"/>
<text x="350" y="1040">Q = 0.58761</text>
<polyline points="450,907 450,1040"/>

<rect x="405" y="907" width="90" height="66"/>
<text x="450" y="940">Valve positioner V1 fails</text>
<rect x="405" y="976" width="90" height="20"/>
<text x="450" y="986">X2</text>
<circle cx="450" cy="1040" r="35"/>
<rect x="405" y="1027" width="90" height="26"/>
<text x="450" y="1040">Q = 0.31191</text>
<polyline points="550,907 550,1040"/>

<rect x="505" y="907" width="90" height="66"/>
<text x="550" y="940">Signal transmission P1-V1 fails</text>
<rect x="505" y="976" width="90" height="20"/>
<text x="550" y="986">X3</text>
<circle cx="550" cy="1040" r="35"/>
<rect x="505" y="1027" width="90" height="26"/>
<text x="550" y="1040">Q = 0.56431</text>
<polyline points="650,507 650,640"/>

<rect x="605" y="507" width="90" height="66"/>
<text x="650" y="540">V1 fails closed</text>
<rect x="605" y="576" width="90" height="20"/>
<text x="650" y="586">X4</text>
<circle cx="650" cy="640" r="35"/>
<rect x="605" y="627" width="90" height="26"/>
<text x="650" y="640">Q = 0.15151</text>
<polyline points="750,307 750,440"/>

<rect x="705" y="307" width="90" height="66"/>
<text x="750" y="340">V1 fails open</text>
<rect x="705" y="376" width="90" height="20"/>
<text x="750" y="386">X5</text>
<circle cx="750" cy="440" r="35"/>
<rect x="705" y="427" width="90" height="26"/>
<text x="750" y="440">Q = 0.087271</text>
</svg>
