<?xml version="1.0" encoding="UTF-8"?>
<svg viewBox="-10 -10 2180 1490" xmlns="http://www.w3.org/2000/svg">
<style>
circle, path, polygon, rect {
  fill: lightyellow;
}
circle, path, polygon, polyline, rect {
  stroke: black;
  stroke-width: 1.3;
}
polyline {
  fill: none;
}
text {
  dominant-baseline: middle;
  font-family: Consolas, Cousine, "Courier New", monospace;
  font-size: 10px;
  text-anchor: middle;
}
</style>
<polyline points="1080,5 1080,150"/>
<polyline points="1070,150 1070,200 120,200 120,250"/>
<polyline points="1090,150 1090,200 1200,200 1200,250"/>
<rect x="1026" y="5" width="108" height="70"/>

<rect x="1026" y="80" width="108" height="24"/>
<text x="1080" y="92">G7</text>
<path d="M1048,184 L1112,184 L1112,144 C1112,102 1048,102 1048,144 L1048,184 "/>
<rect x="1026" y="138" width="108" height="24"/>
<text x="1080" y="150">Q ≤ 0.03481</text>
<polyline points="120,215 120,360"/>
<polyline points="110,360 110,410 60,410 60,460"/>
<polyline points="130,360 130,410 180,410 180,460"/>
<rect x="66" y="215" width="108" height="70"/>

<rect x="66" y="290" width="108" height="24"/>
<text x="120" y="302">G11</text>
<path d="M88,394 L152,394 L152,354 C152,312 88,312 88,354 L88,394 "/>
<rect x="66" y="348" width="108" height="24"/>
<text x="120" y="360">Q = 0.03921</text>
<polyline points="60,425 60,570"/>

<rect x="6" y="425" width="108" height="70"/>
<text x="60" y="453.5" style="font-size: 10px">Ethylene pump</text>
<text x="60" y="466.5" style="font-size: 10px">fails</text>
<rect x="6" y="500" width="108" height="24"/>
<text x="60" y="512">X30</text>
<circle cx="60" cy="570" r="38"/>
<rect x="6" y="558" width="108" height="24"/>
<text x="60" y="570">Q = 0.03921</text>
<polyline points="180,425 180,570"/>

<rect x="126" y="425" width="108" height="70"/>
<text x="180" y="453.5" style="font-size: 10px">Ethylene pump</text>
<text x="180" y="466.5" style="font-size: 10px">demanded</text>
<rect x="126" y="500" width="108" height="24"/>
<text x="180" y="512">X37</text>
<circle cx="180" cy="570" r="38"/>
<rect x="126" y="558" width="108" height="24"/>
<text x="180" y="570">Q = 1</text>
<polyline points="1200,215 1200,360"/>
<polyline points="1185,360 1185,410 300,410 300,460"/>
<polyline points="1200,360 1200,410 1200,410 1200,460"/>
<polyline points="1215,360 1215,410 2100,410 2100,460"/>
<rect x="1146" y="215" width="108" height="70"/>

<rect x="1146" y="290" width="108" height="24"/>
<text x="1200" y="302">G12</text>
<path d="M1200,322 C1194,324 1167,335 1167,370 L1167,396 Q1200,366 1233,396 L1233,370 C1233,335 1206,324 1200,322"/>
<rect x="1146" y="348" width="108" height="24"/>
<text x="1200" y="360">Q ≤ 0.8879</text>
<polyline points="300,425 300,570"/>

<rect x="246" y="425" width="108" height="70"/>
<text x="300" y="453.5" style="font-size: 10px">Instrument air</text>
<text x="300" y="466.5" style="font-size: 10px">supply fails</text>
<rect x="246" y="500" width="108" height="24"/>
<text x="300" y="512">X9</text>
<circle cx="300" cy="570" r="38"/>
<rect x="246" y="558" width="108" height="24"/>
<text x="300" y="570">Q = 0.7364</text>
<polyline points="1200,425 1200,570"/>
<polyline points="1185,570 1185,620 420,620 420,670"/>
<polyline points="1200,570 1200,620 1200,620 1200,670"/>
<polyline points="1215,570 1215,620 1980,620 1980,670"/>
<rect x="1146" y="425" width="108" height="70"/>

<rect x="1146" y="500" width="108" height="24"/>
<text x="1200" y="512">G15</text>
<path d="M1168,604 L1232,604 L1232,564 C1232,522 1168,522 1168,564 L1168,604 "/>
<rect x="1146" y="558" width="108" height="24"/>
<text x="1200" y="570">Q ≤ 0.002872</text>
<polyline points="420,635 420,780"/>

<rect x="366" y="635" width="108" height="70"/>
<text x="420" y="663.5" style="font-size: 10px">Instrument air</text>
<text x="420" y="676.5" style="font-size: 10px">supply fails</text>
<rect x="366" y="710" width="108" height="24"/>
<text x="420" y="722">X9</text>
<circle cx="420" cy="780" r="38"/>
<rect x="366" y="768" width="108" height="24"/>
<text x="420" y="780">Q = 0.7364</text>
<polyline points="1200,635 1200,780"/>
<polyline points="1185,780 1185,830 720,830 720,880"/>
<polyline points="1200,780 1200,830 1200,830 1200,880"/>
<polyline points="1215,780 1215,830 1680,830 1680,880"/>
<rect x="1146" y="635" width="108" height="70"/>

<rect x="1146" y="710" width="108" height="24"/>
<text x="1200" y="722">G18</text>
<path d="M1200,742 C1194,744 1167,755 1167,790 L1167,816 Q1200,786 1233,816 L1233,790 C1233,755 1206,744 1200,742"/>
<rect x="1146" y="768" width="108" height="24"/>
<text x="1200" y="780">Q ≤ 0.02575</text>
<polyline points="720,845 720,990"/>
<polyline points="710,990 710,1040 540,1040 540,1090"/>
<polyline points="730,990 730,1040 780,1040 780,1090"/>
<rect x="666" y="845" width="108" height="70"/>

<rect x="666" y="920" width="108" height="24"/>
<text x="720" y="932">G20</text>
<path d="M688,1024 L752,1024 L752,984 C752,942 688,942 688,984 L688,1024 "/>
<rect x="666" y="978" width="108" height="24"/>
<text x="720" y="990">Q = 0.001024</text>
<polyline points="540,1055 540,1200"/>

<rect x="486" y="1055" width="108" height="70"/>
<text x="540" y="1083.5" style="font-size: 10px">Exit temperature</text>
<text x="540" y="1096.5" style="font-size: 10px">below −10°C</text>
<rect x="486" y="1130" width="108" height="24"/>
<text x="540" y="1142">X43</text>
<circle cx="540" cy="1200" r="38"/>
<rect x="486" y="1188" width="108" height="24"/>
<text x="540" y="1200">Q = 0.025</text>
<polyline points="780,1055 780,1200"/>
<polyline points="765,1200 765,1250 660,1250 660,1300"/>
<polyline points="780,1200 780,1250 780,1250 780,1300"/>
<polyline points="795,1200 795,1250 900,1250 900,1300"/>
<rect x="726" y="1055" width="108" height="70"/>

<rect x="726" y="1130" width="108" height="24"/>
<text x="780" y="1142">G23</text>
<path d="M748,1234 L812,1234 L812,1194 C812,1152 748,1152 748,1194 L748,1234 "/>
<rect x="726" y="1188" width="108" height="24"/>
<text x="780" y="1200">Q = 0.04096</text>
<polyline points="660,1265 660,1410"/>

<rect x="606" y="1265" width="108" height="70"/>
<text x="660" y="1287" style="font-size: 10px">Temperature</text>
<text x="660" y="1300" style="font-size: 10px">measurement T1</text>
<text x="660" y="1313" style="font-size: 10px">fails</text>
<rect x="606" y="1340" width="108" height="24"/>
<text x="660" y="1352">X10</text>
<circle cx="660" cy="1410" r="38"/>
<rect x="606" y="1398" width="108" height="24"/>
<text x="660" y="1410">Q = 0.2327</text>
<polyline points="780,1265 780,1410"/>

<rect x="726" y="1265" width="108" height="70"/>
<text x="780" y="1293.5" style="font-size: 10px">Valve positioner</text>
<text x="780" y="1306.5" style="font-size: 10px">V3 fails</text>
<rect x="726" y="1340" width="108" height="24"/>
<text x="780" y="1352">X11</text>
<circle cx="780" cy="1410" r="38"/>
<rect x="726" y="1398" width="108" height="24"/>
<text x="780" y="1410">Q = 0.3119</text>
<polyline points="900,1265 900,1410"/>

<rect x="846" y="1265" width="108" height="70"/>
<text x="900" y="1287" style="font-size: 10px">Signal</text>
<text x="900" y="1300" style="font-size: 10px">transmission</text>
<text x="900" y="1313" style="font-size: 10px">T1-V3 fails</text>
<rect x="846" y="1340" width="108" height="24"/>
<text x="900" y="1352">X12</text>
<circle cx="900" cy="1410" r="38"/>
<rect x="846" y="1398" width="108" height="24"/>
<text x="900" y="1410">Q = 0.5643</text>
<polyline points="1200,845 1200,990"/>
<polyline points="1190,990 1190,1040 1020,1040 1020,1090"/>
<polyline points="1210,990 1210,1040 1260,1040 1260,1090"/>
<rect x="1146" y="845" width="108" height="70"/>

<rect x="1146" y="920" width="108" height="24"/>
<text x="1200" y="932">G21</text>
<path d="M1168,1024 L1232,1024 L1232,984 C1232,942 1168,942 1168,984 L1168,1024 "/>
<rect x="1146" y="978" width="108" height="24"/>
<text x="1200" y="990">Q = 0.01034</text>
<polyline points="1020,1055 1020,1200"/>

<rect x="966" y="1055" width="108" height="70"/>
<text x="1020" y="1077" style="font-size: 10px">Exit manometric</text>
<text x="1020" y="1090" style="font-size: 10px">pressure &gt; 16.18</text>
<text x="1020" y="1103" style="font-size: 10px">bar</text>
<rect x="966" y="1130" width="108" height="24"/>
<text x="1020" y="1142">X44</text>
<circle cx="1020" cy="1200" r="38"/>
<rect x="966" y="1188" width="108" height="24"/>
<text x="1020" y="1200">Q = 0.1</text>
<polyline points="1260,1055 1260,1200"/>
<polyline points="1245,1200 1245,1250 1140,1250 1140,1300"/>
<polyline points="1260,1200 1260,1250 1260,1250 1260,1300"/>
<polyline points="1275,1200 1275,1250 1380,1250 1380,1300"/>
<rect x="1206" y="1055" width="108" height="70"/>

<rect x="1206" y="1130" width="108" height="24"/>
<text x="1260" y="1142">G24</text>
<path d="M1228,1234 L1292,1234 L1292,1194 C1292,1152 1228,1152 1228,1194 L1228,1234 "/>
<rect x="1206" y="1188" width="108" height="24"/>
<text x="1260" y="1200">Q = 0.1034</text>
<polyline points="1140,1265 1140,1410"/>

<rect x="1086" y="1265" width="108" height="70"/>
<text x="1140" y="1287" style="font-size: 10px">Pressure</text>
<text x="1140" y="1300" style="font-size: 10px">measurement P2</text>
<text x="1140" y="1313" style="font-size: 10px">fails</text>
<rect x="1086" y="1340" width="108" height="24"/>
<text x="1140" y="1352">X13</text>
<circle cx="1140" cy="1410" r="38"/>
<rect x="1086" y="1398" width="108" height="24"/>
<text x="1140" y="1410">Q = 0.5877</text>
<polyline points="1260,1265 1260,1410"/>

<rect x="1206" y="1265" width="108" height="70"/>
<text x="1260" y="1293.5" style="font-size: 10px">Valve positioner</text>
<text x="1260" y="1306.5" style="font-size: 10px">V3 fails</text>
<rect x="1206" y="1340" width="108" height="24"/>
<text x="1260" y="1352">X11</text>
<circle cx="1260" cy="1410" r="38"/>
<rect x="1206" y="1398" width="108" height="24"/>
<text x="1260" y="1410">Q = 0.3119</text>
<polyline points="1380,1265 1380,1410"/>

<rect x="1326" y="1265" width="108" height="70"/>
<text x="1380" y="1287" style="font-size: 10px">Signal</text>
<text x="1380" y="1300" style="font-size: 10px">transmission</text>
<text x="1380" y="1313" style="font-size: 10px">P2-V3 fails</text>
<rect x="1326" y="1340" width="108" height="24"/>
<text x="1380" y="1352">X14</text>
<circle cx="1380" cy="1410" r="38"/>
<rect x="1326" y="1398" width="108" height="24"/>
<text x="1380" y="1410">Q = 0.5643</text>
<polyline points="1680,845 1680,990"/>
<polyline points="1670,990 1670,1040 1500,1040 1500,1090"/>
<polyline points="1690,990 1690,1040 1740,1040 1740,1090"/>
<rect x="1626" y="845" width="108" height="70"/>

<rect x="1626" y="920" width="108" height="24"/>
<text x="1680" y="932">G22</text>
<path d="M1648,1024 L1712,1024 L1712,984 C1712,942 1648,942 1648,984 L1648,1024 "/>
<rect x="1626" y="978" width="108" height="24"/>
<text x="1680" y="990">Q = 0.01438</text>
<polyline points="1500,1055 1500,1200"/>

<rect x="1446" y="1055" width="108" height="70"/>
<text x="1500" y="1083.5" style="font-size: 10px">Exit flow &gt;</text>
<text x="1500" y="1096.5" style="font-size: 10px">demand</text>
<rect x="1446" y="1130" width="108" height="24"/>
<text x="1500" y="1142">X45</text>
<circle cx="1500" cy="1200" r="38"/>
<rect x="1446" y="1188" width="108" height="24"/>
<text x="1500" y="1200">Q = 0.1</text>
<polyline points="1740,1055 1740,1200"/>
<polyline points="1725,1200 1725,1250 1620,1250 1620,1300"/>
<polyline points="1740,1200 1740,1250 1740,1250 1740,1300"/>
<polyline points="1755,1200 1755,1250 1860,1250 1860,1300"/>
<rect x="1686" y="1055" width="108" height="70"/>

<rect x="1686" y="1130" width="108" height="24"/>
<text x="1740" y="1142">G25</text>
<path d="M1708,1234 L1772,1234 L1772,1194 C1772,1152 1708,1152 1708,1194 L1708,1234 "/>
<rect x="1686" y="1188" width="108" height="24"/>
<text x="1740" y="1200">Q = 0.1438</text>
<polyline points="1620,1265 1620,1410"/>

<rect x="1566" y="1265" width="108" height="70"/>
<text x="1620" y="1293.5" style="font-size: 10px">Flow measurement</text>
<text x="1620" y="1306.5" style="font-size: 10px">F1 fails</text>
<rect x="1566" y="1340" width="108" height="24"/>
<text x="1620" y="1352">X15</text>
<circle cx="1620" cy="1410" r="38"/>
<rect x="1566" y="1398" width="108" height="24"/>
<text x="1620" y="1410">Q = 0.817</text>
<polyline points="1740,1265 1740,1410"/>

<rect x="1686" y="1265" width="108" height="70"/>
<text x="1740" y="1293.5" style="font-size: 10px">Valve positioner</text>
<text x="1740" y="1306.5" style="font-size: 10px">V3 fails</text>
<rect x="1686" y="1340" width="108" height="24"/>
<text x="1740" y="1352">X11</text>
<circle cx="1740" cy="1410" r="38"/>
<rect x="1686" y="1398" width="108" height="24"/>
<text x="1740" y="1410">Q = 0.3119</text>
<polyline points="1860,1265 1860,1410"/>

<rect x="1806" y="1265" width="108" height="70"/>
<text x="1860" y="1287" style="font-size: 10px">Signal</text>
<text x="1860" y="1300" style="font-size: 10px">transmission</text>
<text x="1860" y="1313" style="font-size: 10px">F1-V3 fails</text>
<rect x="1806" y="1340" width="108" height="24"/>
<text x="1860" y="1352">X16</text>
<circle cx="1860" cy="1410" r="38"/>
<rect x="1806" y="1398" width="108" height="24"/>
<text x="1860" y="1410">Q = 0.5643</text>
<polyline points="1980,635 1980,780"/>

<rect x="1926" y="635" width="108" height="70"/>
<text x="1980" y="670" style="font-size: 10px">V3 fails closed</text>
<rect x="1926" y="710" width="108" height="24"/>
<text x="1980" y="722">X17</text>
<circle cx="1980" cy="780" r="38"/>
<rect x="1926" y="768" width="108" height="24"/>
<text x="1980" y="780">Q = 0.1515</text>
<polyline points="2100,425 2100,570"/>

<rect x="2046" y="425" width="108" height="70"/>
<text x="2100" y="460" style="font-size: 10px">V3 fails closed</text>
<rect x="2046" y="500" width="108" height="24"/>
<text x="2100" y="512">X17</text>
<circle cx="2100" cy="570" r="38"/>
<rect x="2046" y="558" width="108" height="24"/>
<text x="2100" y="570">Q = 0.1515</text>
</svg>
