<?xml version="1.0" encoding="UTF-8"?>
<svg viewBox="-10 -10 1940 1700" xmlns="http://www.w3.org/2000/svg">
<style>
circle, path, polygon, rect {
  fill: lightyellow;
}
circle, path, polygon, polyline, rect {
  stroke: black;
  stroke-width: 1.3;
}
polyline {
  fill: none;
}
text {
  dominant-baseline: middle;
  font-family: Consolas, Cousine, "Courier New", monospace;
  font-size: 10px;
  text-anchor: middle;
}
</style>
<polyline points="960,5 960,150"/>
<polyline points="945,150 945,200 60,200 60,250"/>
<polyline points="960,150 960,200 960,200 960,250"/>
<polyline points="975,150 975,200 1860,200 1860,250"/>
<rect x="906" y="5" width="108" height="70"/>
<text x="960" y="33.5" style="font-size: 10px">Pressure Tank</text>
<text x="960" y="46.5" style="font-size: 10px">Rupture</text>
<rect x="906" y="80" width="108" height="24"/>
<text x="960" y="92">TOP_EVENT</text>
<path d="M960,112 C954,114 927,125 927,160 L927,186 Q960,156 993,186 L993,160 C993,125 966,114 960,112"/>
<rect x="906" y="138" width="108" height="24"/>
<text x="960" y="150">Q ≤ 0.00004001</text>
<polyline points="60,215 60,360"/>

<rect x="6" y="215" width="108" height="70"/>
<text x="60" y="237" style="font-size: 10px">Pressure Tank</text>
<text x="60" y="250" style="font-size: 10px">Ruptures Under</text>
<text x="60" y="263" style="font-size: 10px">Load</text>
<rect x="6" y="290" width="108" height="24"/>
<text x="60" y="302">1</text>
<circle cx="60" cy="360" r="38"/>
<rect x="6" y="348" width="108" height="24"/>
<text x="60" y="360">Q = 1E-8</text>
<polyline points="960,215 960,360"/>
<polyline points="950,360 950,410 900,410 900,460"/>
<polyline points="970,360 970,410 1740,410 1740,460"/>
<rect x="906" y="215" width="108" height="70"/>
<text x="960" y="230.5" style="font-size: 10px">Secondary</text>
<text x="960" y="243.5" style="font-size: 10px">Failure of</text>
<text x="960" y="256.5" style="font-size: 10px">Pressure Tank -</text>
<text x="960" y="269.5" style="font-size: 10px">Ruptured</text>
<rect x="906" y="290" width="108" height="24"/>
<text x="960" y="302">G1</text>
<path d="M960,322 C954,324 927,335 927,370 L927,396 Q960,366 993,396 L993,370 C993,335 966,324 960,322"/>
<rect x="906" y="348" width="108" height="24"/>
<text x="960" y="360">Q ≤ 0.00003</text>
<polyline points="900,425 900,570"/>
<polyline points="885,570 885,617 180,617 180,670"/>
<polyline points="900,570 900,623 300,623 300,670"/>
<polyline points="915,570 915,620 1020,620 1020,670"/>
<rect x="846" y="425" width="108" height="70"/>
<text x="900" y="440.5" style="font-size: 10px">K2 Relay</text>
<text x="900" y="453.5" style="font-size: 10px">Contacts Remain</text>
<text x="900" y="466.5" style="font-size: 10px">Closed for T &gt;</text>
<text x="900" y="479.5" style="font-size: 10px">60 sec.</text>
<rect x="846" y="500" width="108" height="24"/>
<text x="900" y="512">G2</text>
<path d="M900,532 C894,534 867,545 867,580 L867,606 Q900,576 933,606 L933,580 C933,545 906,534 900,532"/>
<rect x="846" y="558" width="108" height="24"/>
<text x="900" y="570">Q ≤ 0.00002</text>
<polyline points="180,635 180,780"/>

<rect x="126" y="635" width="108" height="70"/>
<text x="180" y="657" style="font-size: 10px">K2 Relay</text>
<text x="180" y="670" style="font-size: 10px">Contacts Fail to</text>
<text x="180" y="683" style="font-size: 10px">Open</text>
<rect x="126" y="710" width="108" height="24"/>
<text x="180" y="722">4</text>
<circle cx="180" cy="780" r="38"/>
<rect x="126" y="768" width="108" height="24"/>
<text x="180" y="780">Q = 0.00001</text>
<polyline points="300,635 300,780"/>

<rect x="246" y="635" width="108" height="70"/>
<text x="300" y="657" style="font-size: 10px">K2 Relay</text>
<text x="300" y="670" style="font-size: 10px">Secondary</text>
<text x="300" y="683" style="font-size: 10px">Failure</text>
<rect x="246" y="710" width="108" height="24"/>
<text x="300" y="722">5</text>
<circle cx="300" cy="780" r="38"/>
<rect x="246" y="768" width="108" height="24"/>
<text x="300" y="780">Q = 0.00001</text>
<polyline points="1020,635 1020,780"/>
<polyline points="1010,780 1010,830 840,830 840,880"/>
<polyline points="1030,780 1030,830 1500,830 1500,880"/>
<rect x="966" y="635" width="108" height="70"/>
<text x="1020" y="657" style="font-size: 10px">EMF to K2 Relay</text>
<text x="1020" y="670" style="font-size: 10px">Cell for T &gt; 60</text>
<text x="1020" y="683" style="font-size: 10px">sec.</text>
<rect x="966" y="710" width="108" height="24"/>
<text x="1020" y="722">G3</text>
<path d="M988,814 L1052,814 L1052,774 C1052,732 988,732 988,774 L988,814 "/>
<rect x="966" y="768" width="108" height="24"/>
<text x="1020" y="780">Q ≤ 2.4E-9</text>
<polyline points="840,845 840,990"/>
<polyline points="830,990 830,1040 540,1040 540,1090"/>
<polyline points="850,990 850,1040 1020,1040 1020,1090"/>
<rect x="786" y="845" width="108" height="70"/>
<text x="840" y="855.5" style="font-size: 9.4px">EMF Remains on</text>
<text x="840" y="867.8" style="font-size: 9.4px">Pressure Switch</text>
<text x="840" y="880" style="font-size: 9.4px">Contacts When P/S</text>
<text x="840" y="892.2" style="font-size: 9.4px">Cont. Closed T &gt;</text>
<text x="840" y="904.5" style="font-size: 9.4px">60 sec.</text>
<rect x="786" y="920" width="108" height="24"/>
<text x="840" y="932">G4</text>
<path d="M840,952 C834,954 807,965 807,1000 L807,1026 Q840,996 873,1026 L873,1000 C873,965 846,954 840,952"/>
<rect x="786" y="978" width="108" height="24"/>
<text x="840" y="990">Q ≤ 0.00008</text>
<polyline points="540,1055 540,1200"/>
<polyline points="525,1200 525,1250 420,1250 420,1300"/>
<polyline points="540,1200 540,1250 540,1250 540,1300"/>
<polyline points="555,1200 555,1250 660,1250 660,1300"/>
<rect x="486" y="1055" width="108" height="70"/>
<text x="540" y="1064" style="font-size: 10px">EMF Thru S1</text>
<text x="540" y="1077" style="font-size: 10px">Switch Contacts</text>
<text x="540" y="1090" style="font-size: 10px">When P/S Cont.</text>
<text x="540" y="1103" style="font-size: 10px">Closed T &gt; 60</text>
<text x="540" y="1116" style="font-size: 10px">sec.</text>
<rect x="486" y="1130" width="108" height="24"/>
<text x="540" y="1142">G6</text>
<path d="M540,1162 C534,1164 507,1175 507,1210 L507,1236 Q540,1206 573,1236 L573,1210 C573,1175 546,1164 540,1162"/>
<rect x="486" y="1188" width="108" height="24"/>
<text x="540" y="1200">Q ≤ 0.00003</text>
<polyline points="420,1265 420,1410"/>

<rect x="366" y="1265" width="108" height="70"/>
<text x="420" y="1287" style="font-size: 10px">S1 Switch</text>
<text x="420" y="1300" style="font-size: 10px">Secondary</text>
<text x="420" y="1313" style="font-size: 10px">Failure</text>
<rect x="366" y="1340" width="108" height="24"/>
<text x="420" y="1352">9</text>
<circle cx="420" cy="1410" r="38"/>
<rect x="366" y="1398" width="108" height="24"/>
<text x="420" y="1410">Q = 0.00001</text>
<polyline points="540,1265 540,1410"/>

<rect x="486" y="1265" width="108" height="70"/>
<text x="540" y="1287" style="font-size: 10px">S1 Switch</text>
<text x="540" y="1300" style="font-size: 10px">Contacts Fail to</text>
<text x="540" y="1313" style="font-size: 10px">Open</text>
<rect x="486" y="1340" width="108" height="24"/>
<text x="540" y="1352">10</text>
<circle cx="540" cy="1410" r="38"/>
<rect x="486" y="1398" width="108" height="24"/>
<text x="540" y="1410">Q = 0.00001</text>
<polyline points="660,1265 660,1410"/>

<rect x="606" y="1265" width="108" height="70"/>
<text x="660" y="1280.5" style="font-size: 10px">External Reset</text>
<text x="660" y="1293.5" style="font-size: 10px">Actuation Force</text>
<text x="660" y="1306.5" style="font-size: 10px">Remains on</text>
<text x="660" y="1319.5" style="font-size: 10px">Switch S1</text>
<rect x="606" y="1340" width="108" height="24"/>
<text x="660" y="1352">11</text>
<circle cx="660" cy="1410" r="38"/>
<rect x="606" y="1398" width="108" height="24"/>
<text x="660" y="1410">Q = 0.00001</text>
<polyline points="1020,1055 1020,1200"/>
<polyline points="1005,1200 1005,1250 780,1250 780,1300"/>
<polyline points="1020,1200 1020,1250 1020,1250 1020,1300"/>
<polyline points="1035,1200 1035,1250 1260,1250 1260,1300"/>
<rect x="966" y="1055" width="108" height="70"/>
<text x="1020" y="1064" style="font-size: 10px">EMF Thru K1</text>
<text x="1020" y="1077" style="font-size: 10px">Relay Contacts</text>
<text x="1020" y="1090" style="font-size: 10px">When P/S Cont.</text>
<text x="1020" y="1103" style="font-size: 10px">Closed T &gt; 60</text>
<text x="1020" y="1116" style="font-size: 10px">sec.</text>
<rect x="966" y="1130" width="108" height="24"/>
<text x="1020" y="1142">G7</text>
<path d="M1020,1162 C1014,1164 987,1175 987,1210 L987,1236 Q1020,1206 1053,1236 L1053,1210 C1053,1175 1026,1164 1020,1162"/>
<rect x="966" y="1188" width="108" height="24"/>
<text x="1020" y="1200">Q ≤ 0.00005</text>
<polyline points="780,1265 780,1410"/>

<rect x="726" y="1265" width="108" height="70"/>
<text x="780" y="1287" style="font-size: 10px">K1 Relay</text>
<text x="780" y="1300" style="font-size: 10px">Contacts Fail to</text>
<text x="780" y="1313" style="font-size: 10px">Open</text>
<rect x="726" y="1340" width="108" height="24"/>
<text x="780" y="1352">12</text>
<circle cx="780" cy="1410" r="38"/>
<rect x="726" y="1398" width="108" height="24"/>
<text x="780" y="1410">Q = 0.00001</text>
<polyline points="1020,1265 1020,1410"/>
<polyline points="1005,1410 1005,1460 900,1460 900,1510"/>
<polyline points="1020,1410 1020,1460 1020,1460 1020,1510"/>
<polyline points="1035,1410 1035,1460 1140,1460 1140,1510"/>
<rect x="966" y="1265" width="108" height="70"/>
<text x="1020" y="1274" style="font-size: 10px">Timer Relay</text>
<text x="1020" y="1287" style="font-size: 10px">Contacts Fail to</text>
<text x="1020" y="1300" style="font-size: 10px">Open When P/S</text>
<text x="1020" y="1313" style="font-size: 10px">Cont. Closed T &gt;</text>
<text x="1020" y="1326" style="font-size: 10px">60 sec.</text>
<rect x="966" y="1340" width="108" height="24"/>
<text x="1020" y="1352">G8</text>
<path d="M1020,1372 C1014,1374 987,1385 987,1420 L987,1446 Q1020,1416 1053,1446 L1053,1420 C1053,1385 1026,1374 1020,1372"/>
<rect x="966" y="1398" width="108" height="24"/>
<text x="1020" y="1410">Q ≤ 0.00003</text>
<polyline points="900,1475 900,1620"/>

<rect x="846" y="1475" width="108" height="70"/>
<text x="900" y="1484" style="font-size: 10px">Timer Does not</text>
<text x="900" y="1497" style="font-size: 10px">"Time Out" Due</text>
<text x="900" y="1510" style="font-size: 10px">to Improper</text>
<text x="900" y="1523" style="font-size: 10px">Setting</text>
<text x="900" y="1536" style="font-size: 10px">Installation</text>
<rect x="846" y="1550" width="108" height="24"/>
<text x="900" y="1562">14</text>
<circle cx="900" cy="1620" r="38"/>
<rect x="846" y="1608" width="108" height="24"/>
<text x="900" y="1620">Q = 0.00001</text>
<polyline points="1020,1475 1020,1620"/>

<rect x="966" y="1475" width="108" height="70"/>
<text x="1020" y="1497" style="font-size: 10px">Timer Relay</text>
<text x="1020" y="1510" style="font-size: 10px">Contacts Fail to</text>
<text x="1020" y="1523" style="font-size: 10px">Open</text>
<rect x="966" y="1550" width="108" height="24"/>
<text x="1020" y="1562">15</text>
<circle cx="1020" cy="1620" r="38"/>
<rect x="966" y="1608" width="108" height="24"/>
<text x="1020" y="1620">Q = 0.00001</text>
<polyline points="1140,1475 1140,1620"/>

<rect x="1086" y="1475" width="108" height="70"/>
<text x="1140" y="1497" style="font-size: 10px">Timer Relay</text>
<text x="1140" y="1510" style="font-size: 10px">Secondary</text>
<text x="1140" y="1523" style="font-size: 10px">Failure</text>
<rect x="1086" y="1550" width="108" height="24"/>
<text x="1140" y="1562">16</text>
<circle cx="1140" cy="1620" r="38"/>
<rect x="1086" y="1608" width="108" height="24"/>
<text x="1140" y="1620">Q = 0.00001</text>
<polyline points="1260,1265 1260,1410"/>

<rect x="1206" y="1265" width="108" height="70"/>
<text x="1260" y="1287" style="font-size: 10px">K1 Relay</text>
<text x="1260" y="1300" style="font-size: 10px">Secondary</text>
<text x="1260" y="1313" style="font-size: 10px">Failure</text>
<rect x="1206" y="1340" width="108" height="24"/>
<text x="1260" y="1352">13</text>
<circle cx="1260" cy="1410" r="38"/>
<rect x="1206" y="1398" width="108" height="24"/>
<text x="1260" y="1410">Q = 0.00001</text>
<polyline points="1500,845 1500,990"/>
<polyline points="1485,990 1485,1040 1380,1040 1380,1090"/>
<polyline points="1500,990 1500,1040 1500,1040 1500,1090"/>
<polyline points="1515,990 1515,1040 1620,1040 1620,1090"/>
<rect x="1446" y="845" width="108" height="70"/>
<text x="1500" y="867" style="font-size: 10px">Pressure Switch</text>
<text x="1500" y="880" style="font-size: 10px">Contacts Closed</text>
<text x="1500" y="893" style="font-size: 10px">for T &gt; 60 sec.</text>
<rect x="1446" y="920" width="108" height="24"/>
<text x="1500" y="932">G5</text>
<path d="M1500,952 C1494,954 1467,965 1467,1000 L1467,1026 Q1500,996 1533,1026 L1533,1000 C1533,965 1506,954 1500,952"/>
<rect x="1446" y="978" width="108" height="24"/>
<text x="1500" y="990">Q ≤ 0.00003</text>
<polyline points="1380,1055 1380,1200"/>

<rect x="1326" y="1055" width="108" height="70"/>
<text x="1380" y="1077" style="font-size: 10px">Pressure Switch</text>
<text x="1380" y="1090" style="font-size: 10px">Secondary</text>
<text x="1380" y="1103" style="font-size: 10px">Failure</text>
<rect x="1326" y="1130" width="108" height="24"/>
<text x="1380" y="1142">6</text>
<circle cx="1380" cy="1200" r="38"/>
<rect x="1326" y="1188" width="108" height="24"/>
<text x="1380" y="1200">Q = 0.00001</text>
<polyline points="1500,1055 1500,1200"/>

<rect x="1446" y="1055" width="108" height="70"/>
<text x="1500" y="1077" style="font-size: 10px">Pressure Switch</text>
<text x="1500" y="1090" style="font-size: 10px">Contacts Fail to</text>
<text x="1500" y="1103" style="font-size: 10px">Open</text>
<rect x="1446" y="1130" width="108" height="24"/>
<text x="1500" y="1142">7</text>
<circle cx="1500" cy="1200" r="38"/>
<rect x="1446" y="1188" width="108" height="24"/>
<text x="1500" y="1200">Q = 0.00001</text>
<polyline points="1620,1055 1620,1200"/>

<rect x="1566" y="1055" width="108" height="70"/>
<text x="1620" y="1070.5" style="font-size: 10px">Excess Pressure</text>
<text x="1620" y="1083.5" style="font-size: 10px">not Sensed by</text>
<text x="1620" y="1096.5" style="font-size: 10px">Pressure</text>
<text x="1620" y="1109.5" style="font-size: 10px">Actuated Switch</text>
<rect x="1566" y="1130" width="108" height="24"/>
<text x="1620" y="1142">8</text>
<circle cx="1620" cy="1200" r="38"/>
<rect x="1566" y="1188" width="108" height="24"/>
<text x="1620" y="1200">Q = 0.00001</text>
<polyline points="1740,425 1740,570"/>

<rect x="1686" y="425" width="108" height="70"/>
<text x="1740" y="440.5" style="font-size: 10px">Sec. Failure of</text>
<text x="1740" y="453.5" style="font-size: 10px">Tank from Other</text>
<text x="1740" y="466.5" style="font-size: 10px">Out-of-Tolerance</text>
<text x="1740" y="479.5" style="font-size: 10px">Conditions</text>
<rect x="1686" y="500" width="108" height="24"/>
<text x="1740" y="512">3</text>
<circle cx="1740" cy="570" r="38"/>
<rect x="1686" y="558" width="108" height="24"/>
<text x="1740" y="570">Q = 0.00001</text>
<polyline points="1860,215 1860,360"/>

<rect x="1806" y="215" width="108" height="70"/>
<text x="1860" y="230.5" style="font-size: 10px">Tank Ruptures</text>
<text x="1860" y="243.5" style="font-size: 10px">Due to Improper</text>
<text x="1860" y="256.5" style="font-size: 10px">Selection</text>
<text x="1860" y="269.5" style="font-size: 10px">Installation</text>
<rect x="1806" y="290" width="108" height="24"/>
<text x="1860" y="302">2</text>
<circle cx="1860" cy="360" r="38"/>
<rect x="1806" y="348" width="108" height="24"/>
<text x="1860" y="360">Q = 0.00001</text>
</svg>
