<?xml version="1.0" encoding="UTF-8"?>
<svg viewBox="-100 -200 2200 4400" xmlns="http://www.w3.org/2000/svg">
<style>
circle, path, polygon, rect {
  fill: lightyellow;
  stroke: black;
  stroke-width: 1.3;
}
text {
  dominant-baseline: middle;
  font-family: Arial, sans-serif;
  font-size: 12px;
  text-anchor: middle;
}
</style>
<rect x="-45" y="-93" width="90" height="66"/>
<text x="0" y="-60"></text>
<rect x="-45" y="-24" width="90" height="20"/>
<text x="0" y="-14">AND_1</text>
<path d="M-30,72 L30,72 L30,34 C30,-6 -30,-6 -30,34 L-30,72 "/>
<rect x="-1045" y="107" width="90" height="66"/>
<text x="-1000" y="140"></text>
<rect x="-1045" y="176" width="90" height="20"/>
<text x="-1000" y="186">A_1</text>
<circle cx="-1000" cy="240" r="35"/>
<rect x="5" y="107" width="90" height="66"/>
<text x="50" y="140"></text>
<rect x="5" y="176" width="90" height="20"/>
<text x="50" y="186">OR_1</text>
<path d="M50,204 C45,206 18,220 18,250 L18,276 Q50,250 82,276 L82,250 C82,220 55,206 50,204"/>
<rect x="-945" y="307" width="90" height="66"/>
<text x="-900" y="340"></text>
<rect x="-945" y="376" width="90" height="20"/>
<text x="-900" y="386">O_1</text>
<circle cx="-900" cy="440" r="35"/>
<rect x="55" y="307" width="90" height="66"/>
<text x="100" y="340"></text>
<rect x="55" y="376" width="90" height="20"/>
<text x="100" y="386">AND_2</text>
<path d="M70,472 L130,472 L130,434 C130,394 70,394 70,434 L70,472 "/>
<rect x="-845" y="507" width="90" height="66"/>
<text x="-800" y="540"></text>
<rect x="-845" y="576" width="90" height="20"/>
<text x="-800" y="586">A_2</text>
<circle cx="-800" cy="640" r="35"/>
<rect x="105" y="507" width="90" height="66"/>
<text x="150" y="540"></text>
<rect x="105" y="576" width="90" height="20"/>
<text x="150" y="586">OR_2</text>
<path d="M150,604 C145,606 118,620 118,650 L118,676 Q150,650 182,676 L182,650 C182,620 155,606 150,604"/>
<rect x="-745" y="707" width="90" height="66"/>
<text x="-700" y="740"></text>
<rect x="-745" y="776" width="90" height="20"/>
<text x="-700" y="786">O_2</text>
<circle cx="-700" cy="840" r="35"/>
<rect x="155" y="707" width="90" height="66"/>
<text x="200" y="740"></text>
<rect x="155" y="776" width="90" height="20"/>
<text x="200" y="786">AND_3</text>
<path d="M170,872 L230,872 L230,834 C230,794 170,794 170,834 L170,872 "/>
<rect x="-645" y="907" width="90" height="66"/>
<text x="-600" y="940"></text>
<rect x="-645" y="976" width="90" height="20"/>
<text x="-600" y="986">A_3</text>
<circle cx="-600" cy="1040" r="35"/>
<rect x="205" y="907" width="90" height="66"/>
<text x="250" y="940"></text>
<rect x="205" y="976" width="90" height="20"/>
<text x="250" y="986">OR_3</text>
<path d="M250,1004 C245,1006 218,1020 218,1050 L218,1076 Q250,1050 282,1076 L282,1050 C282,1020 255,1006 250,1004"/>
<rect x="-545" y="1107" width="90" height="66"/>
<text x="-500" y="1140"></text>
<rect x="-545" y="1176" width="90" height="20"/>
<text x="-500" y="1186">O_3</text>
<circle cx="-500" cy="1240" r="35"/>
<rect x="255" y="1107" width="90" height="66"/>
<text x="300" y="1140"></text>
<rect x="255" y="1176" width="90" height="20"/>
<text x="300" y="1186">AND_4</text>
<path d="M270,1272 L330,1272 L330,1234 C330,1194 270,1194 270,1234 L270,1272 "/>
<rect x="-445" y="1307" width="90" height="66"/>
<text x="-400" y="1340"></text>
<rect x="-445" y="1376" width="90" height="20"/>
<text x="-400" y="1386">A_4</text>
<circle cx="-400" cy="1440" r="35"/>
<rect x="305" y="1307" width="90" height="66"/>
<text x="350" y="1340"></text>
<rect x="305" y="1376" width="90" height="20"/>
<text x="350" y="1386">OR_4</text>
<path d="M350,1404 C345,1406 318,1420 318,1450 L318,1476 Q350,1450 382,1476 L382,1450 C382,1420 355,1406 350,1404"/>
<rect x="-345" y="1507" width="90" height="66"/>
<text x="-300" y="1540"></text>
<rect x="-345" y="1576" width="90" height="20"/>
<text x="-300" y="1586">O_4</text>
<circle cx="-300" cy="1640" r="35"/>
<rect x="355" y="1507" width="90" height="66"/>
<text x="400" y="1540"></text>
<rect x="355" y="1576" width="90" height="20"/>
<text x="400" y="1586">AND_5</text>
<path d="M370,1672 L430,1672 L430,1634 C430,1594 370,1594 370,1634 L370,1672 "/>
<rect x="-245" y="1707" width="90" height="66"/>
<text x="-200" y="1740"></text>
<rect x="-245" y="1776" width="90" height="20"/>
<text x="-200" y="1786">A_5</text>
<circle cx="-200" cy="1840" r="35"/>
<rect x="405" y="1707" width="90" height="66"/>
<text x="450" y="1740"></text>
<rect x="405" y="1776" width="90" height="20"/>
<text x="450" y="1786">OR_5</text>
<path d="M450,1804 C445,1806 418,1820 418,1850 L418,1876 Q450,1850 482,1876 L482,1850 C482,1820 455,1806 450,1804"/>
<rect x="-145" y="1907" width="90" height="66"/>
<text x="-100" y="1940"></text>
<rect x="-145" y="1976" width="90" height="20"/>
<text x="-100" y="1986">O_5</text>
<circle cx="-100" cy="2040" r="35"/>
<rect x="455" y="1907" width="90" height="66"/>
<text x="500" y="1940"></text>
<rect x="455" y="1976" width="90" height="20"/>
<text x="500" y="1986">AND_6</text>
<path d="M470,2072 L530,2072 L530,2034 C530,1994 470,1994 470,2034 L470,2072 "/>
<rect x="-45" y="2107" width="90" height="66"/>
<text x="0" y="2140"></text>
<rect x="-45" y="2176" width="90" height="20"/>
<text x="0" y="2186">A_6</text>
<circle cx="0" cy="2240" r="35"/>
<rect x="505" y="2107" width="90" height="66"/>
<text x="550" y="2140"></text>
<rect x="505" y="2176" width="90" height="20"/>
<text x="550" y="2186">OR_6</text>
<path d="M550,2204 C545,2206 518,2220 518,2250 L518,2276 Q550,2250 582,2276 L582,2250 C582,2220 555,2206 550,2204"/>
<rect x="55" y="2307" width="90" height="66"/>
<text x="100" y="2340"></text>
<rect x="55" y="2376" width="90" height="20"/>
<text x="100" y="2386">O_6</text>
<circle cx="100" cy="2440" r="35"/>
<rect x="555" y="2307" width="90" height="66"/>
<text x="600" y="2340"></text>
<rect x="555" y="2376" width="90" height="20"/>
<text x="600" y="2386">AND_7</text>
<path d="M570,2472 L630,2472 L630,2434 C630,2394 570,2394 570,2434 L570,2472 "/>
<rect x="155" y="2507" width="90" height="66"/>
<text x="200" y="2540"></text>
<rect x="155" y="2576" width="90" height="20"/>
<text x="200" y="2586">A_7</text>
<circle cx="200" cy="2640" r="35"/>
<rect x="605" y="2507" width="90" height="66"/>
<text x="650" y="2540"></text>
<rect x="605" y="2576" width="90" height="20"/>
<text x="650" y="2586">OR_7</text>
<path d="M650,2604 C645,2606 618,2620 618,2650 L618,2676 Q650,2650 682,2676 L682,2650 C682,2620 655,2606 650,2604"/>
<rect x="255" y="2707" width="90" height="66"/>
<text x="300" y="2740"></text>
<rect x="255" y="2776" width="90" height="20"/>
<text x="300" y="2786">O_7</text>
<circle cx="300" cy="2840" r="35"/>
<rect x="655" y="2707" width="90" height="66"/>
<text x="700" y="2740"></text>
<rect x="655" y="2776" width="90" height="20"/>
<text x="700" y="2786">AND_8</text>
<path d="M670,2872 L730,2872 L730,2834 C730,2794 670,2794 670,2834 L670,2872 "/>
<rect x="355" y="2907" width="90" height="66"/>
<text x="400" y="2940"></text>
<rect x="355" y="2976" width="90" height="20"/>
<text x="400" y="2986">A_8</text>
<circle cx="400" cy="3040" r="35"/>
<rect x="705" y="2907" width="90" height="66"/>
<text x="750" y="2940"></text>
<rect x="705" y="2976" width="90" height="20"/>
<text x="750" y="2986">OR_8</text>
<path d="M750,3004 C745,3006 718,3020 718,3050 L718,3076 Q750,3050 782,3076 L782,3050 C782,3020 755,3006 750,3004"/>
<rect x="455" y="3107" width="90" height="66"/>
<text x="500" y="3140"></text>
<rect x="455" y="3176" width="90" height="20"/>
<text x="500" y="3186">O_8</text>
<circle cx="500" cy="3240" r="35"/>
<rect x="755" y="3107" width="90" height="66"/>
<text x="800" y="3140"></text>
<rect x="755" y="3176" width="90" height="20"/>
<text x="800" y="3186">AND_9</text>
<path d="M770,3272 L830,3272 L830,3234 C830,3194 770,3194 770,3234 L770,3272 "/>
<rect x="555" y="3307" width="90" height="66"/>
<text x="600" y="3340"></text>
<rect x="555" y="3376" width="90" height="20"/>
<text x="600" y="3386">A_9</text>
<circle cx="600" cy="3440" r="35"/>
<rect x="805" y="3307" width="90" height="66"/>
<text x="850" y="3340"></text>
<rect x="805" y="3376" width="90" height="20"/>
<text x="850" y="3386">OR_9</text>
<path d="M850,3404 C845,3406 818,3420 818,3450 L818,3476 Q850,3450 882,3476 L882,3450 C882,3420 855,3406 850,3404"/>
<rect x="655" y="3507" width="90" height="66"/>
<text x="700" y="3540"></text>
<rect x="655" y="3576" width="90" height="20"/>
<text x="700" y="3586">O_9</text>
<circle cx="700" cy="3640" r="35"/>
<rect x="855" y="3507" width="90" height="66"/>
<text x="900" y="3540"></text>
<rect x="855" y="3576" width="90" height="20"/>
<text x="900" y="3586">AND_10</text>
<path d="M870,3672 L930,3672 L930,3634 C930,3594 870,3594 870,3634 L870,3672 "/>
<rect x="755" y="3707" width="90" height="66"/>
<text x="800" y="3740"></text>
<rect x="755" y="3776" width="90" height="20"/>
<text x="800" y="3786">A_10</text>
<circle cx="800" cy="3840" r="35"/>
<rect x="905" y="3707" width="90" height="66"/>
<text x="950" y="3740"></text>
<rect x="905" y="3776" width="90" height="20"/>
<text x="950" y="3786">OR_10</text>
<path d="M950,3804 C945,3806 918,3820 918,3850 L918,3876 Q950,3850 982,3876 L982,3850 C982,3820 955,3806 950,3804"/>
<rect x="855" y="3907" width="90" height="66"/>
<text x="900" y="3940"></text>
<rect x="855" y="3976" width="90" height="20"/>
<text x="900" y="3986">O_10</text>
<circle cx="900" cy="4040" r="35"/>
<rect x="955" y="3907" width="90" height="66"/>
<text x="1000" y="3940"></text>
<rect x="955" y="3976" width="90" height="20"/>
<text x="1000" y="3986">L</text>
<circle cx="1000" cy="4040" r="35"/>
</svg>
