<?xml version="1.0" encoding="UTF-8"?>
<svg viewBox="-10 -10 2540 4430" xmlns="http://www.w3.org/2000/svg">
<style>
circle, path, polygon, rect {
  fill: lightyellow;
}
circle, path, polygon, polyline, rect {
  stroke: black;
  stroke-width: 1.3;
}
polyline {
  fill: none;
}
text {
  dominant-baseline: middle;
  font-family: Cousine, "Courier New", monospace;
  font-size: 10px;
  text-anchor: middle;
}
</style>
<polyline points="1260,5 1260,150"/>
<polyline points="1250,150 1250,200 60,200 60,250"/>
<polyline points="1270,150 1270,200 1320,200 1320,250"/>
<rect x="1206" y="5" width="108" height="70"/>
<text x="1260" y="14.4" style="font-size: 6.4px">And this be the AND gate</text>
<text x="1260" y="20.8" style="font-size: 6.4px">of level 1. Its label</text>
<text x="1260" y="27.2" style="font-size: 6.4px">shall be exceeding long,</text>
<text x="1260" y="33.6" style="font-size: 6.4px">that the capabilities of</text>
<text x="1260" y="40" style="font-size: 6.4px">SFTA to properly wrap and</text>
<text x="1260" y="46.4" style="font-size: 6.4px">size a long label might</text>
<text x="1260" y="52.8" style="font-size: 6.4px">be tested, and be proved</text>
<text x="1260" y="59.2" style="font-size: 6.4px">functional and not</text>
<text x="1260" y="65.6" style="font-size: 6.4px">unpleasing.</text>
<rect x="1206" y="80" width="108" height="24"/>
<text x="1260" y="92">AND_1</text>
<path d="M1228,184 L1292,184 L1292,144 C1292,102 1228,102 1228,144 L1228,184 "/>
<rect x="1206" y="138" width="108" height="24"/>
<text x="1260" y="150">Q ≤ 0.01111</text>
<polyline points="60,215 60,360"/>

<rect x="6" y="215" width="108" height="70"/>

<rect x="6" y="290" width="108" height="24"/>
<text x="60" y="302">A_1</text>
<circle cx="60" cy="360" r="38"/>
<rect x="6" y="348" width="108" height="24"/>
<text x="60" y="360">Q = 0.1</text>
<polyline points="1320,215 1320,360"/>
<polyline points="1310,360 1310,410 180,410 180,460"/>
<polyline points="1330,360 1330,410 1380,410 1380,460"/>
<rect x="1266" y="215" width="108" height="70"/>
<text x="1320" y="224.4" style="font-size: 6.4px">And this be the OR gate</text>
<text x="1320" y="230.8" style="font-size: 6.4px">of level 1. Its label</text>
<text x="1320" y="237.2" style="font-size: 6.4px">shall be exceeding long,</text>
<text x="1320" y="243.6" style="font-size: 6.4px">that the capabilities of</text>
<text x="1320" y="250" style="font-size: 6.4px">SFTA to properly wrap and</text>
<text x="1320" y="256.4" style="font-size: 6.4px">size a long label might</text>
<text x="1320" y="262.8" style="font-size: 6.4px">be tested, and be proved</text>
<text x="1320" y="269.2" style="font-size: 6.4px">functional and not</text>
<text x="1320" y="275.6" style="font-size: 6.4px">unpleasing.</text>
<rect x="1266" y="290" width="108" height="24"/>
<text x="1320" y="302">OR_1</text>
<path d="M1320,322 C1314,324 1287,335 1287,370 L1287,396 Q1320,366 1353,396 L1353,370 C1353,335 1326,324 1320,322"/>
<rect x="1266" y="348" width="108" height="24"/>
<text x="1320" y="360">Q ≤ 0.1111</text>
<polyline points="180,425 180,570"/>

<rect x="126" y="425" width="108" height="70"/>

<rect x="126" y="500" width="108" height="24"/>
<text x="180" y="512">O_1</text>
<circle cx="180" cy="570" r="38"/>
<rect x="126" y="558" width="108" height="24"/>
<text x="180" y="570">Q = 0.1</text>
<polyline points="1380,425 1380,570"/>
<polyline points="1370,570 1370,620 300,620 300,670"/>
<polyline points="1390,570 1390,620 1440,620 1440,670"/>
<rect x="1326" y="425" width="108" height="70"/>
<text x="1380" y="434.4" style="font-size: 6.4px">And this be the AND gate</text>
<text x="1380" y="440.8" style="font-size: 6.4px">of level 2. Its label</text>
<text x="1380" y="447.2" style="font-size: 6.4px">shall be exceeding long,</text>
<text x="1380" y="453.6" style="font-size: 6.4px">that the capabilities of</text>
<text x="1380" y="460" style="font-size: 6.4px">SFTA to properly wrap and</text>
<text x="1380" y="466.4" style="font-size: 6.4px">size a long label might</text>
<text x="1380" y="472.8" style="font-size: 6.4px">be tested, and be proved</text>
<text x="1380" y="479.2" style="font-size: 6.4px">functional and not</text>
<text x="1380" y="485.6" style="font-size: 6.4px">unpleasing.</text>
<rect x="1326" y="500" width="108" height="24"/>
<text x="1380" y="512">AND_2</text>
<path d="M1348,604 L1412,604 L1412,564 C1412,522 1348,522 1348,564 L1348,604 "/>
<rect x="1326" y="558" width="108" height="24"/>
<text x="1380" y="570">Q ≤ 0.01111</text>
<polyline points="300,635 300,780"/>

<rect x="246" y="635" width="108" height="70"/>

<rect x="246" y="710" width="108" height="24"/>
<text x="300" y="722">A_2</text>
<circle cx="300" cy="780" r="38"/>
<rect x="246" y="768" width="108" height="24"/>
<text x="300" y="780">Q = 0.1</text>
<polyline points="1440,635 1440,780"/>
<polyline points="1430,780 1430,830 420,830 420,880"/>
<polyline points="1450,780 1450,830 1500,830 1500,880"/>
<rect x="1386" y="635" width="108" height="70"/>
<text x="1440" y="644.4" style="font-size: 6.4px">And this be the OR gate</text>
<text x="1440" y="650.8" style="font-size: 6.4px">of level 2. Its label</text>
<text x="1440" y="657.2" style="font-size: 6.4px">shall be exceeding long,</text>
<text x="1440" y="663.6" style="font-size: 6.4px">that the capabilities of</text>
<text x="1440" y="670" style="font-size: 6.4px">SFTA to properly wrap and</text>
<text x="1440" y="676.4" style="font-size: 6.4px">size a long label might</text>
<text x="1440" y="682.8" style="font-size: 6.4px">be tested, and be proved</text>
<text x="1440" y="689.2" style="font-size: 6.4px">functional and not</text>
<text x="1440" y="695.6" style="font-size: 6.4px">unpleasing.</text>
<rect x="1386" y="710" width="108" height="24"/>
<text x="1440" y="722">OR_2</text>
<path d="M1440,742 C1434,744 1407,755 1407,790 L1407,816 Q1440,786 1473,816 L1473,790 C1473,755 1446,744 1440,742"/>
<rect x="1386" y="768" width="108" height="24"/>
<text x="1440" y="780">Q ≤ 0.1111</text>
<polyline points="420,845 420,990"/>

<rect x="366" y="845" width="108" height="70"/>

<rect x="366" y="920" width="108" height="24"/>
<text x="420" y="932">O_2</text>
<circle cx="420" cy="990" r="38"/>
<rect x="366" y="978" width="108" height="24"/>
<text x="420" y="990">Q = 0.1</text>
<polyline points="1500,845 1500,990"/>
<polyline points="1490,990 1490,1040 540,1040 540,1090"/>
<polyline points="1510,990 1510,1040 1560,1040 1560,1090"/>
<rect x="1446" y="845" width="108" height="70"/>
<text x="1500" y="854.4" style="font-size: 6.4px">And this be the AND gate</text>
<text x="1500" y="860.8" style="font-size: 6.4px">of level 3. Its label</text>
<text x="1500" y="867.2" style="font-size: 6.4px">shall be exceeding long,</text>
<text x="1500" y="873.6" style="font-size: 6.4px">that the capabilities of</text>
<text x="1500" y="880" style="font-size: 6.4px">SFTA to properly wrap and</text>
<text x="1500" y="886.4" style="font-size: 6.4px">size a long label might</text>
<text x="1500" y="892.8" style="font-size: 6.4px">be tested, and be proved</text>
<text x="1500" y="899.2" style="font-size: 6.4px">functional and not</text>
<text x="1500" y="905.6" style="font-size: 6.4px">unpleasing.</text>
<rect x="1446" y="920" width="108" height="24"/>
<text x="1500" y="932">AND_3</text>
<path d="M1468,1024 L1532,1024 L1532,984 C1532,942 1468,942 1468,984 L1468,1024 "/>
<rect x="1446" y="978" width="108" height="24"/>
<text x="1500" y="990">Q ≤ 0.01111</text>
<polyline points="540,1055 540,1200"/>

<rect x="486" y="1055" width="108" height="70"/>

<rect x="486" y="1130" width="108" height="24"/>
<text x="540" y="1142">A_3</text>
<circle cx="540" cy="1200" r="38"/>
<rect x="486" y="1188" width="108" height="24"/>
<text x="540" y="1200">Q = 0.1</text>
<polyline points="1560,1055 1560,1200"/>
<polyline points="1550,1200 1550,1250 660,1250 660,1300"/>
<polyline points="1570,1200 1570,1250 1620,1250 1620,1300"/>
<rect x="1506" y="1055" width="108" height="70"/>
<text x="1560" y="1064.4" style="font-size: 6.4px">And this be the OR gate</text>
<text x="1560" y="1070.8" style="font-size: 6.4px">of level 3. Its label</text>
<text x="1560" y="1077.2" style="font-size: 6.4px">shall be exceeding long,</text>
<text x="1560" y="1083.6" style="font-size: 6.4px">that the capabilities of</text>
<text x="1560" y="1090" style="font-size: 6.4px">SFTA to properly wrap and</text>
<text x="1560" y="1096.4" style="font-size: 6.4px">size a long label might</text>
<text x="1560" y="1102.8" style="font-size: 6.4px">be tested, and be proved</text>
<text x="1560" y="1109.2" style="font-size: 6.4px">functional and not</text>
<text x="1560" y="1115.6" style="font-size: 6.4px">unpleasing.</text>
<rect x="1506" y="1130" width="108" height="24"/>
<text x="1560" y="1142">OR_3</text>
<path d="M1560,1162 C1554,1164 1527,1175 1527,1210 L1527,1236 Q1560,1206 1593,1236 L1593,1210 C1593,1175 1566,1164 1560,1162"/>
<rect x="1506" y="1188" width="108" height="24"/>
<text x="1560" y="1200">Q ≤ 0.1111</text>
<polyline points="660,1265 660,1410"/>

<rect x="606" y="1265" width="108" height="70"/>

<rect x="606" y="1340" width="108" height="24"/>
<text x="660" y="1352">O_3</text>
<circle cx="660" cy="1410" r="38"/>
<rect x="606" y="1398" width="108" height="24"/>
<text x="660" y="1410">Q = 0.1</text>
<polyline points="1620,1265 1620,1410"/>
<polyline points="1610,1410 1610,1460 780,1460 780,1510"/>
<polyline points="1630,1410 1630,1460 1680,1460 1680,1510"/>
<rect x="1566" y="1265" width="108" height="70"/>
<text x="1620" y="1274.4" style="font-size: 6.4px">And this be the AND gate</text>
<text x="1620" y="1280.8" style="font-size: 6.4px">of level 4. Its label</text>
<text x="1620" y="1287.2" style="font-size: 6.4px">shall be exceeding long,</text>
<text x="1620" y="1293.6" style="font-size: 6.4px">that the capabilities of</text>
<text x="1620" y="1300" style="font-size: 6.4px">SFTA to properly wrap and</text>
<text x="1620" y="1306.4" style="font-size: 6.4px">size a long label might</text>
<text x="1620" y="1312.8" style="font-size: 6.4px">be tested, and be proved</text>
<text x="1620" y="1319.2" style="font-size: 6.4px">functional and not</text>
<text x="1620" y="1325.6" style="font-size: 6.4px">unpleasing.</text>
<rect x="1566" y="1340" width="108" height="24"/>
<text x="1620" y="1352">AND_4</text>
<path d="M1588,1444 L1652,1444 L1652,1404 C1652,1362 1588,1362 1588,1404 L1588,1444 "/>
<rect x="1566" y="1398" width="108" height="24"/>
<text x="1620" y="1410">Q ≤ 0.01111</text>
<polyline points="780,1475 780,1620"/>

<rect x="726" y="1475" width="108" height="70"/>

<rect x="726" y="1550" width="108" height="24"/>
<text x="780" y="1562">A_4</text>
<circle cx="780" cy="1620" r="38"/>
<rect x="726" y="1608" width="108" height="24"/>
<text x="780" y="1620">Q = 0.1</text>
<polyline points="1680,1475 1680,1620"/>
<polyline points="1670,1620 1670,1670 900,1670 900,1720"/>
<polyline points="1690,1620 1690,1670 1740,1670 1740,1720"/>
<rect x="1626" y="1475" width="108" height="70"/>
<text x="1680" y="1484.4" style="font-size: 6.4px">And this be the OR gate</text>
<text x="1680" y="1490.8" style="font-size: 6.4px">of level 4. Its label</text>
<text x="1680" y="1497.2" style="font-size: 6.4px">shall be exceeding long,</text>
<text x="1680" y="1503.6" style="font-size: 6.4px">that the capabilities of</text>
<text x="1680" y="1510" style="font-size: 6.4px">SFTA to properly wrap and</text>
<text x="1680" y="1516.4" style="font-size: 6.4px">size a long label might</text>
<text x="1680" y="1522.8" style="font-size: 6.4px">be tested, and be proved</text>
<text x="1680" y="1529.2" style="font-size: 6.4px">functional and not</text>
<text x="1680" y="1535.6" style="font-size: 6.4px">unpleasing.</text>
<rect x="1626" y="1550" width="108" height="24"/>
<text x="1680" y="1562">OR_4</text>
<path d="M1680,1582 C1674,1584 1647,1595 1647,1630 L1647,1656 Q1680,1626 1713,1656 L1713,1630 C1713,1595 1686,1584 1680,1582"/>
<rect x="1626" y="1608" width="108" height="24"/>
<text x="1680" y="1620">Q ≤ 0.1111</text>
<polyline points="900,1685 900,1830"/>

<rect x="846" y="1685" width="108" height="70"/>

<rect x="846" y="1760" width="108" height="24"/>
<text x="900" y="1772">O_4</text>
<circle cx="900" cy="1830" r="38"/>
<rect x="846" y="1818" width="108" height="24"/>
<text x="900" y="1830">Q = 0.1</text>
<polyline points="1740,1685 1740,1830"/>
<polyline points="1730,1830 1730,1880 1020,1880 1020,1930"/>
<polyline points="1750,1830 1750,1880 1800,1880 1800,1930"/>
<rect x="1686" y="1685" width="108" height="70"/>
<text x="1740" y="1694.4" style="font-size: 6.4px">And this be the AND gate</text>
<text x="1740" y="1700.8" style="font-size: 6.4px">of level 5. Its label</text>
<text x="1740" y="1707.2" style="font-size: 6.4px">shall be exceeding long,</text>
<text x="1740" y="1713.6" style="font-size: 6.4px">that the capabilities of</text>
<text x="1740" y="1720" style="font-size: 6.4px">SFTA to properly wrap and</text>
<text x="1740" y="1726.4" style="font-size: 6.4px">size a long label might</text>
<text x="1740" y="1732.8" style="font-size: 6.4px">be tested, and be proved</text>
<text x="1740" y="1739.2" style="font-size: 6.4px">functional and not</text>
<text x="1740" y="1745.6" style="font-size: 6.4px">unpleasing.</text>
<rect x="1686" y="1760" width="108" height="24"/>
<text x="1740" y="1772">AND_5</text>
<path d="M1708,1864 L1772,1864 L1772,1824 C1772,1782 1708,1782 1708,1824 L1708,1864 "/>
<rect x="1686" y="1818" width="108" height="24"/>
<text x="1740" y="1830">Q ≤ 0.01111</text>
<polyline points="1020,1895 1020,2040"/>

<rect x="966" y="1895" width="108" height="70"/>

<rect x="966" y="1970" width="108" height="24"/>
<text x="1020" y="1982">A_5</text>
<circle cx="1020" cy="2040" r="38"/>
<rect x="966" y="2028" width="108" height="24"/>
<text x="1020" y="2040">Q = 0.1</text>
<polyline points="1800,1895 1800,2040"/>
<polyline points="1790,2040 1790,2090 1140,2090 1140,2140"/>
<polyline points="1810,2040 1810,2090 1860,2090 1860,2140"/>
<rect x="1746" y="1895" width="108" height="70"/>
<text x="1800" y="1904.4" style="font-size: 6.4px">And this be the OR gate</text>
<text x="1800" y="1910.8" style="font-size: 6.4px">of level 5. Its label</text>
<text x="1800" y="1917.2" style="font-size: 6.4px">shall be exceeding long,</text>
<text x="1800" y="1923.6" style="font-size: 6.4px">that the capabilities of</text>
<text x="1800" y="1930" style="font-size: 6.4px">SFTA to properly wrap and</text>
<text x="1800" y="1936.4" style="font-size: 6.4px">size a long label might</text>
<text x="1800" y="1942.8" style="font-size: 6.4px">be tested, and be proved</text>
<text x="1800" y="1949.2" style="font-size: 6.4px">functional and not</text>
<text x="1800" y="1955.6" style="font-size: 6.4px">unpleasing.</text>
<rect x="1746" y="1970" width="108" height="24"/>
<text x="1800" y="1982">OR_5</text>
<path d="M1800,2002 C1794,2004 1767,2015 1767,2050 L1767,2076 Q1800,2046 1833,2076 L1833,2050 C1833,2015 1806,2004 1800,2002"/>
<rect x="1746" y="2028" width="108" height="24"/>
<text x="1800" y="2040">Q ≤ 0.1111</text>
<polyline points="1140,2105 1140,2250"/>

<rect x="1086" y="2105" width="108" height="70"/>

<rect x="1086" y="2180" width="108" height="24"/>
<text x="1140" y="2192">O_5</text>
<circle cx="1140" cy="2250" r="38"/>
<rect x="1086" y="2238" width="108" height="24"/>
<text x="1140" y="2250">Q = 0.1</text>
<polyline points="1860,2105 1860,2250"/>
<polyline points="1850,2250 1850,2300 1260,2300 1260,2350"/>
<polyline points="1870,2250 1870,2300 1920,2300 1920,2350"/>
<rect x="1806" y="2105" width="108" height="70"/>
<text x="1860" y="2114.4" style="font-size: 6.4px">And this be the AND gate</text>
<text x="1860" y="2120.8" style="font-size: 6.4px">of level 6. Its label</text>
<text x="1860" y="2127.2" style="font-size: 6.4px">shall be exceeding long,</text>
<text x="1860" y="2133.6" style="font-size: 6.4px">that the capabilities of</text>
<text x="1860" y="2140" style="font-size: 6.4px">SFTA to properly wrap and</text>
<text x="1860" y="2146.4" style="font-size: 6.4px">size a long label might</text>
<text x="1860" y="2152.8" style="font-size: 6.4px">be tested, and be proved</text>
<text x="1860" y="2159.2" style="font-size: 6.4px">functional and not</text>
<text x="1860" y="2165.6" style="font-size: 6.4px">unpleasing.</text>
<rect x="1806" y="2180" width="108" height="24"/>
<text x="1860" y="2192">AND_6</text>
<path d="M1828,2284 L1892,2284 L1892,2244 C1892,2202 1828,2202 1828,2244 L1828,2284 "/>
<rect x="1806" y="2238" width="108" height="24"/>
<text x="1860" y="2250">Q ≤ 0.01111</text>
<polyline points="1260,2315 1260,2460"/>

<rect x="1206" y="2315" width="108" height="70"/>

<rect x="1206" y="2390" width="108" height="24"/>
<text x="1260" y="2402">A_6</text>
<circle cx="1260" cy="2460" r="38"/>
<rect x="1206" y="2448" width="108" height="24"/>
<text x="1260" y="2460">Q = 0.1</text>
<polyline points="1920,2315 1920,2460"/>
<polyline points="1910,2460 1910,2510 1380,2510 1380,2560"/>
<polyline points="1930,2460 1930,2510 1980,2510 1980,2560"/>
<rect x="1866" y="2315" width="108" height="70"/>
<text x="1920" y="2324.4" style="font-size: 6.4px">And this be the OR gate</text>
<text x="1920" y="2330.8" style="font-size: 6.4px">of level 6. Its label</text>
<text x="1920" y="2337.2" style="font-size: 6.4px">shall be exceeding long,</text>
<text x="1920" y="2343.6" style="font-size: 6.4px">that the capabilities of</text>
<text x="1920" y="2350" style="font-size: 6.4px">SFTA to properly wrap and</text>
<text x="1920" y="2356.4" style="font-size: 6.4px">size a long label might</text>
<text x="1920" y="2362.8" style="font-size: 6.4px">be tested, and be proved</text>
<text x="1920" y="2369.2" style="font-size: 6.4px">functional and not</text>
<text x="1920" y="2375.6" style="font-size: 6.4px">unpleasing.</text>
<rect x="1866" y="2390" width="108" height="24"/>
<text x="1920" y="2402">OR_6</text>
<path d="M1920,2422 C1914,2424 1887,2435 1887,2470 L1887,2496 Q1920,2466 1953,2496 L1953,2470 C1953,2435 1926,2424 1920,2422"/>
<rect x="1866" y="2448" width="108" height="24"/>
<text x="1920" y="2460">Q ≤ 0.1111</text>
<polyline points="1380,2525 1380,2670"/>

<rect x="1326" y="2525" width="108" height="70"/>

<rect x="1326" y="2600" width="108" height="24"/>
<text x="1380" y="2612">O_6</text>
<circle cx="1380" cy="2670" r="38"/>
<rect x="1326" y="2658" width="108" height="24"/>
<text x="1380" y="2670">Q = 0.1</text>
<polyline points="1980,2525 1980,2670"/>
<polyline points="1970,2670 1970,2720 1500,2720 1500,2770"/>
<polyline points="1990,2670 1990,2720 2040,2720 2040,2770"/>
<rect x="1926" y="2525" width="108" height="70"/>
<text x="1980" y="2534.4" style="font-size: 6.4px">And this be the AND gate</text>
<text x="1980" y="2540.8" style="font-size: 6.4px">of level 7. Its label</text>
<text x="1980" y="2547.2" style="font-size: 6.4px">shall be exceeding long,</text>
<text x="1980" y="2553.6" style="font-size: 6.4px">that the capabilities of</text>
<text x="1980" y="2560" style="font-size: 6.4px">SFTA to properly wrap and</text>
<text x="1980" y="2566.4" style="font-size: 6.4px">size a long label might</text>
<text x="1980" y="2572.8" style="font-size: 6.4px">be tested, and be proved</text>
<text x="1980" y="2579.2" style="font-size: 6.4px">functional and not</text>
<text x="1980" y="2585.6" style="font-size: 6.4px">unpleasing.</text>
<rect x="1926" y="2600" width="108" height="24"/>
<text x="1980" y="2612">AND_7</text>
<path d="M1948,2704 L2012,2704 L2012,2664 C2012,2622 1948,2622 1948,2664 L1948,2704 "/>
<rect x="1926" y="2658" width="108" height="24"/>
<text x="1980" y="2670">Q ≤ 0.01112</text>
<polyline points="1500,2735 1500,2880"/>

<rect x="1446" y="2735" width="108" height="70"/>

<rect x="1446" y="2810" width="108" height="24"/>
<text x="1500" y="2822">A_7</text>
<circle cx="1500" cy="2880" r="38"/>
<rect x="1446" y="2868" width="108" height="24"/>
<text x="1500" y="2880">Q = 0.1</text>
<polyline points="2040,2735 2040,2880"/>
<polyline points="2030,2880 2030,2930 1620,2930 1620,2980"/>
<polyline points="2050,2880 2050,2930 2100,2930 2100,2980"/>
<rect x="1986" y="2735" width="108" height="70"/>
<text x="2040" y="2744.4" style="font-size: 6.4px">And this be the OR gate</text>
<text x="2040" y="2750.8" style="font-size: 6.4px">of level 7. Its label</text>
<text x="2040" y="2757.2" style="font-size: 6.4px">shall be exceeding long,</text>
<text x="2040" y="2763.6" style="font-size: 6.4px">that the capabilities of</text>
<text x="2040" y="2770" style="font-size: 6.4px">SFTA to properly wrap and</text>
<text x="2040" y="2776.4" style="font-size: 6.4px">size a long label might</text>
<text x="2040" y="2782.8" style="font-size: 6.4px">be tested, and be proved</text>
<text x="2040" y="2789.2" style="font-size: 6.4px">functional and not</text>
<text x="2040" y="2795.6" style="font-size: 6.4px">unpleasing.</text>
<rect x="1986" y="2810" width="108" height="24"/>
<text x="2040" y="2822">OR_7</text>
<path d="M2040,2842 C2034,2844 2007,2855 2007,2890 L2007,2916 Q2040,2886 2073,2916 L2073,2890 C2073,2855 2046,2844 2040,2842"/>
<rect x="1986" y="2868" width="108" height="24"/>
<text x="2040" y="2880">Q ≤ 0.1112</text>
<polyline points="1620,2945 1620,3090"/>

<rect x="1566" y="2945" width="108" height="70"/>

<rect x="1566" y="3020" width="108" height="24"/>
<text x="1620" y="3032">O_7</text>
<circle cx="1620" cy="3090" r="38"/>
<rect x="1566" y="3078" width="108" height="24"/>
<text x="1620" y="3090">Q = 0.1</text>
<polyline points="2100,2945 2100,3090"/>
<polyline points="2090,3090 2090,3140 1740,3140 1740,3190"/>
<polyline points="2110,3090 2110,3140 2160,3140 2160,3190"/>
<rect x="2046" y="2945" width="108" height="70"/>
<text x="2100" y="2954.4" style="font-size: 6.4px">And this be the AND gate</text>
<text x="2100" y="2960.8" style="font-size: 6.4px">of level 8. Its label</text>
<text x="2100" y="2967.2" style="font-size: 6.4px">shall be exceeding long,</text>
<text x="2100" y="2973.6" style="font-size: 6.4px">that the capabilities of</text>
<text x="2100" y="2980" style="font-size: 6.4px">SFTA to properly wrap and</text>
<text x="2100" y="2986.4" style="font-size: 6.4px">size a long label might</text>
<text x="2100" y="2992.8" style="font-size: 6.4px">be tested, and be proved</text>
<text x="2100" y="2999.2" style="font-size: 6.4px">functional and not</text>
<text x="2100" y="3005.6" style="font-size: 6.4px">unpleasing.</text>
<rect x="2046" y="3020" width="108" height="24"/>
<text x="2100" y="3032">AND_8</text>
<path d="M2068,3124 L2132,3124 L2132,3084 C2132,3042 2068,3042 2068,3084 L2068,3124 "/>
<rect x="2046" y="3078" width="108" height="24"/>
<text x="2100" y="3090">Q ≤ 0.0112</text>
<polyline points="1740,3155 1740,3300"/>

<rect x="1686" y="3155" width="108" height="70"/>

<rect x="1686" y="3230" width="108" height="24"/>
<text x="1740" y="3242">A_8</text>
<circle cx="1740" cy="3300" r="38"/>
<rect x="1686" y="3288" width="108" height="24"/>
<text x="1740" y="3300">Q = 0.1</text>
<polyline points="2160,3155 2160,3300"/>
<polyline points="2150,3300 2150,3350 1860,3350 1860,3400"/>
<polyline points="2170,3300 2170,3350 2220,3350 2220,3400"/>
<rect x="2106" y="3155" width="108" height="70"/>
<text x="2160" y="3164.4" style="font-size: 6.4px">And this be the OR gate</text>
<text x="2160" y="3170.8" style="font-size: 6.4px">of level 8. Its label</text>
<text x="2160" y="3177.2" style="font-size: 6.4px">shall be exceeding long,</text>
<text x="2160" y="3183.6" style="font-size: 6.4px">that the capabilities of</text>
<text x="2160" y="3190" style="font-size: 6.4px">SFTA to properly wrap and</text>
<text x="2160" y="3196.4" style="font-size: 6.4px">size a long label might</text>
<text x="2160" y="3202.8" style="font-size: 6.4px">be tested, and be proved</text>
<text x="2160" y="3209.2" style="font-size: 6.4px">functional and not</text>
<text x="2160" y="3215.6" style="font-size: 6.4px">unpleasing.</text>
<rect x="2106" y="3230" width="108" height="24"/>
<text x="2160" y="3242">OR_8</text>
<path d="M2160,3262 C2154,3264 2127,3275 2127,3310 L2127,3336 Q2160,3306 2193,3336 L2193,3310 C2193,3275 2166,3264 2160,3262"/>
<rect x="2106" y="3288" width="108" height="24"/>
<text x="2160" y="3300">Q ≤ 0.112</text>
<polyline points="1860,3365 1860,3510"/>

<rect x="1806" y="3365" width="108" height="70"/>

<rect x="1806" y="3440" width="108" height="24"/>
<text x="1860" y="3452">O_8</text>
<circle cx="1860" cy="3510" r="38"/>
<rect x="1806" y="3498" width="108" height="24"/>
<text x="1860" y="3510">Q = 0.1</text>
<polyline points="2220,3365 2220,3510"/>
<polyline points="2210,3510 2210,3560 1980,3560 1980,3610"/>
<polyline points="2230,3510 2230,3560 2280,3560 2280,3610"/>
<rect x="2166" y="3365" width="108" height="70"/>
<text x="2220" y="3374.4" style="font-size: 6.4px">And this be the AND gate</text>
<text x="2220" y="3380.8" style="font-size: 6.4px">of level 9. Its label</text>
<text x="2220" y="3387.2" style="font-size: 6.4px">shall be exceeding long,</text>
<text x="2220" y="3393.6" style="font-size: 6.4px">that the capabilities of</text>
<text x="2220" y="3400" style="font-size: 6.4px">SFTA to properly wrap and</text>
<text x="2220" y="3406.4" style="font-size: 6.4px">size a long label might</text>
<text x="2220" y="3412.8" style="font-size: 6.4px">be tested, and be proved</text>
<text x="2220" y="3419.2" style="font-size: 6.4px">functional and not</text>
<text x="2220" y="3425.6" style="font-size: 6.4px">unpleasing.</text>
<rect x="2166" y="3440" width="108" height="24"/>
<text x="2220" y="3452">AND_9</text>
<path d="M2188,3544 L2252,3544 L2252,3504 C2252,3462 2188,3462 2188,3504 L2188,3544 "/>
<rect x="2166" y="3498" width="108" height="24"/>
<text x="2220" y="3510">Q ≤ 0.012</text>
<polyline points="1980,3575 1980,3720"/>

<rect x="1926" y="3575" width="108" height="70"/>

<rect x="1926" y="3650" width="108" height="24"/>
<text x="1980" y="3662">A_9</text>
<circle cx="1980" cy="3720" r="38"/>
<rect x="1926" y="3708" width="108" height="24"/>
<text x="1980" y="3720">Q = 0.1</text>
<polyline points="2280,3575 2280,3720"/>
<polyline points="2270,3720 2270,3770 2100,3770 2100,3820"/>
<polyline points="2290,3720 2290,3770 2340,3770 2340,3820"/>
<rect x="2226" y="3575" width="108" height="70"/>
<text x="2280" y="3584.4" style="font-size: 6.4px">And this be the OR gate</text>
<text x="2280" y="3590.8" style="font-size: 6.4px">of level 9. Its label</text>
<text x="2280" y="3597.2" style="font-size: 6.4px">shall be exceeding long,</text>
<text x="2280" y="3603.6" style="font-size: 6.4px">that the capabilities of</text>
<text x="2280" y="3610" style="font-size: 6.4px">SFTA to properly wrap and</text>
<text x="2280" y="3616.4" style="font-size: 6.4px">size a long label might</text>
<text x="2280" y="3622.8" style="font-size: 6.4px">be tested, and be proved</text>
<text x="2280" y="3629.2" style="font-size: 6.4px">functional and not</text>
<text x="2280" y="3635.6" style="font-size: 6.4px">unpleasing.</text>
<rect x="2226" y="3650" width="108" height="24"/>
<text x="2280" y="3662">OR_9</text>
<path d="M2280,3682 C2274,3684 2247,3695 2247,3730 L2247,3756 Q2280,3726 2313,3756 L2313,3730 C2313,3695 2286,3684 2280,3682"/>
<rect x="2226" y="3708" width="108" height="24"/>
<text x="2280" y="3720">Q ≤ 0.12</text>
<polyline points="2100,3785 2100,3930"/>

<rect x="2046" y="3785" width="108" height="70"/>

<rect x="2046" y="3860" width="108" height="24"/>
<text x="2100" y="3872">O_9</text>
<circle cx="2100" cy="3930" r="38"/>
<rect x="2046" y="3918" width="108" height="24"/>
<text x="2100" y="3930">Q = 0.1</text>
<polyline points="2340,3785 2340,3930"/>
<polyline points="2330,3930 2330,3980 2220,3980 2220,4030"/>
<polyline points="2350,3930 2350,3980 2400,3980 2400,4030"/>
<rect x="2286" y="3785" width="108" height="70"/>
<text x="2340" y="3794.4" style="font-size: 6.4px">And this be the AND gate</text>
<text x="2340" y="3800.8" style="font-size: 6.4px">of level 10. Its label</text>
<text x="2340" y="3807.2" style="font-size: 6.4px">shall be exceeding long,</text>
<text x="2340" y="3813.6" style="font-size: 6.4px">that the capabilities of</text>
<text x="2340" y="3820" style="font-size: 6.4px">SFTA to properly wrap and</text>
<text x="2340" y="3826.4" style="font-size: 6.4px">size a long label might</text>
<text x="2340" y="3832.8" style="font-size: 6.4px">be tested, and be proved</text>
<text x="2340" y="3839.2" style="font-size: 6.4px">functional and not</text>
<text x="2340" y="3845.6" style="font-size: 6.4px">unpleasing.</text>
<rect x="2286" y="3860" width="108" height="24"/>
<text x="2340" y="3872">AND_10</text>
<path d="M2308,3964 L2372,3964 L2372,3924 C2372,3882 2308,3882 2308,3924 L2308,3964 "/>
<rect x="2286" y="3918" width="108" height="24"/>
<text x="2340" y="3930">Q ≤ 0.02</text>
<polyline points="2220,3995 2220,4140"/>

<rect x="2166" y="3995" width="108" height="70"/>

<rect x="2166" y="4070" width="108" height="24"/>
<text x="2220" y="4082">A_10</text>
<circle cx="2220" cy="4140" r="38"/>
<rect x="2166" y="4128" width="108" height="24"/>
<text x="2220" y="4140">Q = 0.1</text>
<polyline points="2400,3995 2400,4140"/>
<polyline points="2390,4140 2390,4190 2340,4190 2340,4240"/>
<polyline points="2410,4140 2410,4190 2460,4190 2460,4240"/>
<rect x="2346" y="3995" width="108" height="70"/>
<text x="2400" y="4004.4" style="font-size: 6.4px">And this be the OR gate</text>
<text x="2400" y="4010.8" style="font-size: 6.4px">of level 10. Its label</text>
<text x="2400" y="4017.2" style="font-size: 6.4px">shall be exceeding long,</text>
<text x="2400" y="4023.6" style="font-size: 6.4px">that the capabilities of</text>
<text x="2400" y="4030" style="font-size: 6.4px">SFTA to properly wrap and</text>
<text x="2400" y="4036.4" style="font-size: 6.4px">size a long label might</text>
<text x="2400" y="4042.8" style="font-size: 6.4px">be tested, and be proved</text>
<text x="2400" y="4049.2" style="font-size: 6.4px">functional and not</text>
<text x="2400" y="4055.6" style="font-size: 6.4px">unpleasing.</text>
<rect x="2346" y="4070" width="108" height="24"/>
<text x="2400" y="4082">OR_10</text>
<path d="M2400,4102 C2394,4104 2367,4115 2367,4150 L2367,4176 Q2400,4146 2433,4176 L2433,4150 C2433,4115 2406,4104 2400,4102"/>
<rect x="2346" y="4128" width="108" height="24"/>
<text x="2400" y="4140">Q ≤ 0.2</text>
<polyline points="2340,4205 2340,4350"/>

<rect x="2286" y="4205" width="108" height="70"/>

<rect x="2286" y="4280" width="108" height="24"/>
<text x="2340" y="4292">O_10</text>
<circle cx="2340" cy="4350" r="38"/>
<rect x="2286" y="4338" width="108" height="24"/>
<text x="2340" y="4350">Q = 0.1</text>
<polyline points="2460,4205 2460,4350"/>

<rect x="2406" y="4205" width="108" height="70"/>

<rect x="2406" y="4280" width="108" height="24"/>
<text x="2460" y="4292">L</text>
<circle cx="2460" cy="4350" r="38"/>
<rect x="2406" y="4338" width="108" height="24"/>
<text x="2460" y="4350">Q = 0.1</text>
</svg>
