<?xml version="1.0" encoding="UTF-8"?>
<svg viewBox="-100 -200 2200 4400" xmlns="http://www.w3.org/2000/svg">
<style>
text {
  text-anchor: middle;
}
</style>
<text x="0" y="0">AND_1</text><text x="-1000" y="200">A_1</text>
<text x="50" y="200">OR_1</text><text x="-900" y="400">O_1</text>
<text x="100" y="400">AND_2</text><text x="-800" y="600">A_2</text>
<text x="150" y="600">OR_2</text><text x="-700" y="800">O_2</text>
<text x="200" y="800">AND_3</text><text x="-600" y="1000">A_3</text>
<text x="250" y="1000">OR_3</text><text x="-500" y="1200">O_3</text>
<text x="300" y="1200">AND_4</text><text x="-400" y="1400">A_4</text>
<text x="350" y="1400">OR_4</text><text x="-300" y="1600">O_4</text>
<text x="400" y="1600">AND_5</text><text x="-200" y="1800">A_5</text>
<text x="450" y="1800">OR_5</text><text x="-100" y="2000">O_5</text>
<text x="500" y="2000">AND_6</text><text x="0" y="2200">A_6</text>
<text x="550" y="2200">OR_6</text><text x="100" y="2400">O_6</text>
<text x="600" y="2400">AND_7</text><text x="200" y="2600">A_7</text>
<text x="650" y="2600">OR_7</text><text x="300" y="2800">O_7</text>
<text x="700" y="2800">AND_8</text><text x="400" y="3000">A_8</text>
<text x="750" y="3000">OR_8</text><text x="500" y="3200">O_8</text>
<text x="800" y="3200">AND_9</text><text x="600" y="3400">A_9</text>
<text x="850" y="3400">OR_9</text><text x="700" y="3600">O_9</text>
<text x="900" y="3600">AND_10</text><text x="800" y="3800">A_10</text>
<text x="950" y="3800">OR_10</text><text x="900" y="4000">O_10</text>
<text x="1000" y="4000">L</text>
</svg>