<?xml version="1.0" encoding="UTF-8"?>
<svg viewBox="-50 -50 2620 4510" xmlns="http://www.w3.org/2000/svg">
<style>
circle, path, polygon, rect {
  fill: lightyellow;
}
circle, path, polygon, polyline, rect {
  stroke: black;
  stroke-width: 1.3;
}
polyline {
  fill: none;
}
text {
  dominant-baseline: middle;
  font-family: Cousine, "Courier New", monospace;
  font-size: 10px;
  text-anchor: middle;
}
</style>
<polyline points="1260,8 1260,147"/>
<polyline points="1248,147 1248,199 60,199 60,252"/>
<polyline points="1272,147 1272,199 1320,199 1320,252"/>
<rect x="1206" y="8" width="108" height="69"/>
<text x="1260" y="42" style="font-size: 5.7px">
<tspan x="1260" dy="-3.5em">And this be the AND gate of</tspan>
<tspan x="1260" dy="1em">level 1. Its label shall be</tspan>
<tspan x="1260" dy="1em">exceeding long, that the</tspan>
<tspan x="1260" dy="1em">capabilities of SFTA to</tspan>
<tspan x="1260" dy="1em">properly wrap and size a</tspan>
<tspan x="1260" dy="1em">long label might be tested,</tspan>
<tspan x="1260" dy="1em">and be proved functional and</tspan>
<tspan x="1260" dy="1em">not unpleasing.</tspan>
</text>
<rect x="1206" y="80" width="108" height="21"/>
<text x="1260" y="90">AND_1</text>
<path d="M1224,181 L1296,181 L1296,141 C1296,99 1224,99 1224,141 L1224,181 "/>
<rect x="1206" y="134" width="108" height="27"/>
<text x="1260" y="147">Q ≤ 0.01111</text>
<polyline points="60,218 60,357"/>

<rect x="6" y="218" width="108" height="69"/>
<text x="60" y="252" style="font-size: 10px">

</text>
<rect x="6" y="290" width="108" height="21"/>
<text x="60" y="300">A_1</text>
<circle cx="60" cy="357" r="42"/>
<rect x="6" y="344" width="108" height="27"/>
<text x="60" y="357">Q = 0.1</text>
<polyline points="1320,218 1320,357"/>
<polyline points="1308,357 1308,409 180,409 180,462"/>
<polyline points="1332,357 1332,409 1380,409 1380,462"/>
<rect x="1266" y="218" width="108" height="69"/>
<text x="1320" y="252" style="font-size: 5.7px">
<tspan x="1320" dy="-3.5em">And this be the OR gate of</tspan>
<tspan x="1320" dy="1em">level 1. Its label shall be</tspan>
<tspan x="1320" dy="1em">exceeding long, that the</tspan>
<tspan x="1320" dy="1em">capabilities of SFTA to</tspan>
<tspan x="1320" dy="1em">properly wrap and size a</tspan>
<tspan x="1320" dy="1em">long label might be tested,</tspan>
<tspan x="1320" dy="1em">and be proved functional and</tspan>
<tspan x="1320" dy="1em">not unpleasing.</tspan>
</text>
<rect x="1266" y="290" width="108" height="21"/>
<text x="1320" y="300">OR_1</text>
<path d="M1320,319 C1314,321 1282,335 1282,367 L1282,395 Q1320,368 1358,395 L1358,367 C1358,335 1326,321 1320,319"/>
<rect x="1266" y="344" width="108" height="27"/>
<text x="1320" y="357">Q ≤ 0.1111</text>
<polyline points="180,428 180,567"/>

<rect x="126" y="428" width="108" height="69"/>
<text x="180" y="462" style="font-size: 10px">

</text>
<rect x="126" y="500" width="108" height="21"/>
<text x="180" y="510">O_1</text>
<circle cx="180" cy="567" r="42"/>
<rect x="126" y="554" width="108" height="27"/>
<text x="180" y="567">Q = 0.1</text>
<polyline points="1380,428 1380,567"/>
<polyline points="1368,567 1368,619 300,619 300,672"/>
<polyline points="1392,567 1392,619 1440,619 1440,672"/>
<rect x="1326" y="428" width="108" height="69"/>
<text x="1380" y="462" style="font-size: 5.7px">
<tspan x="1380" dy="-3.5em">And this be the AND gate of</tspan>
<tspan x="1380" dy="1em">level 2. Its label shall be</tspan>
<tspan x="1380" dy="1em">exceeding long, that the</tspan>
<tspan x="1380" dy="1em">capabilities of SFTA to</tspan>
<tspan x="1380" dy="1em">properly wrap and size a</tspan>
<tspan x="1380" dy="1em">long label might be tested,</tspan>
<tspan x="1380" dy="1em">and be proved functional and</tspan>
<tspan x="1380" dy="1em">not unpleasing.</tspan>
</text>
<rect x="1326" y="500" width="108" height="21"/>
<text x="1380" y="510">AND_2</text>
<path d="M1344,601 L1416,601 L1416,561 C1416,519 1344,519 1344,561 L1344,601 "/>
<rect x="1326" y="554" width="108" height="27"/>
<text x="1380" y="567">Q ≤ 0.01111</text>
<polyline points="300,638 300,777"/>

<rect x="246" y="638" width="108" height="69"/>
<text x="300" y="672" style="font-size: 10px">

</text>
<rect x="246" y="710" width="108" height="21"/>
<text x="300" y="720">A_2</text>
<circle cx="300" cy="777" r="42"/>
<rect x="246" y="764" width="108" height="27"/>
<text x="300" y="777">Q = 0.1</text>
<polyline points="1440,638 1440,777"/>
<polyline points="1428,777 1428,829 420,829 420,882"/>
<polyline points="1452,777 1452,829 1500,829 1500,882"/>
<rect x="1386" y="638" width="108" height="69"/>
<text x="1440" y="672" style="font-size: 5.7px">
<tspan x="1440" dy="-3.5em">And this be the OR gate of</tspan>
<tspan x="1440" dy="1em">level 2. Its label shall be</tspan>
<tspan x="1440" dy="1em">exceeding long, that the</tspan>
<tspan x="1440" dy="1em">capabilities of SFTA to</tspan>
<tspan x="1440" dy="1em">properly wrap and size a</tspan>
<tspan x="1440" dy="1em">long label might be tested,</tspan>
<tspan x="1440" dy="1em">and be proved functional and</tspan>
<tspan x="1440" dy="1em">not unpleasing.</tspan>
</text>
<rect x="1386" y="710" width="108" height="21"/>
<text x="1440" y="720">OR_2</text>
<path d="M1440,739 C1434,741 1402,755 1402,787 L1402,815 Q1440,788 1478,815 L1478,787 C1478,755 1446,741 1440,739"/>
<rect x="1386" y="764" width="108" height="27"/>
<text x="1440" y="777">Q ≤ 0.1111</text>
<polyline points="420,848 420,987"/>

<rect x="366" y="848" width="108" height="69"/>
<text x="420" y="882" style="font-size: 10px">

</text>
<rect x="366" y="920" width="108" height="21"/>
<text x="420" y="930">O_2</text>
<circle cx="420" cy="987" r="42"/>
<rect x="366" y="974" width="108" height="27"/>
<text x="420" y="987">Q = 0.1</text>
<polyline points="1500,848 1500,987"/>
<polyline points="1488,987 1488,1039 540,1039 540,1092"/>
<polyline points="1512,987 1512,1039 1560,1039 1560,1092"/>
<rect x="1446" y="848" width="108" height="69"/>
<text x="1500" y="882" style="font-size: 5.7px">
<tspan x="1500" dy="-3.5em">And this be the AND gate of</tspan>
<tspan x="1500" dy="1em">level 3. Its label shall be</tspan>
<tspan x="1500" dy="1em">exceeding long, that the</tspan>
<tspan x="1500" dy="1em">capabilities of SFTA to</tspan>
<tspan x="1500" dy="1em">properly wrap and size a</tspan>
<tspan x="1500" dy="1em">long label might be tested,</tspan>
<tspan x="1500" dy="1em">and be proved functional and</tspan>
<tspan x="1500" dy="1em">not unpleasing.</tspan>
</text>
<rect x="1446" y="920" width="108" height="21"/>
<text x="1500" y="930">AND_3</text>
<path d="M1464,1021 L1536,1021 L1536,981 C1536,939 1464,939 1464,981 L1464,1021 "/>
<rect x="1446" y="974" width="108" height="27"/>
<text x="1500" y="987">Q ≤ 0.01111</text>
<polyline points="540,1058 540,1197"/>

<rect x="486" y="1058" width="108" height="69"/>
<text x="540" y="1092" style="font-size: 10px">

</text>
<rect x="486" y="1130" width="108" height="21"/>
<text x="540" y="1140">A_3</text>
<circle cx="540" cy="1197" r="42"/>
<rect x="486" y="1184" width="108" height="27"/>
<text x="540" y="1197">Q = 0.1</text>
<polyline points="1560,1058 1560,1197"/>
<polyline points="1548,1197 1548,1249 660,1249 660,1302"/>
<polyline points="1572,1197 1572,1249 1620,1249 1620,1302"/>
<rect x="1506" y="1058" width="108" height="69"/>
<text x="1560" y="1092" style="font-size: 5.7px">
<tspan x="1560" dy="-3.5em">And this be the OR gate of</tspan>
<tspan x="1560" dy="1em">level 3. Its label shall be</tspan>
<tspan x="1560" dy="1em">exceeding long, that the</tspan>
<tspan x="1560" dy="1em">capabilities of SFTA to</tspan>
<tspan x="1560" dy="1em">properly wrap and size a</tspan>
<tspan x="1560" dy="1em">long label might be tested,</tspan>
<tspan x="1560" dy="1em">and be proved functional and</tspan>
<tspan x="1560" dy="1em">not unpleasing.</tspan>
</text>
<rect x="1506" y="1130" width="108" height="21"/>
<text x="1560" y="1140">OR_3</text>
<path d="M1560,1159 C1554,1161 1522,1175 1522,1207 L1522,1235 Q1560,1208 1598,1235 L1598,1207 C1598,1175 1566,1161 1560,1159"/>
<rect x="1506" y="1184" width="108" height="27"/>
<text x="1560" y="1197">Q ≤ 0.1111</text>
<polyline points="660,1268 660,1407"/>

<rect x="606" y="1268" width="108" height="69"/>
<text x="660" y="1302" style="font-size: 10px">

</text>
<rect x="606" y="1340" width="108" height="21"/>
<text x="660" y="1350">O_3</text>
<circle cx="660" cy="1407" r="42"/>
<rect x="606" y="1394" width="108" height="27"/>
<text x="660" y="1407">Q = 0.1</text>
<polyline points="1620,1268 1620,1407"/>
<polyline points="1608,1407 1608,1459 780,1459 780,1512"/>
<polyline points="1632,1407 1632,1459 1680,1459 1680,1512"/>
<rect x="1566" y="1268" width="108" height="69"/>
<text x="1620" y="1302" style="font-size: 5.7px">
<tspan x="1620" dy="-3.5em">And this be the AND gate of</tspan>
<tspan x="1620" dy="1em">level 4. Its label shall be</tspan>
<tspan x="1620" dy="1em">exceeding long, that the</tspan>
<tspan x="1620" dy="1em">capabilities of SFTA to</tspan>
<tspan x="1620" dy="1em">properly wrap and size a</tspan>
<tspan x="1620" dy="1em">long label might be tested,</tspan>
<tspan x="1620" dy="1em">and be proved functional and</tspan>
<tspan x="1620" dy="1em">not unpleasing.</tspan>
</text>
<rect x="1566" y="1340" width="108" height="21"/>
<text x="1620" y="1350">AND_4</text>
<path d="M1584,1441 L1656,1441 L1656,1401 C1656,1359 1584,1359 1584,1401 L1584,1441 "/>
<rect x="1566" y="1394" width="108" height="27"/>
<text x="1620" y="1407">Q ≤ 0.01111</text>
<polyline points="780,1478 780,1617"/>

<rect x="726" y="1478" width="108" height="69"/>
<text x="780" y="1512" style="font-size: 10px">

</text>
<rect x="726" y="1550" width="108" height="21"/>
<text x="780" y="1560">A_4</text>
<circle cx="780" cy="1617" r="42"/>
<rect x="726" y="1604" width="108" height="27"/>
<text x="780" y="1617">Q = 0.1</text>
<polyline points="1680,1478 1680,1617"/>
<polyline points="1668,1617 1668,1669 900,1669 900,1722"/>
<polyline points="1692,1617 1692,1669 1740,1669 1740,1722"/>
<rect x="1626" y="1478" width="108" height="69"/>
<text x="1680" y="1512" style="font-size: 5.7px">
<tspan x="1680" dy="-3.5em">And this be the OR gate of</tspan>
<tspan x="1680" dy="1em">level 4. Its label shall be</tspan>
<tspan x="1680" dy="1em">exceeding long, that the</tspan>
<tspan x="1680" dy="1em">capabilities of SFTA to</tspan>
<tspan x="1680" dy="1em">properly wrap and size a</tspan>
<tspan x="1680" dy="1em">long label might be tested,</tspan>
<tspan x="1680" dy="1em">and be proved functional and</tspan>
<tspan x="1680" dy="1em">not unpleasing.</tspan>
</text>
<rect x="1626" y="1550" width="108" height="21"/>
<text x="1680" y="1560">OR_4</text>
<path d="M1680,1579 C1674,1581 1642,1595 1642,1627 L1642,1655 Q1680,1628 1718,1655 L1718,1627 C1718,1595 1686,1581 1680,1579"/>
<rect x="1626" y="1604" width="108" height="27"/>
<text x="1680" y="1617">Q ≤ 0.1111</text>
<polyline points="900,1688 900,1827"/>

<rect x="846" y="1688" width="108" height="69"/>
<text x="900" y="1722" style="font-size: 10px">

</text>
<rect x="846" y="1760" width="108" height="21"/>
<text x="900" y="1770">O_4</text>
<circle cx="900" cy="1827" r="42"/>
<rect x="846" y="1814" width="108" height="27"/>
<text x="900" y="1827">Q = 0.1</text>
<polyline points="1740,1688 1740,1827"/>
<polyline points="1728,1827 1728,1879 1020,1879 1020,1932"/>
<polyline points="1752,1827 1752,1879 1800,1879 1800,1932"/>
<rect x="1686" y="1688" width="108" height="69"/>
<text x="1740" y="1722" style="font-size: 5.7px">
<tspan x="1740" dy="-3.5em">And this be the AND gate of</tspan>
<tspan x="1740" dy="1em">level 5. Its label shall be</tspan>
<tspan x="1740" dy="1em">exceeding long, that the</tspan>
<tspan x="1740" dy="1em">capabilities of SFTA to</tspan>
<tspan x="1740" dy="1em">properly wrap and size a</tspan>
<tspan x="1740" dy="1em">long label might be tested,</tspan>
<tspan x="1740" dy="1em">and be proved functional and</tspan>
<tspan x="1740" dy="1em">not unpleasing.</tspan>
</text>
<rect x="1686" y="1760" width="108" height="21"/>
<text x="1740" y="1770">AND_5</text>
<path d="M1704,1861 L1776,1861 L1776,1821 C1776,1779 1704,1779 1704,1821 L1704,1861 "/>
<rect x="1686" y="1814" width="108" height="27"/>
<text x="1740" y="1827">Q ≤ 0.01111</text>
<polyline points="1020,1898 1020,2037"/>

<rect x="966" y="1898" width="108" height="69"/>
<text x="1020" y="1932" style="font-size: 10px">

</text>
<rect x="966" y="1970" width="108" height="21"/>
<text x="1020" y="1980">A_5</text>
<circle cx="1020" cy="2037" r="42"/>
<rect x="966" y="2024" width="108" height="27"/>
<text x="1020" y="2037">Q = 0.1</text>
<polyline points="1800,1898 1800,2037"/>
<polyline points="1788,2037 1788,2089 1140,2089 1140,2142"/>
<polyline points="1812,2037 1812,2089 1860,2089 1860,2142"/>
<rect x="1746" y="1898" width="108" height="69"/>
<text x="1800" y="1932" style="font-size: 5.7px">
<tspan x="1800" dy="-3.5em">And this be the OR gate of</tspan>
<tspan x="1800" dy="1em">level 5. Its label shall be</tspan>
<tspan x="1800" dy="1em">exceeding long, that the</tspan>
<tspan x="1800" dy="1em">capabilities of SFTA to</tspan>
<tspan x="1800" dy="1em">properly wrap and size a</tspan>
<tspan x="1800" dy="1em">long label might be tested,</tspan>
<tspan x="1800" dy="1em">and be proved functional and</tspan>
<tspan x="1800" dy="1em">not unpleasing.</tspan>
</text>
<rect x="1746" y="1970" width="108" height="21"/>
<text x="1800" y="1980">OR_5</text>
<path d="M1800,1999 C1794,2001 1762,2015 1762,2047 L1762,2075 Q1800,2048 1838,2075 L1838,2047 C1838,2015 1806,2001 1800,1999"/>
<rect x="1746" y="2024" width="108" height="27"/>
<text x="1800" y="2037">Q ≤ 0.1111</text>
<polyline points="1140,2108 1140,2247"/>

<rect x="1086" y="2108" width="108" height="69"/>
<text x="1140" y="2142" style="font-size: 10px">

</text>
<rect x="1086" y="2180" width="108" height="21"/>
<text x="1140" y="2190">O_5</text>
<circle cx="1140" cy="2247" r="42"/>
<rect x="1086" y="2234" width="108" height="27"/>
<text x="1140" y="2247">Q = 0.1</text>
<polyline points="1860,2108 1860,2247"/>
<polyline points="1848,2247 1848,2299 1260,2299 1260,2352"/>
<polyline points="1872,2247 1872,2299 1920,2299 1920,2352"/>
<rect x="1806" y="2108" width="108" height="69"/>
<text x="1860" y="2142" style="font-size: 5.7px">
<tspan x="1860" dy="-3.5em">And this be the AND gate of</tspan>
<tspan x="1860" dy="1em">level 6. Its label shall be</tspan>
<tspan x="1860" dy="1em">exceeding long, that the</tspan>
<tspan x="1860" dy="1em">capabilities of SFTA to</tspan>
<tspan x="1860" dy="1em">properly wrap and size a</tspan>
<tspan x="1860" dy="1em">long label might be tested,</tspan>
<tspan x="1860" dy="1em">and be proved functional and</tspan>
<tspan x="1860" dy="1em">not unpleasing.</tspan>
</text>
<rect x="1806" y="2180" width="108" height="21"/>
<text x="1860" y="2190">AND_6</text>
<path d="M1824,2281 L1896,2281 L1896,2241 C1896,2199 1824,2199 1824,2241 L1824,2281 "/>
<rect x="1806" y="2234" width="108" height="27"/>
<text x="1860" y="2247">Q ≤ 0.01111</text>
<polyline points="1260,2318 1260,2457"/>

<rect x="1206" y="2318" width="108" height="69"/>
<text x="1260" y="2352" style="font-size: 10px">

</text>
<rect x="1206" y="2390" width="108" height="21"/>
<text x="1260" y="2400">A_6</text>
<circle cx="1260" cy="2457" r="42"/>
<rect x="1206" y="2444" width="108" height="27"/>
<text x="1260" y="2457">Q = 0.1</text>
<polyline points="1920,2318 1920,2457"/>
<polyline points="1908,2457 1908,2509 1380,2509 1380,2562"/>
<polyline points="1932,2457 1932,2509 1980,2509 1980,2562"/>
<rect x="1866" y="2318" width="108" height="69"/>
<text x="1920" y="2352" style="font-size: 5.7px">
<tspan x="1920" dy="-3.5em">And this be the OR gate of</tspan>
<tspan x="1920" dy="1em">level 6. Its label shall be</tspan>
<tspan x="1920" dy="1em">exceeding long, that the</tspan>
<tspan x="1920" dy="1em">capabilities of SFTA to</tspan>
<tspan x="1920" dy="1em">properly wrap and size a</tspan>
<tspan x="1920" dy="1em">long label might be tested,</tspan>
<tspan x="1920" dy="1em">and be proved functional and</tspan>
<tspan x="1920" dy="1em">not unpleasing.</tspan>
</text>
<rect x="1866" y="2390" width="108" height="21"/>
<text x="1920" y="2400">OR_6</text>
<path d="M1920,2419 C1914,2421 1882,2435 1882,2467 L1882,2495 Q1920,2468 1958,2495 L1958,2467 C1958,2435 1926,2421 1920,2419"/>
<rect x="1866" y="2444" width="108" height="27"/>
<text x="1920" y="2457">Q ≤ 0.1111</text>
<polyline points="1380,2528 1380,2667"/>

<rect x="1326" y="2528" width="108" height="69"/>
<text x="1380" y="2562" style="font-size: 10px">

</text>
<rect x="1326" y="2600" width="108" height="21"/>
<text x="1380" y="2610">O_6</text>
<circle cx="1380" cy="2667" r="42"/>
<rect x="1326" y="2654" width="108" height="27"/>
<text x="1380" y="2667">Q = 0.1</text>
<polyline points="1980,2528 1980,2667"/>
<polyline points="1968,2667 1968,2719 1500,2719 1500,2772"/>
<polyline points="1992,2667 1992,2719 2040,2719 2040,2772"/>
<rect x="1926" y="2528" width="108" height="69"/>
<text x="1980" y="2562" style="font-size: 5.7px">
<tspan x="1980" dy="-3.5em">And this be the AND gate of</tspan>
<tspan x="1980" dy="1em">level 7. Its label shall be</tspan>
<tspan x="1980" dy="1em">exceeding long, that the</tspan>
<tspan x="1980" dy="1em">capabilities of SFTA to</tspan>
<tspan x="1980" dy="1em">properly wrap and size a</tspan>
<tspan x="1980" dy="1em">long label might be tested,</tspan>
<tspan x="1980" dy="1em">and be proved functional and</tspan>
<tspan x="1980" dy="1em">not unpleasing.</tspan>
</text>
<rect x="1926" y="2600" width="108" height="21"/>
<text x="1980" y="2610">AND_7</text>
<path d="M1944,2701 L2016,2701 L2016,2661 C2016,2619 1944,2619 1944,2661 L1944,2701 "/>
<rect x="1926" y="2654" width="108" height="27"/>
<text x="1980" y="2667">Q ≤ 0.01112</text>
<polyline points="1500,2738 1500,2877"/>

<rect x="1446" y="2738" width="108" height="69"/>
<text x="1500" y="2772" style="font-size: 10px">

</text>
<rect x="1446" y="2810" width="108" height="21"/>
<text x="1500" y="2820">A_7</text>
<circle cx="1500" cy="2877" r="42"/>
<rect x="1446" y="2864" width="108" height="27"/>
<text x="1500" y="2877">Q = 0.1</text>
<polyline points="2040,2738 2040,2877"/>
<polyline points="2028,2877 2028,2929 1620,2929 1620,2982"/>
<polyline points="2052,2877 2052,2929 2100,2929 2100,2982"/>
<rect x="1986" y="2738" width="108" height="69"/>
<text x="2040" y="2772" style="font-size: 5.7px">
<tspan x="2040" dy="-3.5em">And this be the OR gate of</tspan>
<tspan x="2040" dy="1em">level 7. Its label shall be</tspan>
<tspan x="2040" dy="1em">exceeding long, that the</tspan>
<tspan x="2040" dy="1em">capabilities of SFTA to</tspan>
<tspan x="2040" dy="1em">properly wrap and size a</tspan>
<tspan x="2040" dy="1em">long label might be tested,</tspan>
<tspan x="2040" dy="1em">and be proved functional and</tspan>
<tspan x="2040" dy="1em">not unpleasing.</tspan>
</text>
<rect x="1986" y="2810" width="108" height="21"/>
<text x="2040" y="2820">OR_7</text>
<path d="M2040,2839 C2034,2841 2002,2855 2002,2887 L2002,2915 Q2040,2888 2078,2915 L2078,2887 C2078,2855 2046,2841 2040,2839"/>
<rect x="1986" y="2864" width="108" height="27"/>
<text x="2040" y="2877">Q ≤ 0.1112</text>
<polyline points="1620,2948 1620,3087"/>

<rect x="1566" y="2948" width="108" height="69"/>
<text x="1620" y="2982" style="font-size: 10px">

</text>
<rect x="1566" y="3020" width="108" height="21"/>
<text x="1620" y="3030">O_7</text>
<circle cx="1620" cy="3087" r="42"/>
<rect x="1566" y="3074" width="108" height="27"/>
<text x="1620" y="3087">Q = 0.1</text>
<polyline points="2100,2948 2100,3087"/>
<polyline points="2088,3087 2088,3139 1740,3139 1740,3192"/>
<polyline points="2112,3087 2112,3139 2160,3139 2160,3192"/>
<rect x="2046" y="2948" width="108" height="69"/>
<text x="2100" y="2982" style="font-size: 5.7px">
<tspan x="2100" dy="-3.5em">And this be the AND gate of</tspan>
<tspan x="2100" dy="1em">level 8. Its label shall be</tspan>
<tspan x="2100" dy="1em">exceeding long, that the</tspan>
<tspan x="2100" dy="1em">capabilities of SFTA to</tspan>
<tspan x="2100" dy="1em">properly wrap and size a</tspan>
<tspan x="2100" dy="1em">long label might be tested,</tspan>
<tspan x="2100" dy="1em">and be proved functional and</tspan>
<tspan x="2100" dy="1em">not unpleasing.</tspan>
</text>
<rect x="2046" y="3020" width="108" height="21"/>
<text x="2100" y="3030">AND_8</text>
<path d="M2064,3121 L2136,3121 L2136,3081 C2136,3039 2064,3039 2064,3081 L2064,3121 "/>
<rect x="2046" y="3074" width="108" height="27"/>
<text x="2100" y="3087">Q ≤ 0.0112</text>
<polyline points="1740,3158 1740,3297"/>

<rect x="1686" y="3158" width="108" height="69"/>
<text x="1740" y="3192" style="font-size: 10px">

</text>
<rect x="1686" y="3230" width="108" height="21"/>
<text x="1740" y="3240">A_8</text>
<circle cx="1740" cy="3297" r="42"/>
<rect x="1686" y="3284" width="108" height="27"/>
<text x="1740" y="3297">Q = 0.1</text>
<polyline points="2160,3158 2160,3297"/>
<polyline points="2148,3297 2148,3349 1860,3349 1860,3402"/>
<polyline points="2172,3297 2172,3349 2220,3349 2220,3402"/>
<rect x="2106" y="3158" width="108" height="69"/>
<text x="2160" y="3192" style="font-size: 5.7px">
<tspan x="2160" dy="-3.5em">And this be the OR gate of</tspan>
<tspan x="2160" dy="1em">level 8. Its label shall be</tspan>
<tspan x="2160" dy="1em">exceeding long, that the</tspan>
<tspan x="2160" dy="1em">capabilities of SFTA to</tspan>
<tspan x="2160" dy="1em">properly wrap and size a</tspan>
<tspan x="2160" dy="1em">long label might be tested,</tspan>
<tspan x="2160" dy="1em">and be proved functional and</tspan>
<tspan x="2160" dy="1em">not unpleasing.</tspan>
</text>
<rect x="2106" y="3230" width="108" height="21"/>
<text x="2160" y="3240">OR_8</text>
<path d="M2160,3259 C2154,3261 2122,3275 2122,3307 L2122,3335 Q2160,3308 2198,3335 L2198,3307 C2198,3275 2166,3261 2160,3259"/>
<rect x="2106" y="3284" width="108" height="27"/>
<text x="2160" y="3297">Q ≤ 0.112</text>
<polyline points="1860,3368 1860,3507"/>

<rect x="1806" y="3368" width="108" height="69"/>
<text x="1860" y="3402" style="font-size: 10px">

</text>
<rect x="1806" y="3440" width="108" height="21"/>
<text x="1860" y="3450">O_8</text>
<circle cx="1860" cy="3507" r="42"/>
<rect x="1806" y="3494" width="108" height="27"/>
<text x="1860" y="3507">Q = 0.1</text>
<polyline points="2220,3368 2220,3507"/>
<polyline points="2208,3507 2208,3559 1980,3559 1980,3612"/>
<polyline points="2232,3507 2232,3559 2280,3559 2280,3612"/>
<rect x="2166" y="3368" width="108" height="69"/>
<text x="2220" y="3402" style="font-size: 5.7px">
<tspan x="2220" dy="-3.5em">And this be the AND gate of</tspan>
<tspan x="2220" dy="1em">level 9. Its label shall be</tspan>
<tspan x="2220" dy="1em">exceeding long, that the</tspan>
<tspan x="2220" dy="1em">capabilities of SFTA to</tspan>
<tspan x="2220" dy="1em">properly wrap and size a</tspan>
<tspan x="2220" dy="1em">long label might be tested,</tspan>
<tspan x="2220" dy="1em">and be proved functional and</tspan>
<tspan x="2220" dy="1em">not unpleasing.</tspan>
</text>
<rect x="2166" y="3440" width="108" height="21"/>
<text x="2220" y="3450">AND_9</text>
<path d="M2184,3541 L2256,3541 L2256,3501 C2256,3459 2184,3459 2184,3501 L2184,3541 "/>
<rect x="2166" y="3494" width="108" height="27"/>
<text x="2220" y="3507">Q ≤ 0.012</text>
<polyline points="1980,3578 1980,3717"/>

<rect x="1926" y="3578" width="108" height="69"/>
<text x="1980" y="3612" style="font-size: 10px">

</text>
<rect x="1926" y="3650" width="108" height="21"/>
<text x="1980" y="3660">A_9</text>
<circle cx="1980" cy="3717" r="42"/>
<rect x="1926" y="3704" width="108" height="27"/>
<text x="1980" y="3717">Q = 0.1</text>
<polyline points="2280,3578 2280,3717"/>
<polyline points="2268,3717 2268,3769 2100,3769 2100,3822"/>
<polyline points="2292,3717 2292,3769 2340,3769 2340,3822"/>
<rect x="2226" y="3578" width="108" height="69"/>
<text x="2280" y="3612" style="font-size: 5.7px">
<tspan x="2280" dy="-3.5em">And this be the OR gate of</tspan>
<tspan x="2280" dy="1em">level 9. Its label shall be</tspan>
<tspan x="2280" dy="1em">exceeding long, that the</tspan>
<tspan x="2280" dy="1em">capabilities of SFTA to</tspan>
<tspan x="2280" dy="1em">properly wrap and size a</tspan>
<tspan x="2280" dy="1em">long label might be tested,</tspan>
<tspan x="2280" dy="1em">and be proved functional and</tspan>
<tspan x="2280" dy="1em">not unpleasing.</tspan>
</text>
<rect x="2226" y="3650" width="108" height="21"/>
<text x="2280" y="3660">OR_9</text>
<path d="M2280,3679 C2274,3681 2242,3695 2242,3727 L2242,3755 Q2280,3728 2318,3755 L2318,3727 C2318,3695 2286,3681 2280,3679"/>
<rect x="2226" y="3704" width="108" height="27"/>
<text x="2280" y="3717">Q ≤ 0.12</text>
<polyline points="2100,3788 2100,3927"/>

<rect x="2046" y="3788" width="108" height="69"/>
<text x="2100" y="3822" style="font-size: 10px">

</text>
<rect x="2046" y="3860" width="108" height="21"/>
<text x="2100" y="3870">O_9</text>
<circle cx="2100" cy="3927" r="42"/>
<rect x="2046" y="3914" width="108" height="27"/>
<text x="2100" y="3927">Q = 0.1</text>
<polyline points="2340,3788 2340,3927"/>
<polyline points="2328,3927 2328,3979 2220,3979 2220,4032"/>
<polyline points="2352,3927 2352,3979 2400,3979 2400,4032"/>
<rect x="2286" y="3788" width="108" height="69"/>
<text x="2340" y="3822" style="font-size: 5.7px">
<tspan x="2340" dy="-3.5em">And this be the AND gate of</tspan>
<tspan x="2340" dy="1em">level 10. Its label shall be</tspan>
<tspan x="2340" dy="1em">exceeding long, that the</tspan>
<tspan x="2340" dy="1em">capabilities of SFTA to</tspan>
<tspan x="2340" dy="1em">properly wrap and size a</tspan>
<tspan x="2340" dy="1em">long label might be tested,</tspan>
<tspan x="2340" dy="1em">and be proved functional and</tspan>
<tspan x="2340" dy="1em">not unpleasing.</tspan>
</text>
<rect x="2286" y="3860" width="108" height="21"/>
<text x="2340" y="3870">AND_10</text>
<path d="M2304,3961 L2376,3961 L2376,3921 C2376,3879 2304,3879 2304,3921 L2304,3961 "/>
<rect x="2286" y="3914" width="108" height="27"/>
<text x="2340" y="3927">Q ≤ 0.02</text>
<polyline points="2220,3998 2220,4137"/>

<rect x="2166" y="3998" width="108" height="69"/>
<text x="2220" y="4032" style="font-size: 10px">

</text>
<rect x="2166" y="4070" width="108" height="21"/>
<text x="2220" y="4080">A_10</text>
<circle cx="2220" cy="4137" r="42"/>
<rect x="2166" y="4124" width="108" height="27"/>
<text x="2220" y="4137">Q = 0.1</text>
<polyline points="2400,3998 2400,4137"/>
<polyline points="2388,4137 2388,4189 2340,4189 2340,4242"/>
<polyline points="2412,4137 2412,4189 2460,4189 2460,4242"/>
<rect x="2346" y="3998" width="108" height="69"/>
<text x="2400" y="4032" style="font-size: 5.7px">
<tspan x="2400" dy="-3.5em">And this be the OR gate of</tspan>
<tspan x="2400" dy="1em">level 10. Its label shall be</tspan>
<tspan x="2400" dy="1em">exceeding long, that the</tspan>
<tspan x="2400" dy="1em">capabilities of SFTA to</tspan>
<tspan x="2400" dy="1em">properly wrap and size a</tspan>
<tspan x="2400" dy="1em">long label might be tested,</tspan>
<tspan x="2400" dy="1em">and be proved functional and</tspan>
<tspan x="2400" dy="1em">not unpleasing.</tspan>
</text>
<rect x="2346" y="4070" width="108" height="21"/>
<text x="2400" y="4080">OR_10</text>
<path d="M2400,4099 C2394,4101 2362,4115 2362,4147 L2362,4175 Q2400,4148 2438,4175 L2438,4147 C2438,4115 2406,4101 2400,4099"/>
<rect x="2346" y="4124" width="108" height="27"/>
<text x="2400" y="4137">Q ≤ 0.2</text>
<polyline points="2340,4208 2340,4347"/>

<rect x="2286" y="4208" width="108" height="69"/>
<text x="2340" y="4242" style="font-size: 10px">

</text>
<rect x="2286" y="4280" width="108" height="21"/>
<text x="2340" y="4290">O_10</text>
<circle cx="2340" cy="4347" r="42"/>
<rect x="2286" y="4334" width="108" height="27"/>
<text x="2340" y="4347">Q = 0.1</text>
<polyline points="2460,4208 2460,4347"/>

<rect x="2406" y="4208" width="108" height="69"/>
<text x="2460" y="4242" style="font-size: 10px">

</text>
<rect x="2406" y="4280" width="108" height="21"/>
<text x="2460" y="4290">L</text>
<circle cx="2460" cy="4347" r="42"/>
<rect x="2406" y="4334" width="108" height="27"/>
<text x="2460" y="4347">Q = 0.1</text>
</svg>
