<?xml version="1.0" encoding="UTF-8"?>
<svg viewBox="-100 -200 400 800" xmlns="http://www.w3.org/2000/svg">
<style>
circle, path, polygon, rect {
  fill: lightyellow;
  stroke: black;
  stroke-width: 1.3;
}
text {
  dominant-baseline: middle;
  font-family: Arial, sans-serif;
  font-size: 12px;
  text-anchor: middle;
}
</style>
<rect x="-45" y="-93" width="90" height="66"/>
<text x="0" y="-60">System fails</text>
<rect x="-45" y="-24" width="90" height="20"/>
<text x="0" y="-14">SYS</text>
<path d="M0,4 C-5,6 -32,20 -32,50 L-32,76 Q0,50 32,76 L32,50 C32,20 5,6 0,4"/>
<rect x="-145" y="107" width="90" height="66"/>
<text x="-100" y="140">Component A fails</text>
<rect x="-145" y="176" width="90" height="20"/>
<text x="-100" y="186">A</text>
<circle cx="-100" cy="240" r="35"/>
<rect x="5" y="107" width="90" height="66"/>
<text x="50" y="140">Subsystem fails</text>
<rect x="5" y="176" width="90" height="20"/>
<text x="50" y="186">SUB</text>
<path d="M20,272 L80,272 L80,234 C80,194 20,194 20,234 L20,272 "/>
<rect x="-45" y="307" width="90" height="66"/>
<text x="0" y="340">Component B fails</text>
<rect x="-45" y="376" width="90" height="20"/>
<text x="0" y="386">B</text>
<circle cx="0" cy="440" r="35"/>
<rect x="55" y="307" width="90" height="66"/>
<text x="100" y="340">Component C fails</text>
<rect x="55" y="376" width="90" height="20"/>
<text x="100" y="386">C</text>
<circle cx="100" cy="440" r="35"/>
</svg>
