<?xml version="1.0" encoding="UTF-8"?>
<svg viewBox="-10 -10 380 650" xmlns="http://www.w3.org/2000/svg">
<style>
circle, path, polygon, rect {
  fill: lightyellow;
}
circle, path, polygon, polyline, rect {
  stroke: black;
  stroke-width: 1.3;
}
polyline {
  fill: none;
}
text {
  dominant-baseline: middle;
  font-family: Cousine, "Courier New", monospace;
  font-size: 10px;
  text-anchor: middle;
}
</style>
<polyline points="180,8 180,147"/>
<polyline points="170,147 170,199 60,199 60,252"/>
<polyline points="190,147 190,199 240,199 240,252"/>
<rect x="126" y="8" width="108" height="69"/>
<text x="180" y="42" style="font-size: 10px">System fails</text>
<rect x="126" y="80" width="108" height="21"/>
<text x="180" y="90">SYS</text>
<path d="M180,109 C174,111 148,125 148,157 L148,185 Q180,158 212,185 L212,157 C212,125 186,111 180,109"/>
<rect x="126" y="134" width="108" height="27"/>
<text x="180" y="147">Q ≤ 0.07</text>
<polyline points="60,218 60,357"/>

<rect x="6" y="218" width="108" height="69"/>
<text x="60" y="247" style="font-size: 10px">Component A</text>
<text x="60" y="257" style="font-size: 10px">fails</text>
<rect x="6" y="290" width="108" height="21"/>
<text x="60" y="300">A</text>
<circle cx="60" cy="357" r="38"/>
<rect x="6" y="344" width="108" height="27"/>
<text x="60" y="357">Q = 0.01</text>
<polyline points="240,218 240,357"/>
<polyline points="230,357 230,409 180,409 180,462"/>
<polyline points="250,357 250,409 300,409 300,462"/>
<rect x="186" y="218" width="108" height="69"/>
<text x="240" y="252" style="font-size: 10px">Subsystem fails</text>
<rect x="186" y="290" width="108" height="21"/>
<text x="240" y="300">SUB</text>
<path d="M208,391 L272,391 L272,351 C272,309 208,309 208,351 L208,391 "/>
<rect x="186" y="344" width="108" height="27"/>
<text x="240" y="357">Q = 0.06</text>
<polyline points="180,428 180,567"/>

<rect x="126" y="428" width="108" height="69"/>
<text x="180" y="457" style="font-size: 10px">Component B</text>
<text x="180" y="467" style="font-size: 10px">fails</text>
<rect x="126" y="500" width="108" height="21"/>
<text x="180" y="510">B</text>
<circle cx="180" cy="567" r="38"/>
<rect x="126" y="554" width="108" height="27"/>
<text x="180" y="567">Q = 0.2</text>
<polyline points="300,428 300,567"/>

<rect x="246" y="428" width="108" height="69"/>
<text x="300" y="457" style="font-size: 10px">Component C</text>
<text x="300" y="467" style="font-size: 10px">fails</text>
<rect x="246" y="500" width="108" height="21"/>
<text x="300" y="510">C</text>
<circle cx="300" cy="567" r="38"/>
<rect x="246" y="554" width="108" height="27"/>
<text x="300" y="567">Q = 0.3</text>
</svg>
