<?xml version="1.0" encoding="UTF-8"?>
<svg viewBox="-50 -50 460 730" xmlns="http://www.w3.org/2000/svg">
<style>
circle, path, polygon, rect {
  fill: lightyellow;
}
circle, path, polygon, polyline, rect {
  stroke: black;
  stroke-width: 1.3;
}
polyline {
  fill: none;
}
text {
  dominant-baseline: middle;
  font-family: Cousine, "Courier New", monospace;
  font-size: 10px;
  text-anchor: middle;
}
</style>
<polyline points="180,8 180,147"/>
<polyline points="168,147 168,199 60,199 60,252"/>
<polyline points="192,147 192,199 240,199 240,252"/>
<rect x="126" y="8" width="108" height="69"/>
<text x="180" y="42" style="font-size: 10px">
<tspan x="180" dy="0em">System fails</tspan>
</text>
<rect x="126" y="80" width="108" height="21"/>
<text x="180" y="90">SYS</text>
<path d="M180,109 C174,111 142,125 142,157 L142,185 Q180,158 218,185 L218,157 C218,125 186,111 180,109"/>
<rect x="126" y="134" width="108" height="27"/>
<text x="180" y="147">Q ≤ 0.07</text>
<polyline points="60,218 60,357"/>

<rect x="6" y="218" width="108" height="69"/>
<text x="60" y="252" style="font-size: 10px">
<tspan x="60" dy="-0.5em">Component A</tspan>
<tspan x="60" dy="1em">fails</tspan>
</text>
<rect x="6" y="290" width="108" height="21"/>
<text x="60" y="300">A</text>
<circle cx="60" cy="357" r="42"/>
<rect x="6" y="344" width="108" height="27"/>
<text x="60" y="357">Q = 0.01</text>
<polyline points="240,218 240,357"/>
<polyline points="228,357 228,409 180,409 180,462"/>
<polyline points="252,357 252,409 300,409 300,462"/>
<rect x="186" y="218" width="108" height="69"/>
<text x="240" y="252" style="font-size: 10px">
<tspan x="240" dy="0em">Subsystem fails</tspan>
</text>
<rect x="186" y="290" width="108" height="21"/>
<text x="240" y="300">SUB</text>
<path d="M204,391 L276,391 L276,351 C276,309 204,309 204,351 L204,391 "/>
<rect x="186" y="344" width="108" height="27"/>
<text x="240" y="357">Q = 0.06</text>
<polyline points="180,428 180,567"/>

<rect x="126" y="428" width="108" height="69"/>
<text x="180" y="462" style="font-size: 10px">
<tspan x="180" dy="-0.5em">Component B</tspan>
<tspan x="180" dy="1em">fails</tspan>
</text>
<rect x="126" y="500" width="108" height="21"/>
<text x="180" y="510">B</text>
<circle cx="180" cy="567" r="42"/>
<rect x="126" y="554" width="108" height="27"/>
<text x="180" y="567">Q = 0.2</text>
<polyline points="300,428 300,567"/>

<rect x="246" y="428" width="108" height="69"/>
<text x="300" y="462" style="font-size: 10px">
<tspan x="300" dy="-0.5em">Component C</tspan>
<tspan x="300" dy="1em">fails</tspan>
</text>
<rect x="246" y="500" width="108" height="21"/>
<text x="300" y="510">C</text>
<circle cx="300" cy="567" r="42"/>
<rect x="246" y="554" width="108" height="27"/>
<text x="300" y="567">Q = 0.3</text>
</svg>
