<?xml version="1.0" encoding="UTF-8"?>
<svg viewBox="-50 -50 400 700" xmlns="http://www.w3.org/2000/svg">
<style>
circle, path, polygon, rect {
  fill: lightyellow;
}
circle, path, polygon, polyline, rect {
  stroke: black;
  stroke-width: 1.3;
}
polyline {
  fill: none;
}
text {
  dominant-baseline: middle;
  font-family: Arial, sans-serif;
  font-size: 10px;
  text-anchor: middle;
}
</style>
<polyline points="150,7 150,140"/>
<polyline points="140,140 140,190 50,190 50,240"/>
<polyline points="160,140 160,190 200,190 200,240"/>
<rect x="105" y="7" width="90" height="66"/>
<text x="150" y="40" style="font-size: 10px">
<tspan x="150" dy="0em">System fails</tspan>
</text>
<rect x="105" y="76" width="90" height="20"/>
<text x="150" y="86">SYS</text>
<path d="M150,104 C145,106 118,120 118,150 L118,176 Q150,150 182,176 L182,150 C182,120 155,106 150,104"/>
<rect x="105" y="127" width="90" height="26"/>
<text x="150" y="140">Q ≤ 0.07</text>
<polyline points="50,207 50,340"/>

<rect x="5" y="207" width="90" height="66"/>
<text x="50" y="240" style="font-size: 10px">
<tspan x="50" dy="-0.5em">Component A</tspan>
<tspan x="50" dy="1em">fails</tspan>
</text>
<rect x="5" y="276" width="90" height="20"/>
<text x="50" y="286">A</text>
<circle cx="50" cy="340" r="35"/>
<rect x="5" y="327" width="90" height="26"/>
<text x="50" y="340">Q = 0.01</text>
<polyline points="200,207 200,340"/>
<polyline points="190,340 190,390 150,390 150,440"/>
<polyline points="210,340 210,390 250,390 250,440"/>
<rect x="155" y="207" width="90" height="66"/>
<text x="200" y="240" style="font-size: 10px">
<tspan x="200" dy="0em">Subsystem fails</tspan>
</text>
<rect x="155" y="276" width="90" height="20"/>
<text x="200" y="286">SUB</text>
<path d="M170,372 L230,372 L230,334 C230,294 170,294 170,334 L170,372 "/>
<rect x="155" y="327" width="90" height="26"/>
<text x="200" y="340">Q = 0.06</text>
<polyline points="150,407 150,540"/>

<rect x="105" y="407" width="90" height="66"/>
<text x="150" y="440" style="font-size: 10px">
<tspan x="150" dy="-0.5em">Component B</tspan>
<tspan x="150" dy="1em">fails</tspan>
</text>
<rect x="105" y="476" width="90" height="20"/>
<text x="150" y="486">B</text>
<circle cx="150" cy="540" r="35"/>
<rect x="105" y="527" width="90" height="26"/>
<text x="150" y="540">Q = 0.2</text>
<polyline points="250,407 250,540"/>

<rect x="205" y="407" width="90" height="66"/>
<text x="250" y="440" style="font-size: 10px">
<tspan x="250" dy="-0.5em">Component C</tspan>
<tspan x="250" dy="1em">fails</tspan>
</text>
<rect x="205" y="476" width="90" height="20"/>
<text x="250" y="486">C</text>
<circle cx="250" cy="540" r="35"/>
<rect x="205" y="527" width="90" height="26"/>
<text x="250" y="540">Q = 0.3</text>
</svg>
