<?xml version="1.0" encoding="UTF-8"?>
<svg viewBox="-10 -10 380 650" xmlns="http://www.w3.org/2000/svg">
<style>
circle, path, polygon, rect {
  fill: lightyellow;
}
circle, path, polygon, polyline, rect {
  stroke: black;
  stroke-width: 1.3;
}
polyline {
  fill: none;
}
text {
  dominant-baseline: middle;
  font-family: Cousine, "Courier New", monospace;
  font-size: 10px;
  text-anchor: middle;
}
</style>
<polyline points="180,5 180,150"/>
<polyline points="170,150 170,200 60,200 60,250"/>
<polyline points="190,150 190,200 240,200 240,250"/>
<rect x="126" y="5" width="108" height="70"/>
<text x="180" y="40" style="font-size: 10px">System fails</text>
<rect x="126" y="80" width="108" height="24"/>
<text x="180" y="92">SYS</text>
<path d="M180,112 C174,114 147,125 147,160 L147,186 Q180,156 213,186 L213,160 C213,125 186,114 180,112"/>
<rect x="126" y="138" width="108" height="24"/>
<text x="180" y="150">Q ≤ 0.07</text>
<polyline points="60,215 60,360"/>

<rect x="6" y="215" width="108" height="70"/>
<text x="60" y="243.5" style="font-size: 10px">Component A</text>
<text x="60" y="256.5" style="font-size: 10px">fails</text>
<rect x="6" y="290" width="108" height="24"/>
<text x="60" y="302">A</text>
<circle cx="60" cy="360" r="38"/>
<rect x="6" y="348" width="108" height="24"/>
<text x="60" y="360">Q = 0.01</text>
<polyline points="240,215 240,360"/>
<polyline points="230,360 230,410 180,410 180,460"/>
<polyline points="250,360 250,410 300,410 300,460"/>
<rect x="186" y="215" width="108" height="70"/>
<text x="240" y="250" style="font-size: 10px">Subsystem fails</text>
<rect x="186" y="290" width="108" height="24"/>
<text x="240" y="302">SUB</text>
<path d="M208,394 L272,394 L272,354 C272,312 208,312 208,354 L208,394 "/>
<rect x="186" y="348" width="108" height="24"/>
<text x="240" y="360">Q = 0.06</text>
<polyline points="180,425 180,570"/>

<rect x="126" y="425" width="108" height="70"/>
<text x="180" y="453.5" style="font-size: 10px">Component B</text>
<text x="180" y="466.5" style="font-size: 10px">fails</text>
<rect x="126" y="500" width="108" height="24"/>
<text x="180" y="512">B</text>
<circle cx="180" cy="570" r="38"/>
<rect x="126" y="558" width="108" height="24"/>
<text x="180" y="570">Q = 0.2</text>
<polyline points="300,425 300,570"/>

<rect x="246" y="425" width="108" height="70"/>
<text x="300" y="453.5" style="font-size: 10px">Component C</text>
<text x="300" y="466.5" style="font-size: 10px">fails</text>
<rect x="246" y="500" width="108" height="24"/>
<text x="300" y="512">C</text>
<circle cx="300" cy="570" r="38"/>
<rect x="246" y="558" width="108" height="24"/>
<text x="300" y="570">Q = 0.3</text>
</svg>
