<?xml version="1.0" encoding="UTF-8"?>
<svg viewBox="-10 -10 860 860" xmlns="http://www.w3.org/2000/svg">
<style>
circle, path, polygon, rect {
  fill: lightyellow;
}
circle, path, polygon, polyline, rect {
  stroke: black;
  stroke-width: 1.3;
}
polyline {
  fill: none;
}
text {
  dominant-baseline: middle;
  font-family: Consolas, Cousine, "Courier New", monospace;
  font-size: 10px;
  text-anchor: middle;
}
</style>
<polyline points="420,5 420,150"/>
<polyline points="405,150 405,197 120,197 120,250"/>
<polyline points="420,150 420,203 360,203 360,250"/>
<polyline points="435,150 435,200 660,200 660,250"/>
<rect x="366" y="5" width="108" height="70"/>
<text x="420" y="33.5" style="font-size: 10px">Probability</text>
<text x="420" y="46.5" style="font-size: 10px">tests</text>
<rect x="366" y="80" width="108" height="24"/>
<text x="420" y="92">PT</text>
<path d="M420,112 C414,114 387,125 387,160 L387,186 Q420,156 453,186 L453,160 C453,125 426,114 420,112"/>
<rect x="366" y="138" width="108" height="24"/>
<text x="420" y="150">Q ≤ nan</text>
<polyline points="120,215 120,360"/>
<polyline points="110,360 110,410 60,410 60,460"/>
<polyline points="130,360 130,410 180,410 180,460"/>
<rect x="66" y="215" width="108" height="70"/>
<text x="120" y="243.5" style="font-size: 10px">AND probability</text>
<text x="120" y="256.5" style="font-size: 10px">test</text>
<rect x="66" y="290" width="108" height="24"/>
<text x="120" y="302">APT</text>
<path d="M88,394 L152,394 L152,354 C152,312 88,312 88,354 L88,394 "/>
<rect x="66" y="348" width="108" height="24"/>
<text x="120" y="360">Q = nan</text>
<polyline points="60,425 60,570"/>

<rect x="6" y="425" width="108" height="70"/>
<text x="60" y="453.5" style="font-size: 10px">Unknown</text>
<text x="60" y="466.5" style="font-size: 10px">probability</text>
<rect x="6" y="500" width="108" height="24"/>
<text x="60" y="512">PU</text>
<circle cx="60" cy="570" r="38"/>
<rect x="6" y="558" width="108" height="24"/>
<text x="60" y="570">Q = nan</text>
<polyline points="180,425 180,570"/>

<rect x="126" y="425" width="108" height="70"/>
<text x="180" y="460" style="font-size: 10px">Half probability</text>
<rect x="126" y="500" width="108" height="24"/>
<text x="180" y="512">PH</text>
<circle cx="180" cy="570" r="38"/>
<rect x="126" y="558" width="108" height="24"/>
<text x="180" y="570">Q = 0.5</text>
<polyline points="360,215 360,360"/>
<polyline points="350,360 350,410 300,410 300,460"/>
<polyline points="370,360 370,410 420,410 420,460"/>
<rect x="306" y="215" width="108" height="70"/>
<text x="360" y="243.5" style="font-size: 10px">OR probability</text>
<text x="360" y="256.5" style="font-size: 10px">test</text>
<rect x="306" y="290" width="108" height="24"/>
<text x="360" y="302">OPT</text>
<path d="M360,322 C354,324 327,335 327,370 L327,396 Q360,366 393,396 L393,370 C393,335 366,324 360,322"/>
<rect x="306" y="348" width="108" height="24"/>
<text x="360" y="360">Q ≤ nan</text>
<polyline points="300,425 300,570"/>

<rect x="246" y="425" width="108" height="70"/>
<text x="300" y="453.5" style="font-size: 10px">Unknown</text>
<text x="300" y="466.5" style="font-size: 10px">probability</text>
<rect x="246" y="500" width="108" height="24"/>
<text x="300" y="512">PU</text>
<circle cx="300" cy="570" r="38"/>
<rect x="246" y="558" width="108" height="24"/>
<text x="300" y="570">Q = nan</text>
<polyline points="420,425 420,570"/>

<rect x="366" y="425" width="108" height="70"/>
<text x="420" y="460" style="font-size: 10px">Half probability</text>
<rect x="366" y="500" width="108" height="24"/>
<text x="420" y="512">PH</text>
<circle cx="420" cy="570" r="38"/>
<rect x="366" y="558" width="108" height="24"/>
<text x="420" y="570">Q = 0.5</text>
<polyline points="660,215 660,360"/>
<polyline points="650,360 650,410 540,410 540,460"/>
<polyline points="670,360 670,410 720,410 720,460"/>
<rect x="606" y="215" width="108" height="70"/>
<text x="660" y="243.5" style="font-size: 10px">Irrelevant nan</text>
<text x="660" y="256.5" style="font-size: 10px">absorption test</text>
<rect x="606" y="290" width="108" height="24"/>
<text x="660" y="302">INAT</text>
<path d="M660,322 C654,324 627,335 627,370 L627,396 Q660,366 693,396 L693,370 C693,335 666,324 660,322"/>
<rect x="606" y="348" width="108" height="24"/>
<text x="660" y="360">Q = 0.5</text>
<polyline points="540,425 540,570"/>

<rect x="486" y="425" width="108" height="70"/>
<text x="540" y="460" style="font-size: 10px">Half probability</text>
<rect x="486" y="500" width="108" height="24"/>
<text x="540" y="512">PH</text>
<circle cx="540" cy="570" r="38"/>
<rect x="486" y="558" width="108" height="24"/>
<text x="540" y="570">Q = 0.5</text>
<polyline points="720,425 720,570"/>
<polyline points="710,570 710,620 660,620 660,670"/>
<polyline points="730,570 730,620 780,620 780,670"/>
<rect x="666" y="425" width="108" height="70"/>
<text x="720" y="453.5" style="font-size: 10px">AND probability</text>
<text x="720" y="466.5" style="font-size: 10px">test</text>
<rect x="666" y="500" width="108" height="24"/>
<text x="720" y="512">APT</text>
<path d="M688,604 L752,604 L752,564 C752,522 688,522 688,564 L688,604 "/>
<rect x="666" y="558" width="108" height="24"/>
<text x="720" y="570">Q = nan</text>
<polyline points="660,635 660,780"/>

<rect x="606" y="635" width="108" height="70"/>
<text x="660" y="663.5" style="font-size: 10px">Unknown</text>
<text x="660" y="676.5" style="font-size: 10px">probability</text>
<rect x="606" y="710" width="108" height="24"/>
<text x="660" y="722">PU</text>
<circle cx="660" cy="780" r="38"/>
<rect x="606" y="768" width="108" height="24"/>
<text x="660" y="780">Q = nan</text>
<polyline points="780,635 780,780"/>

<rect x="726" y="635" width="108" height="70"/>
<text x="780" y="670" style="font-size: 10px">Half probability</text>
<rect x="726" y="710" width="108" height="24"/>
<text x="780" y="722">PH</text>
<circle cx="780" cy="780" r="38"/>
<rect x="726" y="768" width="108" height="24"/>
<text x="780" y="780">Q = 0.5</text>
</svg>
