<?xml version="1.0" encoding="UTF-8"?>
<svg viewBox="-100 -200 800 1600" xmlns="http://www.w3.org/2000/svg">
<style>
circle, path, polygon, rect {
  fill: lightyellow;
  stroke: black;
  stroke-width: 1.3;
}
text {
  dominant-baseline: middle;
  font-family: Arial, sans-serif;
  font-size: 12px;
  text-anchor: middle;
}
</style>
<rect x="-45" y="-93" width="90" height="66"/>
<text x="0" y="-60">Failure of Fire Protection System</text>
<rect x="-45" y="-24" width="90" height="20"/>
<text x="0" y="-14">FPS</text>
<path d="M0,4 C-5,6 -32,20 -32,50 L-32,76 Q0,50 32,76 L32,50 C32,20 5,6 0,4"/>
<rect x="-295" y="107" width="90" height="66"/>
<text x="-250" y="140">Fire detection system fails</text>
<rect x="-295" y="176" width="90" height="20"/>
<text x="-250" y="186">FDS</text>
<path d="M-280,272 L-220,272 L-220,234 C-220,194 -280,194 -280,234 L-280,272 "/>
<rect x="-345" y="307" width="90" height="66"/>
<text x="-300" y="340">Failure of smoke detector sensor</text>
<rect x="-345" y="376" width="90" height="20"/>
<text x="-300" y="386">x1</text>
<circle cx="-300" cy="440" r="35"/>
<rect x="-245" y="307" width="90" height="66"/>
<text x="-200" y="340">Failure of heat detector sensor</text>
<rect x="-245" y="376" width="90" height="20"/>
<text x="-200" y="386">x2</text>
<circle cx="-200" cy="440" r="35"/>
<rect x="55" y="107" width="90" height="66"/>
<text x="100" y="140">Fire suppression system fails</text>
<rect x="55" y="176" width="90" height="20"/>
<text x="100" y="186">FSS</text>
<path d="M100,204 C95,206 68,220 68,250 L68,276 Q100,250 132,276 L132,250 C132,220 105,206 100,204"/>
<rect x="-145" y="307" width="90" height="66"/>
<text x="-100" y="340">No water to sprinkler system</text>
<rect x="-145" y="376" width="90" height="20"/>
<text x="-100" y="386">x3</text>
<circle cx="-100" cy="440" r="35"/>
<rect x="55" y="307" width="90" height="66"/>
<text x="100" y="340">Triggering system fails</text>
<rect x="55" y="376" width="90" height="20"/>
<text x="100" y="386">TS</text>
<path d="M70,472 L130,472 L130,434 C130,394 70,394 70,434 L70,472 "/>
<rect x="-45" y="507" width="90" height="66"/>
<text x="0" y="540">Automatic mechanism fails</text>
<rect x="-45" y="576" width="90" height="20"/>
<text x="0" y="586">x5</text>
<circle cx="0" cy="640" r="35"/>
<rect x="105" y="507" width="90" height="66"/>
<text x="150" y="540">Remote control fails</text>
<rect x="105" y="576" width="90" height="20"/>
<text x="150" y="586">RC</text>
<path d="M150,604 C145,606 118,620 118,650 L118,676 Q150,650 182,676 L182,650 C182,620 155,606 150,604"/>
<rect x="55" y="707" width="90" height="66"/>
<text x="100" y="740">Communications failure</text>
<rect x="55" y="776" width="90" height="20"/>
<text x="100" y="786">x6</text>
<circle cx="100" cy="840" r="35"/>
<rect x="155" y="707" width="90" height="66"/>
<text x="200" y="740">DDoS attack</text>
<rect x="155" y="776" width="90" height="20"/>
<text x="200" y="786">x7</text>
<circle cx="200" cy="840" r="35"/>
<rect x="255" y="307" width="90" height="66"/>
<text x="300" y="340">Sprinkler nozzles blocked</text>
<rect x="255" y="376" width="90" height="20"/>
<text x="300" y="386">x4</text>
<circle cx="300" cy="440" r="35"/>
</svg>
